<svg height="830" width="1300" xmlns="http://www.w3.org/2000/svg"><style> text { font-family: "Arial", monospace; } rect { fill: transparent } text { fill: black } @media (prefers-color-scheme: dark) { text { fill: white } rect { fill: #0D1117 } } </style><rect width="100%" height="100%" /><text x="10" y="30" >Year 2016</text><text x="305" y="30" >Part 1</text><text x="905" y="30" >Part 2</text><text x="105" y="60" >Average</text><text x="305" y="60" >Best</text><text x="505" y="60" >Worst</text><text x="705" y="60" >Average</text><text x="905" y="60" >Best</text><text x="1105" y="60" >Worst</text><text x="5" y="90" >Day 1:</text><text x="305" y="90" fill="red">⏰❗</text><text x="905" y="90" fill="red">⏰❗</text><text x="5" y="120" >Day 2:</text><text x="305" y="120" fill="red">⏰❗</text><text x="905" y="120" fill="red">⏰❗</text><text x="5" y="150" >Day 3:</text><text x="305" y="150" fill="red">⏰❗</text><text x="905" y="150" fill="red">⏰❗</text><text x="5" y="180" >Day 4:</text><text x="305" y="180" fill="red">⏰❗</text><text x="905" y="180" fill="red">⏰❗</text><text x="5" y="210" >Day 5:</text><text x="305" y="210" fill="red">⏰❗</text><text x="905" y="210" fill="red">⏰❗</text><text x="5" y="240" >Day 6:</text><text x="305" y="240" fill="red">⏰❗</text><text x="905" y="240" fill="red">⏰❗</text><text x="5" y="270" >Day 7:</text><text x="305" y="270" fill="red">⏰❗</text><text x="905" y="270" fill="red">⏰❗</text><text x="5" y="300" >Day 8:</text><text x="305" y="300" fill="red">⏰❗</text><text x="905" y="300" fill="red">⏰❗</text><text x="5" y="330" >Day 9:</text><text x="305" y="330" fill="red">⏰❗</text><text x="905" y="330" fill="red">⏰❗</text><text x="5" y="360" >Day 10:</text><text x="305" y="360" fill="red">⏰❗</text><text x="905" y="360" fill="red">⏰❗</text><text x="5" y="390" >Day 11:</text><text x="305" y="390" fill="red">⏰❗</text><text x="905" y="390" fill="red">⏰❗</text><text x="5" y="420" >Day 12:</text><text x="305" y="420" fill="red">⏰❗</text><text x="905" y="420" fill="red">⏰❗</text><text x="5" y="450" >Day 13:</text><text x="305" y="450" fill="red">⏰❗</text><text x="905" y="450" fill="red">⏰❗</text><text x="5" y="480" >Day 14:</text><text x="305" y="480" fill="red">⏰❗</text><text x="905" y="480" fill="red">⏰❗</text><text x="5" y="510" >Day 15:</text><text x="305" y="510" fill="red">⏰❗</text><text x="905" y="510" fill="red">⏰❗</text><text x="5" y="540" >Day 16:</text><text x="305" y="540" fill="red">⏰❗</text><text x="905" y="540" fill="red">⏰❗</text><text x="5" y="570" >Day 17:</text><text x="305" y="570" fill="red">⏰❗</text><text x="905" y="570" fill="red">⏰❗</text><text x="5" y="600" >Day 18:</text><text x="305" y="600" fill="red">⏰❗</text><text x="905" y="600" fill="red">⏰❗</text><text x="5" y="630" >Day 19:</text><text x="305" y="630" fill="red">⏰❗</text><text x="905" y="630" fill="red">⏰❗</text><text x="5" y="660" >Day 20:</text><text x="305" y="660" fill="red">⏰❗</text><text x="905" y="660" fill="red">⏰❗</text><text x="5" y="690" >Day 21:</text><text x="305" y="690" fill="red">⏰❗</text><text x="905" y="690" fill="red">⏰❗</text><text x="5" y="720" >Day 22:</text><text x="305" y="720" fill="red">⏰❗</text><text x="905" y="720" fill="red">⏰❗</text><text x="5" y="750" >Day 23:</text><text x="305" y="750" fill="red">⏰❗</text><text x="905" y="750" fill="red">⏰❗</text><text x="5" y="780" >Day 24:</text><text x="305" y="780" fill="red">⏰❗</text><text x="905" y="780" fill="red">⏰❗</text><text x="5" y="810" >Day 25:</text><text x="305" y="810" fill="red">⏰❗</text><text x="905" y="810" fill="red">⏰❗</text></svg>
