<svg height="830" width="1300" xmlns="http://www.w3.org/2000/svg"><rect width="100%" height="100%" fill="%230D1117" /><text x="10" y="30" fill="white">Year 2018</text><text x="305" y="30" fill="white">Part 1</text><text x="905" y="30" fill="white">Part 2</text><text x="105" y="60" fill="white">Average</text><text x="305" y="60" fill="white">Best</text><text x="505" y="60" fill="white">Worst</text><text x="705" y="60" fill="white">Average</text><text x="905" y="60" fill="white">Best</text><text x="1105" y="60" fill="white">Worst</text><text x="5" y="90" fill="white">Day 1:</text><text x="105" y="90" fill="white">16.064µs</text><text x="305" y="90" fill="white">32.406µs</text><text x="505" y="90" fill="white">15.225µs</text><text x="705" y="90" fill="white">8.295311ms</text><text x="905" y="90" fill="white">9.203534ms</text><text x="1105" y="90" fill="white">8.058453ms</text><text x="5" y="120" fill="white">Day 2:</text><text x="105" y="120" fill="white">237.978µs</text><text x="305" y="120" fill="white">310.644µs</text><text x="505" y="120" fill="white">224.253µs</text><text x="705" y="120" fill="white">3.387725ms</text><text x="905" y="120" fill="white">3.767958ms</text><text x="1105" y="120" fill="white">3.277898ms</text><text x="5" y="150" fill="white">Day 3:</text><text x="105" y="150" fill="white">47.553106ms</text><text x="305" y="150" fill="white">60.131893ms</text><text x="505" y="150" fill="white">44.705129ms</text><text x="705" y="150" fill="white">3.343155ms</text><text x="905" y="150" fill="white">3.957713ms</text><text x="1105" y="150" fill="white">3.236205ms</text><text x="5" y="180" fill="white">Day 4:</text><text x="105" y="180" fill="white">229.936µs</text><text x="305" y="180" fill="white">317.21µs</text><text x="505" y="180" fill="white">216.991µs</text><text x="705" y="180" fill="white">233.413µs</text><text x="905" y="180" fill="white">356.877µs</text><text x="1105" y="180" fill="white">220.063µs</text><text x="5" y="210" fill="white">Day 5:</text><text x="105" y="210" fill="white">152.858481ms</text><text x="305" y="210" fill="white">157.832212ms</text><text x="505" y="210" fill="white">151.127125ms</text><text x="705" y="210" fill="white">70.311895ms</text><text x="905" y="210" fill="white">681.610813ms</text><text x="1105" y="210" fill="white">580.119335ms</text><text x="5" y="240" fill="white">Day 6:</text><text x="105" y="240" fill="white">5.138533ms</text><text x="305" y="240" fill="white">6.137543ms</text><text x="505" y="240" fill="white">4.991271ms</text><text x="705" y="240" fill="white">2.754027ms</text><text x="905" y="240" fill="white">2.966562ms</text><text x="1105" y="240" fill="white">2.687693ms</text><text x="5" y="270" fill="white">Day 7:</text><text x="105" y="270" fill="white">20.685µs</text><text x="305" y="270" fill="white">61.947µs</text><text x="505" y="270" fill="white">19.136µs</text><text x="705" y="270" fill="white">93.25µs</text><text x="905" y="270" fill="white">133.951µs</text><text x="1105" y="270" fill="white">87.648µs</text><text x="5" y="300" fill="white">Day 8:</text><text x="105" y="300" fill="white">238.396µs</text><text x="305" y="300" fill="white">530.569µs</text><text x="505" y="300" fill="white">220.623µs</text><text x="705" y="300" fill="white">219.946µs</text><text x="905" y="300" fill="white">438.591µs</text><text x="1105" y="300" fill="white">207.632µs</text><text x="5" y="330" fill="white">Day 9:</text><text x="105" y="330" fill="white">466.354µs</text><text x="305" y="330" fill="white">858.604µs</text><text x="505" y="330" fill="white">444.108µs</text><text x="705" y="330" fill="white">79.0659ms</text><text x="905" y="330" fill="white">81.514949ms</text><text x="1105" y="330" fill="white">74.648042ms</text><text x="5" y="360" fill="white">Day 10:</text><text x="105" y="360" fill="white">6.692533ms</text><text x="305" y="360" fill="white">7.048531ms</text><text x="505" y="360" fill="white">6.597649ms</text><text x="705" y="360" fill="white">1.213µs</text><text x="905" y="360" fill="white">2.375µs</text><text x="1105" y="360" fill="white">907ns</text><text x="5" y="390" fill="white">Day 11:</text><text x="105" y="390" fill="white">808.046µs</text><text x="305" y="390" fill="white">851.48µs</text><text x="505" y="390" fill="white">786.6µs</text><text x="705" y="390" fill="red">Missing, timeout or OOM!</text><text x="5" y="420" fill="white">Day 12:</text><text x="105" y="420" fill="white">148.31µs</text><text x="305" y="420" fill="white">225.232µs</text><text x="505" y="420" fill="white">137.653µs</text><text x="705" y="420" fill="white">1.216µs</text><text x="905" y="420" fill="white">1.885µs</text><text x="1105" y="420" fill="white">907ns</text><text x="5" y="450" fill="white">Day 13:</text><text x="105" y="450" fill="red">Missing, timeout or OOM!</text><text x="705" y="450" fill="red">Missing, timeout or OOM!</text><text x="5" y="480" fill="white">Day 14:</text><text x="105" y="480" fill="red">Missing, timeout or OOM!</text><text x="705" y="480" fill="red">Missing, timeout or OOM!</text><text x="5" y="510" fill="white">Day 15:</text><text x="105" y="510" fill="red">Missing, timeout or OOM!</text><text x="705" y="510" fill="red">Missing, timeout or OOM!</text><text x="5" y="540" fill="white">Day 16:</text><text x="105" y="540" fill="red">Missing, timeout or OOM!</text><text x="705" y="540" fill="red">Missing, timeout or OOM!</text><text x="5" y="570" fill="white">Day 17:</text><text x="105" y="570" fill="red">Missing, timeout or OOM!</text><text x="705" y="570" fill="red">Missing, timeout or OOM!</text><text x="5" y="600" fill="white">Day 18:</text><text x="105" y="600" fill="red">Missing, timeout or OOM!</text><text x="705" y="600" fill="red">Missing, timeout or OOM!</text><text x="5" y="630" fill="white">Day 19:</text><text x="105" y="630" fill="red">Missing, timeout or OOM!</text><text x="705" y="630" fill="red">Missing, timeout or OOM!</text><text x="5" y="660" fill="white">Day 20:</text><text x="105" y="660" fill="red">Missing, timeout or OOM!</text><text x="705" y="660" fill="red">Missing, timeout or OOM!</text><text x="5" y="690" fill="white">Day 21:</text><text x="105" y="690" fill="red">Missing, timeout or OOM!</text><text x="705" y="690" fill="red">Missing, timeout or OOM!</text><text x="5" y="720" fill="white">Day 22:</text><text x="105" y="720" fill="red">Missing, timeout or OOM!</text><text x="705" y="720" fill="red">Missing, timeout or OOM!</text><text x="5" y="750" fill="white">Day 23:</text><text x="105" y="750" fill="red">Missing, timeout or OOM!</text><text x="705" y="750" fill="red">Missing, timeout or OOM!</text><text x="5" y="780" fill="white">Day 24:</text><text x="105" y="780" fill="red">Missing, timeout or OOM!</text><text x="705" y="780" fill="red">Missing, timeout or OOM!</text><text x="5" y="810" fill="white">Day 25:</text><text x="105" y="810" fill="red">Missing, timeout or OOM!</text><text x="705" y="810" fill="red">Missing, timeout or OOM!</text></svg>
