<svg height="830" width="1300" xmlns="http://www.w3.org/2000/svg"><rect width="100%" height="100%" fill="%230D1117" /><text x="10" y="30" fill="white">Year 2018</text><text x="305" y="30" fill="white">Part 1</text><text x="905" y="30" fill="white">Part 2</text><text x="105" y="60" fill="white">Average</text><text x="305" y="60" fill="white">Best</text><text x="505" y="60" fill="white">Worst</text><text x="705" y="60" fill="white">Average</text><text x="905" y="60" fill="white">Best</text><text x="1105" y="60" fill="white">Worst</text><text x="5" y="90" fill="white">Day 1:</text><text x="105" y="90" fill="white">16.277µs</text><text x="305" y="90" fill="white">41.835µs</text><text x="505" y="90" fill="white">14.457µs</text><text x="705" y="90" fill="red">Missing, timeout or OOM!</text><text x="5" y="120" fill="white">Day 2:</text><text x="105" y="120" fill="white">232.199µs</text><text x="305" y="120" fill="white">373.091µs</text><text x="505" y="120" fill="white">221.815µs</text><text x="705" y="120" fill="red">Missing, timeout or OOM!</text><text x="5" y="150" fill="white">Day 3:</text><text x="105" y="150" fill="red">Missing, timeout or OOM!</text><text x="705" y="150" fill="red">Missing, timeout or OOM!</text><text x="5" y="180" fill="white">Day 4:</text><text x="105" y="180" fill="white">227.147µs</text><text x="305" y="180" fill="white">370.297µs</text><text x="505" y="180" fill="white">214.063µs</text><text x="705" y="180" fill="white">227.917µs</text><text x="905" y="180" fill="white">333.839µs</text><text x="1105" y="180" fill="white">216.297µs</text><text x="5" y="210" fill="white">Day 5:</text><text x="105" y="210" fill="red">Missing, timeout or OOM!</text><text x="705" y="210" fill="red">Missing, timeout or OOM!</text><text x="5" y="240" fill="white">Day 6:</text><text x="105" y="240" fill="red">Missing, timeout or OOM!</text><text x="705" y="240" fill="red">Missing, timeout or OOM!</text><text x="5" y="270" fill="white">Day 7:</text><text x="105" y="270" fill="white">20.385µs</text><text x="305" y="270" fill="white">52.381µs</text><text x="505" y="270" fill="white">19.276µs</text><text x="705" y="270" fill="white">85.096µs</text><text x="905" y="270" fill="white">135.981µs</text><text x="1105" y="270" fill="white">82.273µs</text><text x="5" y="300" fill="white">Day 8:</text><text x="105" y="300" fill="white">226.68µs</text><text x="305" y="300" fill="white">449.427µs</text><text x="505" y="300" fill="white">215.32µs</text><text x="705" y="300" fill="white">211.596µs</text><text x="905" y="300" fill="white">457.039µs</text><text x="1105" y="300" fill="white">201.421µs</text><text x="5" y="330" fill="white">Day 9:</text><text x="105" y="330" fill="white">487.71µs</text><text x="305" y="330" fill="white">836.624µs</text><text x="505" y="330" fill="white">470.589µs</text><text x="705" y="330" fill="red">Missing, timeout or OOM!</text><text x="5" y="360" fill="white">Day 10:</text><text x="105" y="360" fill="red">Missing, timeout or OOM!</text><text x="705" y="360" fill="white">1.238µs</text><text x="905" y="360" fill="white">23.397µs</text><text x="1105" y="360" fill="white">907ns</text><text x="5" y="390" fill="white">Day 11:</text><text x="105" y="390" fill="white">796.262µs</text><text x="305" y="390" fill="white">1.035183ms</text><text x="505" y="390" fill="white">775.933µs</text><text x="705" y="390" fill="red">Missing, timeout or OOM!</text><text x="5" y="420" fill="white">Day 12:</text><text x="105" y="420" fill="white">146.035µs</text><text x="305" y="420" fill="white">230.196µs</text><text x="505" y="420" fill="white">137.237µs</text><text x="705" y="420" fill="white">1.214µs</text><text x="905" y="420" fill="white">10.058µs</text><text x="1105" y="420" fill="white">907ns</text><text x="5" y="450" fill="white">Day 13:</text><text x="105" y="450" fill="red">Missing, timeout or OOM!</text><text x="705" y="450" fill="red">Missing, timeout or OOM!</text><text x="5" y="480" fill="white">Day 14:</text><text x="105" y="480" fill="red">Missing, timeout or OOM!</text><text x="705" y="480" fill="red">Missing, timeout or OOM!</text><text x="5" y="510" fill="white">Day 15:</text><text x="105" y="510" fill="red">Missing, timeout or OOM!</text><text x="705" y="510" fill="red">Missing, timeout or OOM!</text><text x="5" y="540" fill="white">Day 16:</text><text x="105" y="540" fill="red">Missing, timeout or OOM!</text><text x="705" y="540" fill="red">Missing, timeout or OOM!</text><text x="5" y="570" fill="white">Day 17:</text><text x="105" y="570" fill="red">Missing, timeout or OOM!</text><text x="705" y="570" fill="red">Missing, timeout or OOM!</text><text x="5" y="600" fill="white">Day 18:</text><text x="105" y="600" fill="red">Missing, timeout or OOM!</text><text x="705" y="600" fill="red">Missing, timeout or OOM!</text><text x="5" y="630" fill="white">Day 19:</text><text x="105" y="630" fill="red">Missing, timeout or OOM!</text><text x="705" y="630" fill="red">Missing, timeout or OOM!</text><text x="5" y="660" fill="white">Day 20:</text><text x="105" y="660" fill="red">Missing, timeout or OOM!</text><text x="705" y="660" fill="red">Missing, timeout or OOM!</text><text x="5" y="690" fill="white">Day 21:</text><text x="105" y="690" fill="red">Missing, timeout or OOM!</text><text x="705" y="690" fill="red">Missing, timeout or OOM!</text><text x="5" y="720" fill="white">Day 22:</text><text x="105" y="720" fill="red">Missing, timeout or OOM!</text><text x="705" y="720" fill="red">Missing, timeout or OOM!</text><text x="5" y="750" fill="white">Day 23:</text><text x="105" y="750" fill="red">Missing, timeout or OOM!</text><text x="705" y="750" fill="red">Missing, timeout or OOM!</text><text x="5" y="780" fill="white">Day 24:</text><text x="105" y="780" fill="red">Missing, timeout or OOM!</text><text x="705" y="780" fill="red">Missing, timeout or OOM!</text><text x="5" y="810" fill="white">Day 25:</text><text x="105" y="810" fill="red">Missing, timeout or OOM!</text><text x="705" y="810" fill="red">Missing, timeout or OOM!</text></svg>
