<svg height="830" width="1300" xmlns="http://www.w3.org/2000/svg"><rect width="100%" height="100%" fill="%230D1117" /><text x="10" y="30" fill="white">Year 2018</text><text x="305" y="30" fill="white">Part 1</text><text x="905" y="30" fill="white">Part 2</text><text x="105" y="60" fill="white">Average</text><text x="305" y="60" fill="white">Best</text><text x="505" y="60" fill="white">Worst</text><text x="705" y="60" fill="white">Average</text><text x="905" y="60" fill="white">Best</text><text x="1105" y="60" fill="white">Worst</text><text x="5" y="90" fill="white">Day 1:</text><text x="105" y="90" fill="white">26.566µs</text><text x="305" y="90" fill="white">83.106µs</text><text x="505" y="90" fill="white">22.542µs</text><text x="705" y="90" fill="red">Missing or timeout!</text><text x="5" y="120" fill="white">Day 2:</text><text x="105" y="120" fill="white">339.562µs</text><text x="305" y="120" fill="white">643.202µs</text><text x="505" y="120" fill="white">326.785µs</text><text x="705" y="120" fill="red">Missing or timeout!</text><text x="5" y="150" fill="white">Day 3:</text><text x="105" y="150" fill="red">Missing or timeout!</text><text x="705" y="150" fill="red">Missing or timeout!</text><text x="5" y="180" fill="white">Day 4:</text><text x="105" y="180" fill="white">298.609µs</text><text x="305" y="180" fill="white">368.253µs</text><text x="505" y="180" fill="white">289.025µs</text><text x="705" y="180" fill="white">355.681µs</text><text x="905" y="180" fill="white">448.384µs</text><text x="1105" y="180" fill="white">294.625µs</text><text x="5" y="210" fill="white">Day 5:</text><text x="105" y="210" fill="red">Missing or timeout!</text><text x="705" y="210" fill="red">Missing or timeout!</text><text x="5" y="240" fill="white">Day 6:</text><text x="105" y="240" fill="red">Missing or timeout!</text><text x="705" y="240" fill="red">Missing or timeout!</text><text x="5" y="270" fill="white">Day 7:</text><text x="105" y="270" fill="white">24.263µs</text><text x="305" y="270" fill="white">69.982µs</text><text x="505" y="270" fill="white">21.681µs</text><text x="705" y="270" fill="white">127.422µs</text><text x="905" y="270" fill="white">948.065µs</text><text x="1105" y="270" fill="white">114.125µs</text><text x="5" y="300" fill="white">Day 8:</text><text x="105" y="300" fill="white">276.889µs</text><text x="305" y="300" fill="white">903.532µs</text><text x="505" y="300" fill="white">265.16µs</text><text x="705" y="300" fill="white">280.815µs</text><text x="905" y="300" fill="white">470.175µs</text><text x="1105" y="300" fill="white">263.646µs</text><text x="5" y="330" fill="white">Day 9:</text><text x="105" y="330" fill="white">584.51µs</text><text x="305" y="330" fill="white">1.301371ms</text><text x="505" y="330" fill="white">531.762µs</text><text x="705" y="330" fill="red">Missing or timeout!</text><text x="5" y="360" fill="white">Day 10:</text><text x="105" y="360" fill="red">Missing or timeout!</text><text x="705" y="360" fill="white">32ns</text><text x="905" y="360" fill="white">621ns</text><text x="1105" y="360" fill="white">30ns</text><text x="5" y="390" fill="white">Day 11:</text><text x="105" y="390" fill="white">1.602614ms</text><text x="305" y="390" fill="white">3.505542ms</text><text x="505" y="390" fill="white">1.493323ms</text><text x="705" y="390" fill="red">Missing or timeout!</text><text x="5" y="420" fill="white">Day 12:</text><text x="105" y="420" fill="white">161.715µs</text><text x="305" y="420" fill="white">288.473µs</text><text x="505" y="420" fill="white">152.387µs</text><text x="705" y="420" fill="white">34ns</text><text x="905" y="420" fill="white">5.03µs</text><text x="1105" y="420" fill="white">20ns</text><text x="5" y="450" fill="white">Day 13:</text><text x="105" y="450" fill="red">Missing or timeout!</text><text x="705" y="450" fill="red">Missing or timeout!</text><text x="5" y="480" fill="white">Day 14:</text><text x="105" y="480" fill="red">Missing or timeout!</text><text x="705" y="480" fill="red">Missing or timeout!</text><text x="5" y="510" fill="white">Day 15:</text><text x="105" y="510" fill="red">Missing or timeout!</text><text x="705" y="510" fill="red">Missing or timeout!</text><text x="5" y="540" fill="white">Day 16:</text><text x="105" y="540" fill="red">Missing or timeout!</text><text x="705" y="540" fill="red">Missing or timeout!</text><text x="5" y="570" fill="white">Day 17:</text><text x="105" y="570" fill="red">Missing or timeout!</text><text x="705" y="570" fill="red">Missing or timeout!</text><text x="5" y="600" fill="white">Day 18:</text><text x="105" y="600" fill="red">Missing or timeout!</text><text x="705" y="600" fill="red">Missing or timeout!</text><text x="5" y="630" fill="white">Day 19:</text><text x="105" y="630" fill="red">Missing or timeout!</text><text x="705" y="630" fill="red">Missing or timeout!</text><text x="5" y="660" fill="white">Day 20:</text><text x="105" y="660" fill="red">Missing or timeout!</text><text x="705" y="660" fill="red">Missing or timeout!</text><text x="5" y="690" fill="white">Day 21:</text><text x="105" y="690" fill="red">Missing or timeout!</text><text x="705" y="690" fill="red">Missing or timeout!</text><text x="5" y="720" fill="white">Day 22:</text><text x="105" y="720" fill="red">Missing or timeout!</text><text x="705" y="720" fill="red">Missing or timeout!</text><text x="5" y="750" fill="white">Day 23:</text><text x="105" y="750" fill="red">Missing or timeout!</text><text x="705" y="750" fill="red">Missing or timeout!</text><text x="5" y="780" fill="white">Day 24:</text><text x="105" y="780" fill="red">Missing or timeout!</text><text x="705" y="780" fill="red">Missing or timeout!</text><text x="5" y="810" fill="white">Day 25:</text><text x="105" y="810" fill="red">Missing or timeout!</text><text x="705" y="810" fill="red">Missing or timeout!</text></svg>
