<svg height="830" width="1300" xmlns="http://www.w3.org/2000/svg"><rect width="100%" height="100%" fill="%230D1117" /><text x="10" y="30" fill="white">Year 2018</text><text x="305" y="30" fill="white">Part 1</text><text x="905" y="30" fill="white">Part 2</text><text x="105" y="60" fill="white">Average</text><text x="305" y="60" fill="white">Best</text><text x="505" y="60" fill="white">Worst</text><text x="705" y="60" fill="white">Average</text><text x="905" y="60" fill="white">Best</text><text x="1105" y="60" fill="white">Worst</text><text x="5" y="90" fill="white">Day 1:</text><text x="105" y="90" fill="white">18.737µs</text><text x="305" y="90" fill="white">15.575µs</text><text x="505" y="90" fill="white">55.597µs</text><text x="705" y="90" fill="white">8.252065ms</text><text x="905" y="90" fill="white">8.072554ms</text><text x="1105" y="90" fill="white">8.974471ms</text><text x="5" y="120" fill="white">Day 2:</text><text x="105" y="120" fill="white">235.084µs</text><text x="305" y="120" fill="white">223.297µs</text><text x="505" y="120" fill="white">311.931µs</text><text x="705" y="120" fill="white">3.32793ms</text><text x="905" y="120" fill="white">3.290919ms</text><text x="1105" y="120" fill="white">3.619264ms</text><text x="5" y="150" fill="white">Day 3:</text><text x="105" y="150" fill="white">50.753408ms</text><text x="305" y="150" fill="white">44.348076ms</text><text x="505" y="150" fill="white">63.243361ms</text><text x="705" y="150" fill="white">3.316611ms</text><text x="905" y="150" fill="white">3.24866ms</text><text x="1105" y="150" fill="white">3.750921ms</text><text x="5" y="180" fill="white">Day 4:</text><text x="105" y="180" fill="white">226.431µs</text><text x="305" y="180" fill="white">217.36µs</text><text x="505" y="180" fill="white">329.741µs</text><text x="705" y="180" fill="white">227.464µs</text><text x="905" y="180" fill="white">217.57µs</text><text x="1105" y="180" fill="white">291.955µs</text><text x="5" y="210" fill="white">Day 5:</text><text x="105" y="210" fill="white">152.302322ms</text><text x="305" y="210" fill="white">151.160644ms</text><text x="505" y="210" fill="white">158.325113ms</text><text x="705" y="210" fill="white">71.905323ms</text><text x="905" y="210" fill="white">581.878267ms</text><text x="1105" y="210" fill="white">747.809351ms</text><text x="5" y="240" fill="white">Day 6:</text><text x="105" y="240" fill="white">5.089291ms</text><text x="305" y="240" fill="white">4.981591ms</text><text x="505" y="240" fill="white">5.595114ms</text><text x="705" y="240" fill="white">2.738253ms</text><text x="905" y="240" fill="white">2.691287ms</text><text x="1105" y="240" fill="white">2.907249ms</text><text x="5" y="270" fill="white">Day 7:</text><text x="105" y="270" fill="white">21.841µs</text><text x="305" y="270" fill="white">19.626µs</text><text x="505" y="270" fill="white">59.159µs</text><text x="705" y="270" fill="white">92.545µs</text><text x="905" y="270" fill="white">87.237µs</text><text x="1105" y="270" fill="white">145.698µs</text><text x="5" y="300" fill="white">Day 8:</text><text x="105" y="300" fill="white">235.275µs</text><text x="305" y="300" fill="white">220.502µs</text><text x="505" y="300" fill="white">516.647µs</text><text x="705" y="300" fill="white">223.489µs</text><text x="905" y="300" fill="white">208µs</text><text x="1105" y="300" fill="white">426.896µs</text><text x="5" y="330" fill="white">Day 9:</text><text x="105" y="330" fill="white">467.85µs</text><text x="305" y="330" fill="white">444.217µs</text><text x="505" y="330" fill="white">787.997µs</text><text x="705" y="330" fill="white">77.369753ms</text><text x="905" y="330" fill="white">75.729763ms</text><text x="1105" y="330" fill="white">81.438962ms</text><text x="5" y="360" fill="white">Day 10:</text><text x="105" y="360" fill="white">6.717964ms</text><text x="305" y="360" fill="white">6.680298ms</text><text x="505" y="360" fill="white">7.267769ms</text><text x="705" y="360" fill="white">1.306µs</text><text x="905" y="360" fill="white">908ns</text><text x="1105" y="360" fill="white">2.375µs</text><text x="5" y="390" fill="white">Day 11:</text><text x="105" y="390" fill="white">818.555µs</text><text x="305" y="390" fill="white">790.65µs</text><text x="505" y="390" fill="white">1.026938ms</text><text x="705" y="390" fill="red">Missing, timeout or OOM!</text><text x="5" y="420" fill="white">Day 12:</text><text x="105" y="420" fill="white">150.238µs</text><text x="305" y="420" fill="white">137.316µs</text><text x="505" y="420" fill="white">227.346µs</text><text x="705" y="420" fill="white">1.195µs</text><text x="905" y="420" fill="white">908ns</text><text x="1105" y="420" fill="white">1.886µs</text><text x="5" y="450" fill="white">Day 13:</text><text x="105" y="450" fill="red">Missing, timeout or OOM!</text><text x="705" y="450" fill="red">Missing, timeout or OOM!</text><text x="5" y="480" fill="white">Day 14:</text><text x="105" y="480" fill="red">Missing, timeout or OOM!</text><text x="705" y="480" fill="red">Missing, timeout or OOM!</text><text x="5" y="510" fill="white">Day 15:</text><text x="105" y="510" fill="red">Missing, timeout or OOM!</text><text x="705" y="510" fill="red">Missing, timeout or OOM!</text><text x="5" y="540" fill="white">Day 16:</text><text x="105" y="540" fill="red">Missing, timeout or OOM!</text><text x="705" y="540" fill="red">Missing, timeout or OOM!</text><text x="5" y="570" fill="white">Day 17:</text><text x="105" y="570" fill="red">Missing, timeout or OOM!</text><text x="705" y="570" fill="red">Missing, timeout or OOM!</text><text x="5" y="600" fill="white">Day 18:</text><text x="105" y="600" fill="red">Missing, timeout or OOM!</text><text x="705" y="600" fill="red">Missing, timeout or OOM!</text><text x="5" y="630" fill="white">Day 19:</text><text x="105" y="630" fill="red">Missing, timeout or OOM!</text><text x="705" y="630" fill="red">Missing, timeout or OOM!</text><text x="5" y="660" fill="white">Day 20:</text><text x="105" y="660" fill="red">Missing, timeout or OOM!</text><text x="705" y="660" fill="red">Missing, timeout or OOM!</text><text x="5" y="690" fill="white">Day 21:</text><text x="105" y="690" fill="red">Missing, timeout or OOM!</text><text x="705" y="690" fill="red">Missing, timeout or OOM!</text><text x="5" y="720" fill="white">Day 22:</text><text x="105" y="720" fill="red">Missing, timeout or OOM!</text><text x="705" y="720" fill="red">Missing, timeout or OOM!</text><text x="5" y="750" fill="white">Day 23:</text><text x="105" y="750" fill="red">Missing, timeout or OOM!</text><text x="705" y="750" fill="red">Missing, timeout or OOM!</text><text x="5" y="780" fill="white">Day 24:</text><text x="105" y="780" fill="red">Missing, timeout or OOM!</text><text x="705" y="780" fill="red">Missing, timeout or OOM!</text><text x="5" y="810" fill="white">Day 25:</text><text x="105" y="810" fill="red">Missing, timeout or OOM!</text><text x="705" y="810" fill="red">Missing, timeout or OOM!</text></svg>
