<svg height="830" width="1300" xmlns="http://www.w3.org/2000/svg"><rect width="100%" height="100%" fill="%230D1117" /><text x="10" y="30" fill="white">Year 2018</text><text x="305" y="30" fill="white">Part 1</text><text x="905" y="30" fill="white">Part 2</text><text x="105" y="60" fill="white">Average</text><text x="305" y="60" fill="white">Best</text><text x="505" y="60" fill="white">Worst</text><text x="705" y="60" fill="white">Average</text><text x="905" y="60" fill="white">Best</text><text x="1105" y="60" fill="white">Worst</text><text x="5" y="90" fill="white">Day 1:</text><text x="105" y="90" fill="white">16.057µs</text><text x="305" y="90" fill="white">15.226µs</text><text x="505" y="90" fill="white">32.827µs</text><text x="705" y="90" fill="white">8.276865ms</text><text x="905" y="90" fill="white">8.047143ms</text><text x="1105" y="90" fill="white">9.563037ms</text><text x="5" y="120" fill="white">Day 2:</text><text x="105" y="120" fill="white">234.74µs</text><text x="305" y="120" fill="white">225.177µs</text><text x="505" y="120" fill="white">313.39µs</text><text x="705" y="120" fill="white">3.33078ms</text><text x="905" y="120" fill="white">3.226093ms</text><text x="1105" y="120" fill="white">3.55869ms</text><text x="5" y="150" fill="white">Day 3:</text><text x="105" y="150" fill="white">47.296831ms</text><text x="305" y="150" fill="white">44.13126ms</text><text x="505" y="150" fill="white">59.45091ms</text><text x="705" y="150" fill="white">3.294764ms</text><text x="905" y="150" fill="white">3.2358ms</text><text x="1105" y="150" fill="white">3.813969ms</text><text x="5" y="180" fill="white">Day 4:</text><text x="105" y="180" fill="white">227.315µs</text><text x="305" y="180" fill="white">216.307µs</text><text x="505" y="180" fill="white">332.947µs</text><text x="705" y="180" fill="white">232.735µs</text><text x="905" y="180" fill="white">222.383µs</text><text x="1105" y="180" fill="white">317.79µs</text><text x="5" y="210" fill="white">Day 5:</text><text x="105" y="210" fill="white">161.454716ms</text><text x="305" y="210" fill="white">151.267176ms</text><text x="505" y="210" fill="white">181.894112ms</text><text x="705" y="210" fill="white">70.872039ms</text><text x="905" y="210" fill="white">574.398038ms</text><text x="1105" y="210" fill="white">667.280833ms</text><text x="5" y="240" fill="white">Day 6:</text><text x="105" y="240" fill="white">5.088491ms</text><text x="305" y="240" fill="white">5.007737ms</text><text x="505" y="240" fill="white">5.233893ms</text><text x="705" y="240" fill="white">2.747633ms</text><text x="905" y="240" fill="white">2.683054ms</text><text x="1105" y="240" fill="white">2.984779ms</text><text x="5" y="270" fill="white">Day 7:</text><text x="105" y="270" fill="white">20.7µs</text><text x="305" y="270" fill="white">19.487µs</text><text x="505" y="270" fill="white">55.805µs</text><text x="705" y="270" fill="white">93.421µs</text><text x="905" y="270" fill="white">87.165µs</text><text x="1105" y="270" fill="white">148.977µs</text><text x="5" y="300" fill="white">Day 8:</text><text x="105" y="300" fill="white">233.492µs</text><text x="305" y="300" fill="white">221.405µs</text><text x="505" y="300" fill="white">406.421µs</text><text x="705" y="300" fill="white">220.774µs</text><text x="905" y="300" fill="white">211.208µs</text><text x="1105" y="300" fill="white">426.048µs</text><text x="5" y="330" fill="white">Day 9:</text><text x="105" y="330" fill="white">465.96µs</text><text x="305" y="330" fill="white">444.207µs</text><text x="505" y="330" fill="white">823.111µs</text><text x="705" y="330" fill="white">76.859636ms</text><text x="905" y="330" fill="white">74.464971ms</text><text x="1105" y="330" fill="white">80.937761ms</text><text x="5" y="360" fill="white">Day 10:</text><text x="105" y="360" fill="white">6.720033ms</text><text x="305" y="360" fill="white">6.619593ms</text><text x="505" y="360" fill="white">7.280805ms</text><text x="705" y="360" fill="white">1.276µs</text><text x="905" y="360" fill="white">907ns</text><text x="1105" y="360" fill="white">1.886µs</text><text x="5" y="390" fill="white">Day 11:</text><text x="105" y="390" fill="white">811.398µs</text><text x="305" y="390" fill="white">790.632µs</text><text x="505" y="390" fill="white">982.215µs</text><text x="705" y="390" fill="red">Missing, timeout or OOM!</text><text x="5" y="420" fill="white">Day 12:</text><text x="105" y="420" fill="white">148.008µs</text><text x="305" y="420" fill="white">137.033µs</text><text x="505" y="420" fill="white">234.955µs</text><text x="705" y="420" fill="white">1.167µs</text><text x="905" y="420" fill="white">908ns</text><text x="1105" y="420" fill="white">1.467µs</text><text x="5" y="450" fill="white">Day 13:</text><text x="105" y="450" fill="red">Missing, timeout or OOM!</text><text x="705" y="450" fill="red">Missing, timeout or OOM!</text><text x="5" y="480" fill="white">Day 14:</text><text x="105" y="480" fill="red">Missing, timeout or OOM!</text><text x="705" y="480" fill="red">Missing, timeout or OOM!</text><text x="5" y="510" fill="white">Day 15:</text><text x="105" y="510" fill="red">Missing, timeout or OOM!</text><text x="705" y="510" fill="red">Missing, timeout or OOM!</text><text x="5" y="540" fill="white">Day 16:</text><text x="105" y="540" fill="red">Missing, timeout or OOM!</text><text x="705" y="540" fill="red">Missing, timeout or OOM!</text><text x="5" y="570" fill="white">Day 17:</text><text x="105" y="570" fill="red">Missing, timeout or OOM!</text><text x="705" y="570" fill="red">Missing, timeout or OOM!</text><text x="5" y="600" fill="white">Day 18:</text><text x="105" y="600" fill="red">Missing, timeout or OOM!</text><text x="705" y="600" fill="red">Missing, timeout or OOM!</text><text x="5" y="630" fill="white">Day 19:</text><text x="105" y="630" fill="red">Missing, timeout or OOM!</text><text x="705" y="630" fill="red">Missing, timeout or OOM!</text><text x="5" y="660" fill="white">Day 20:</text><text x="105" y="660" fill="red">Missing, timeout or OOM!</text><text x="705" y="660" fill="red">Missing, timeout or OOM!</text><text x="5" y="690" fill="white">Day 21:</text><text x="105" y="690" fill="red">Missing, timeout or OOM!</text><text x="705" y="690" fill="red">Missing, timeout or OOM!</text><text x="5" y="720" fill="white">Day 22:</text><text x="105" y="720" fill="red">Missing, timeout or OOM!</text><text x="705" y="720" fill="red">Missing, timeout or OOM!</text><text x="5" y="750" fill="white">Day 23:</text><text x="105" y="750" fill="red">Missing, timeout or OOM!</text><text x="705" y="750" fill="red">Missing, timeout or OOM!</text><text x="5" y="780" fill="white">Day 24:</text><text x="105" y="780" fill="red">Missing, timeout or OOM!</text><text x="705" y="780" fill="red">Missing, timeout or OOM!</text><text x="5" y="810" fill="white">Day 25:</text><text x="105" y="810" fill="red">Missing, timeout or OOM!</text><text x="705" y="810" fill="red">Missing, timeout or OOM!</text></svg>
