<svg height="830" width="1300" xmlns="http://www.w3.org/2000/svg"><rect width="100%" height="100%" fill="%230D1117" /><text x="10" y="30" fill="white">Year 2018</text><text x="305" y="30" fill="white">Part 1</text><text x="905" y="30" fill="white">Part 2</text><text x="105" y="60" fill="white">Average</text><text x="305" y="60" fill="white">Best</text><text x="505" y="60" fill="white">Worst</text><text x="705" y="60" fill="white">Average</text><text x="905" y="60" fill="white">Best</text><text x="1105" y="60" fill="white">Worst</text><text x="5" y="90" fill="white">Day 1:</text><text x="105" y="90" fill="white">16.386µs</text><text x="305" y="90" fill="white">15.574µs</text><text x="505" y="90" fill="white">34.362µs</text><text x="705" y="90" fill="white">8.354541ms</text><text x="905" y="90" fill="white">8.110385ms</text><text x="1105" y="90" fill="white">9.32644ms</text><text x="5" y="120" fill="white">Day 2:</text><text x="105" y="120" fill="white">234.678µs</text><text x="305" y="120" fill="white">225.792µs</text><text x="505" y="120" fill="white">276.148µs</text><text x="705" y="120" fill="white">3.428174ms</text><text x="905" y="120" fill="white">3.358398ms</text><text x="1105" y="120" fill="white">3.486206ms</text><text x="5" y="150" fill="white">Day 3:</text><text x="105" y="150" fill="white">49.896292ms</text><text x="305" y="150" fill="white">44.374972ms</text><text x="505" y="150" fill="white">63.878163ms</text><text x="705" y="150" fill="white">3.320065ms</text><text x="905" y="150" fill="white">3.24456ms</text><text x="1105" y="150" fill="white">3.616598ms</text><text x="5" y="180" fill="white">Day 4:</text><text x="105" y="180" fill="white">227.48µs</text><text x="305" y="180" fill="white">216.993µs</text><text x="505" y="180" fill="white">323.36µs</text><text x="705" y="180" fill="white">234.946µs</text><text x="905" y="180" fill="white">220.904µs</text><text x="1105" y="180" fill="white">336.489µs</text><text x="5" y="210" fill="white">Day 5:</text><text x="105" y="210" fill="white">153.680708ms</text><text x="305" y="210" fill="white">151.483226ms</text><text x="505" y="210" fill="white">161.994515ms</text><text x="705" y="210" fill="red">Missing, timeout or OOM!</text><text x="5" y="240" fill="white">Day 6:</text><text x="105" y="240" fill="white">5.157763ms</text><text x="305" y="240" fill="white">4.984559ms</text><text x="505" y="240" fill="white">6.333032ms</text><text x="705" y="240" fill="white">2.784197ms</text><text x="905" y="240" fill="white">2.68633ms</text><text x="1105" y="240" fill="white">4.314653ms</text><text x="5" y="270" fill="white">Day 7:</text><text x="105" y="270" fill="white">22.617µs</text><text x="305" y="270" fill="white">18.647µs</text><text x="505" y="270" fill="white">56.989µs</text><text x="705" y="270" fill="white">93.214µs</text><text x="905" y="270" fill="white">89.116µs</text><text x="1105" y="270" fill="white">115.445µs</text><text x="5" y="300" fill="white">Day 8:</text><text x="105" y="300" fill="white">240.54µs</text><text x="305" y="300" fill="white">224.676µs</text><text x="505" y="300" fill="white">446.697µs</text><text x="705" y="300" fill="white">228.871µs</text><text x="905" y="300" fill="white">207.844µs</text><text x="1105" y="300" fill="white">392.92µs</text><text x="5" y="330" fill="white">Day 9:</text><text x="105" y="330" fill="white">472.399µs</text><text x="305" y="330" fill="white">448.373µs</text><text x="505" y="330" fill="white">769.289µs</text><text x="705" y="330" fill="white">77.990817ms</text><text x="905" y="330" fill="white">74.234338ms</text><text x="1105" y="330" fill="white">85.375797ms</text><text x="5" y="360" fill="white">Day 10:</text><text x="105" y="360" fill="white">6.682786ms</text><text x="305" y="360" fill="white">6.609392ms</text><text x="505" y="360" fill="white">7.010274ms</text><text x="705" y="360" fill="white">1.304µs</text><text x="905" y="360" fill="white">908ns</text><text x="1105" y="360" fill="white">1.956µs</text><text x="5" y="390" fill="white">Day 11:</text><text x="105" y="390" fill="white">814.379µs</text><text x="305" y="390" fill="white">789.752µs</text><text x="505" y="390" fill="white">958.766µs</text><text x="705" y="390" fill="red">Missing, timeout or OOM!</text><text x="5" y="420" fill="white">Day 12:</text><text x="105" y="420" fill="white">161.784µs</text><text x="305" y="420" fill="white">149.528µs</text><text x="505" y="420" fill="white">222.371µs</text><text x="705" y="420" fill="white">1.264µs</text><text x="905" y="420" fill="white">907ns</text><text x="1105" y="420" fill="white">1.815µs</text><text x="5" y="450" fill="white">Day 13:</text><text x="105" y="450" fill="red">Missing, timeout or OOM!</text><text x="705" y="450" fill="red">Missing, timeout or OOM!</text><text x="5" y="480" fill="white">Day 14:</text><text x="105" y="480" fill="red">Missing, timeout or OOM!</text><text x="705" y="480" fill="red">Missing, timeout or OOM!</text><text x="5" y="510" fill="white">Day 15:</text><text x="105" y="510" fill="red">Missing, timeout or OOM!</text><text x="705" y="510" fill="red">Missing, timeout or OOM!</text><text x="5" y="540" fill="white">Day 16:</text><text x="105" y="540" fill="red">Missing, timeout or OOM!</text><text x="705" y="540" fill="red">Missing, timeout or OOM!</text><text x="5" y="570" fill="white">Day 17:</text><text x="105" y="570" fill="red">Missing, timeout or OOM!</text><text x="705" y="570" fill="red">Missing, timeout or OOM!</text><text x="5" y="600" fill="white">Day 18:</text><text x="105" y="600" fill="red">Missing, timeout or OOM!</text><text x="705" y="600" fill="red">Missing, timeout or OOM!</text><text x="5" y="630" fill="white">Day 19:</text><text x="105" y="630" fill="red">Missing, timeout or OOM!</text><text x="705" y="630" fill="red">Missing, timeout or OOM!</text><text x="5" y="660" fill="white">Day 20:</text><text x="105" y="660" fill="red">Missing, timeout or OOM!</text><text x="705" y="660" fill="red">Missing, timeout or OOM!</text><text x="5" y="690" fill="white">Day 21:</text><text x="105" y="690" fill="red">Missing, timeout or OOM!</text><text x="705" y="690" fill="red">Missing, timeout or OOM!</text><text x="5" y="720" fill="white">Day 22:</text><text x="105" y="720" fill="red">Missing, timeout or OOM!</text><text x="705" y="720" fill="red">Missing, timeout or OOM!</text><text x="5" y="750" fill="white">Day 23:</text><text x="105" y="750" fill="red">Missing, timeout or OOM!</text><text x="705" y="750" fill="red">Missing, timeout or OOM!</text><text x="5" y="780" fill="white">Day 24:</text><text x="105" y="780" fill="red">Missing, timeout or OOM!</text><text x="705" y="780" fill="red">Missing, timeout or OOM!</text><text x="5" y="810" fill="white">Day 25:</text><text x="105" y="810" fill="red">Missing, timeout or OOM!</text><text x="705" y="810" fill="red">Missing, timeout or OOM!</text></svg>
