<svg height="830" width="1300" xmlns="http://www.w3.org/2000/svg"><rect width="100%" height="100%" fill="%230D1117" /><text x="10" y="30" fill="white">Year 2018</text><text x="305" y="30" fill="white">Part 1</text><text x="905" y="30" fill="white">Part 2</text><text x="105" y="60" fill="white">Average</text><text x="305" y="60" fill="white">Best</text><text x="505" y="60" fill="white">Worst</text><text x="705" y="60" fill="white">Average</text><text x="905" y="60" fill="white">Best</text><text x="1105" y="60" fill="white">Worst</text><text x="5" y="90" fill="white">Day 1:</text><text x="105" y="90" fill="white">19.514µs</text><text x="305" y="90" fill="white">15.295µs</text><text x="505" y="90" fill="white">229.7µs</text><text x="705" y="90" fill="white">8.362456ms</text><text x="905" y="90" fill="white">8.067079ms</text><text x="1105" y="90" fill="white">9.474609ms</text><text x="5" y="120" fill="white">Day 2:</text><text x="105" y="120" fill="white">232.968µs</text><text x="305" y="120" fill="white">224.671µs</text><text x="505" y="120" fill="white">405.973µs</text><text x="705" y="120" fill="white">3.351583ms</text><text x="905" y="120" fill="white">3.223689ms</text><text x="1105" y="120" fill="white">4.030815ms</text><text x="5" y="150" fill="white">Day 3:</text><text x="105" y="150" fill="white">48.931134ms</text><text x="305" y="150" fill="white">44.321739ms</text><text x="505" y="150" fill="white">61.605846ms</text><text x="705" y="150" fill="white">3.367284ms</text><text x="905" y="150" fill="white">3.238077ms</text><text x="1105" y="150" fill="white">4.534774ms</text><text x="5" y="180" fill="white">Day 4:</text><text x="105" y="180" fill="white">428.598µs</text><text x="305" y="180" fill="white">216.011µs</text><text x="505" y="180" fill="white">20.316533ms</text><text x="705" y="180" fill="white">245.309µs</text><text x="905" y="180" fill="white">217.339µs</text><text x="1105" y="180" fill="white">353.385µs</text><text x="5" y="210" fill="white">Day 5:</text><text x="105" y="210" fill="white">154.651387ms</text><text x="305" y="210" fill="white">151.241373ms</text><text x="505" y="210" fill="white">163.914486ms</text><text x="705" y="210" fill="white">71.29563ms</text><text x="905" y="210" fill="white">586.106689ms</text><text x="1105" y="210" fill="white">686.278453ms</text><text x="5" y="240" fill="white">Day 6:</text><text x="105" y="240" fill="white">5.104619ms</text><text x="305" y="240" fill="white">5.008988ms</text><text x="505" y="240" fill="white">5.473068ms</text><text x="705" y="240" fill="white">2.761985ms</text><text x="905" y="240" fill="white">2.68391ms</text><text x="1105" y="240" fill="white">3.898688ms</text><text x="5" y="270" fill="white">Day 7:</text><text x="105" y="270" fill="white">23.637µs</text><text x="305" y="270" fill="white">19.485µs</text><text x="505" y="270" fill="white">312.389µs</text><text x="705" y="270" fill="white">95.645µs</text><text x="905" y="270" fill="white">88.695µs</text><text x="1105" y="270" fill="white">148.128µs</text><text x="5" y="300" fill="white">Day 8:</text><text x="105" y="300" fill="white">239.585µs</text><text x="305" y="300" fill="white">219.085µs</text><text x="505" y="300" fill="white">789.389µs</text><text x="705" y="300" fill="white">229.136µs</text><text x="905" y="300" fill="white">209.028µs</text><text x="1105" y="300" fill="white">418.195µs</text><text x="5" y="330" fill="white">Day 9:</text><text x="105" y="330" fill="white">487.931µs</text><text x="305" y="330" fill="white">442.709µs</text><text x="505" y="330" fill="white">1.116445ms</text><text x="705" y="330" fill="white">78.056777ms</text><text x="905" y="330" fill="white">74.532555ms</text><text x="1105" y="330" fill="white">83.802338ms</text><text x="5" y="360" fill="white">Day 10:</text><text x="105" y="360" fill="white">6.739182ms</text><text x="305" y="360" fill="white">6.622481ms</text><text x="505" y="360" fill="white">7.309068ms</text><text x="705" y="360" fill="white">1.187µs</text><text x="905" y="360" fill="white">907ns</text><text x="1105" y="360" fill="white">1.886µs</text><text x="5" y="390" fill="white">Day 11:</text><text x="105" y="390" fill="white">814.808µs</text><text x="305" y="390" fill="white">786.457µs</text><text x="505" y="390" fill="white">1.065463ms</text><text x="705" y="390" fill="red">Missing, timeout or OOM!</text><text x="5" y="420" fill="white">Day 12:</text><text x="105" y="420" fill="white">180.9µs</text><text x="305" y="420" fill="white">136.954µs</text><text x="505" y="420" fill="white">3.768025ms</text><text x="705" y="420" fill="white">1.262µs</text><text x="905" y="420" fill="white">907ns</text><text x="1105" y="420" fill="white">1.886µs</text><text x="5" y="450" fill="white">Day 13:</text><text x="105" y="450" fill="red">Missing, timeout or OOM!</text><text x="705" y="450" fill="red">Missing, timeout or OOM!</text><text x="5" y="480" fill="white">Day 14:</text><text x="105" y="480" fill="red">Missing, timeout or OOM!</text><text x="705" y="480" fill="red">Missing, timeout or OOM!</text><text x="5" y="510" fill="white">Day 15:</text><text x="105" y="510" fill="red">Missing, timeout or OOM!</text><text x="705" y="510" fill="red">Missing, timeout or OOM!</text><text x="5" y="540" fill="white">Day 16:</text><text x="105" y="540" fill="red">Missing, timeout or OOM!</text><text x="705" y="540" fill="red">Missing, timeout or OOM!</text><text x="5" y="570" fill="white">Day 17:</text><text x="105" y="570" fill="red">Missing, timeout or OOM!</text><text x="705" y="570" fill="red">Missing, timeout or OOM!</text><text x="5" y="600" fill="white">Day 18:</text><text x="105" y="600" fill="red">Missing, timeout or OOM!</text><text x="705" y="600" fill="red">Missing, timeout or OOM!</text><text x="5" y="630" fill="white">Day 19:</text><text x="105" y="630" fill="red">Missing, timeout or OOM!</text><text x="705" y="630" fill="red">Missing, timeout or OOM!</text><text x="5" y="660" fill="white">Day 20:</text><text x="105" y="660" fill="red">Missing, timeout or OOM!</text><text x="705" y="660" fill="red">Missing, timeout or OOM!</text><text x="5" y="690" fill="white">Day 21:</text><text x="105" y="690" fill="red">Missing, timeout or OOM!</text><text x="705" y="690" fill="red">Missing, timeout or OOM!</text><text x="5" y="720" fill="white">Day 22:</text><text x="105" y="720" fill="red">Missing, timeout or OOM!</text><text x="705" y="720" fill="red">Missing, timeout or OOM!</text><text x="5" y="750" fill="white">Day 23:</text><text x="105" y="750" fill="red">Missing, timeout or OOM!</text><text x="705" y="750" fill="red">Missing, timeout or OOM!</text><text x="5" y="780" fill="white">Day 24:</text><text x="105" y="780" fill="red">Missing, timeout or OOM!</text><text x="705" y="780" fill="red">Missing, timeout or OOM!</text><text x="5" y="810" fill="white">Day 25:</text><text x="105" y="810" fill="red">Missing, timeout or OOM!</text><text x="705" y="810" fill="red">Missing, timeout or OOM!</text></svg>
