<svg height="830" width="1300" xmlns="http://www.w3.org/2000/svg"><rect width="100%" height="100%" fill="%230D1117" /><text x="10" y="30" fill="white">Year 2019</text><text x="305" y="30" fill="white">Part 1</text><text x="905" y="30" fill="white">Part 2</text><text x="105" y="60" fill="white">Average</text><text x="305" y="60" fill="white">Best</text><text x="505" y="60" fill="white">Worst</text><text x="705" y="60" fill="white">Average</text><text x="905" y="60" fill="white">Best</text><text x="1105" y="60" fill="white">Worst</text><text x="5" y="90" fill="white">Day 1:</text><text x="105" y="90" fill="white">9.867µs</text><text x="305" y="90" fill="white">6.635µs</text><text x="505" y="90" fill="white">241.921µs</text><text x="705" y="90" fill="white">14.972µs</text><text x="905" y="90" fill="white">13.618µs</text><text x="1105" y="90" fill="white">40.506µs</text><text x="5" y="120" fill="white">Day 2:</text><text x="105" y="120" fill="white">10.145µs</text><text x="305" y="120" fill="white">6.844µs</text><text x="505" y="120" fill="white">246.67µs</text><text x="705" y="120" fill="white">630.2µs</text><text x="905" y="120" fill="white">600.265µs</text><text x="1105" y="120" fill="white">711.587µs</text><text x="5" y="150" fill="white">Day 3:</text><text x="105" y="150" fill="white">29.65484ms</text><text x="305" y="150" fill="white">27.360319ms</text><text x="505" y="150" fill="white">31.96339ms</text><text x="705" y="150" fill="white">1.155µs</text><text x="905" y="150" fill="white">907ns</text><text x="1105" y="150" fill="white">1.886µs</text><text x="5" y="180" fill="white">Day 4:</text><text x="105" y="180" fill="white">1.931583ms</text><text x="305" y="180" fill="white">1.899894ms</text><text x="505" y="180" fill="white">2.094745ms</text><text x="705" y="180" fill="white">1.272µs</text><text x="905" y="180" fill="white">908ns</text><text x="1105" y="180" fill="white">1.956µs</text><text x="5" y="210" fill="white">Day 5:</text><text x="105" y="210" fill="red">Missing, timeout or OOM!</text><text x="705" y="210" fill="red">Missing, timeout or OOM!</text><text x="5" y="240" fill="white">Day 6:</text><text x="105" y="240" fill="red">Missing, timeout or OOM!</text><text x="705" y="240" fill="red">Missing, timeout or OOM!</text><text x="5" y="270" fill="white">Day 7:</text><text x="105" y="270" fill="red">Missing, timeout or OOM!</text><text x="705" y="270" fill="red">Missing, timeout or OOM!</text><text x="5" y="300" fill="white">Day 8:</text><text x="105" y="300" fill="red">Missing, timeout or OOM!</text><text x="705" y="300" fill="red">Missing, timeout or OOM!</text><text x="5" y="330" fill="white">Day 9:</text><text x="105" y="330" fill="red">Missing, timeout or OOM!</text><text x="705" y="330" fill="red">Missing, timeout or OOM!</text><text x="5" y="360" fill="white">Day 10:</text><text x="105" y="360" fill="red">Missing, timeout or OOM!</text><text x="705" y="360" fill="red">Missing, timeout or OOM!</text><text x="5" y="390" fill="white">Day 11:</text><text x="105" y="390" fill="red">Missing, timeout or OOM!</text><text x="705" y="390" fill="red">Missing, timeout or OOM!</text><text x="5" y="420" fill="white">Day 12:</text><text x="105" y="420" fill="red">Missing, timeout or OOM!</text><text x="705" y="420" fill="red">Missing, timeout or OOM!</text><text x="5" y="450" fill="white">Day 13:</text><text x="105" y="450" fill="red">Missing, timeout or OOM!</text><text x="705" y="450" fill="red">Missing, timeout or OOM!</text><text x="5" y="480" fill="white">Day 14:</text><text x="105" y="480" fill="red">Missing, timeout or OOM!</text><text x="705" y="480" fill="red">Missing, timeout or OOM!</text><text x="5" y="510" fill="white">Day 15:</text><text x="105" y="510" fill="red">Missing, timeout or OOM!</text><text x="705" y="510" fill="red">Missing, timeout or OOM!</text><text x="5" y="540" fill="white">Day 16:</text><text x="105" y="540" fill="red">Missing, timeout or OOM!</text><text x="705" y="540" fill="red">Missing, timeout or OOM!</text><text x="5" y="570" fill="white">Day 17:</text><text x="105" y="570" fill="red">Missing, timeout or OOM!</text><text x="705" y="570" fill="red">Missing, timeout or OOM!</text><text x="5" y="600" fill="white">Day 18:</text><text x="105" y="600" fill="red">Missing, timeout or OOM!</text><text x="705" y="600" fill="red">Missing, timeout or OOM!</text><text x="5" y="630" fill="white">Day 19:</text><text x="105" y="630" fill="red">Missing, timeout or OOM!</text><text x="705" y="630" fill="red">Missing, timeout or OOM!</text><text x="5" y="660" fill="white">Day 20:</text><text x="105" y="660" fill="red">Missing, timeout or OOM!</text><text x="705" y="660" fill="red">Missing, timeout or OOM!</text><text x="5" y="690" fill="white">Day 21:</text><text x="105" y="690" fill="red">Missing, timeout or OOM!</text><text x="705" y="690" fill="red">Missing, timeout or OOM!</text><text x="5" y="720" fill="white">Day 22:</text><text x="105" y="720" fill="red">Missing, timeout or OOM!</text><text x="705" y="720" fill="red">Missing, timeout or OOM!</text><text x="5" y="750" fill="white">Day 23:</text><text x="105" y="750" fill="red">Missing, timeout or OOM!</text><text x="705" y="750" fill="red">Missing, timeout or OOM!</text><text x="5" y="780" fill="white">Day 24:</text><text x="105" y="780" fill="red">Missing, timeout or OOM!</text><text x="705" y="780" fill="red">Missing, timeout or OOM!</text><text x="5" y="810" fill="white">Day 25:</text><text x="105" y="810" fill="red">Missing, timeout or OOM!</text><text x="705" y="810" fill="red">Missing, timeout or OOM!</text></svg>
