<svg height="830" width="1300" xmlns="http://www.w3.org/2000/svg"><rect width="100%" height="100%" fill="%230D1117" /><text x="10" y="30" fill="white">Year 2020</text><text x="305" y="30" fill="white">Part 1</text><text x="905" y="30" fill="white">Part 2</text><text x="105" y="60" fill="white">Average</text><text x="305" y="60" fill="white">Best</text><text x="505" y="60" fill="white">Worst</text><text x="705" y="60" fill="white">Average</text><text x="905" y="60" fill="white">Best</text><text x="1105" y="60" fill="white">Worst</text><text x="5" y="90" fill="white">Day 1:</text><text x="105" y="90" fill="white">16.396µs</text><text x="305" y="90" fill="white">640.704µs</text><text x="505" y="90" fill="white">8.939µs</text><text x="705" y="90" fill="white">1.130168ms</text><text x="905" y="90" fill="white">1.296701ms</text><text x="1105" y="90" fill="white">1.098568ms</text><text x="5" y="120" fill="white">Day 2:</text><text x="105" y="120" fill="white">232.705µs</text><text x="305" y="120" fill="white">265.598µs</text><text x="505" y="120" fill="white">223.485µs</text><text x="705" y="120" fill="white">140.762µs</text><text x="905" y="120" fill="white">193.734µs</text><text x="1105" y="120" fill="white">135.138µs</text><text x="5" y="150" fill="white">Day 3:</text><text x="105" y="150" fill="white">45.015µs</text><text x="305" y="150" fill="white">91.978µs</text><text x="505" y="150" fill="white">39.948µs</text><text x="705" y="150" fill="white">45.789µs</text><text x="905" y="150" fill="white">88.416µs</text><text x="1105" y="150" fill="white">42.811µs</text><text x="5" y="180" fill="white">Day 4:</text><text x="105" y="180" fill="white">118.379µs</text><text x="305" y="180" fill="white">223.765µs</text><text x="505" y="180" fill="white">108.669µs</text><text x="705" y="180" fill="white">150.524µs</text><text x="905" y="180" fill="white">185.213µs</text><text x="1105" y="180" fill="white">143.309µs</text><text x="5" y="210" fill="white">Day 5:</text><text x="105" y="210" fill="white">71.217µs</text><text x="305" y="210" fill="white">119.006µs</text><text x="505" y="210" fill="white">63.204µs</text><text x="705" y="210" fill="white">90.126µs</text><text x="905" y="210" fill="white">138.91µs</text><text x="1105" y="210" fill="white">85.832µs</text><text x="5" y="240" fill="white">Day 6:</text><text x="105" y="240" fill="white">355.486µs</text><text x="305" y="240" fill="white">454.722µs</text><text x="505" y="240" fill="white">339.348µs</text><text x="705" y="240" fill="white">458.206µs</text><text x="905" y="240" fill="white">513.317µs</text><text x="1105" y="240" fill="white">440.964µs</text><text x="5" y="270" fill="white">Day 7:</text><text x="105" y="270" fill="white">28.640406ms</text><text x="305" y="270" fill="white">30.55396ms</text><text x="505" y="270" fill="white">792.743µs</text><text x="705" y="270" fill="white">523.352µs</text><text x="905" y="270" fill="white">706.073µs</text><text x="1105" y="270" fill="white">499.279µs</text><text x="5" y="300" fill="white">Day 8:</text><text x="105" y="300" fill="white">41.94µs</text><text x="305" y="300" fill="white">70.956µs</text><text x="505" y="300" fill="white">37.085µs</text><text x="705" y="300" fill="white">416.258µs</text><text x="905" y="300" fill="white">508.778µs</text><text x="1105" y="300" fill="white">402.064µs</text><text x="5" y="330" fill="white">Day 9:</text><text x="105" y="330" fill="white">23.384µs</text><text x="305" y="330" fill="white">39.529µs</text><text x="505" y="330" fill="white">22.488µs</text><text x="705" y="330" fill="white">225.008µs</text><text x="905" y="330" fill="white">1.643103ms</text><text x="1105" y="330" fill="white">144.916µs</text><text x="5" y="360" fill="white">Day 10:</text><text x="105" y="360" fill="white">3.345µs</text><text x="305" y="360" fill="white">35.827µs</text><text x="505" y="360" fill="white">1.397µs</text><text x="705" y="360" fill="white">1.206µs</text><text x="905" y="360" fill="white">1.467µs</text><text x="1105" y="360" fill="white">838ns</text><text x="5" y="390" fill="white">Day 11:</text><text x="105" y="390" fill="red">Missing, timeout or OOM!</text><text x="705" y="390" fill="red">Missing, timeout or OOM!</text><text x="5" y="420" fill="white">Day 12:</text><text x="105" y="420" fill="red">Missing, timeout or OOM!</text><text x="705" y="420" fill="red">Missing, timeout or OOM!</text><text x="5" y="450" fill="white">Day 13:</text><text x="105" y="450" fill="red">Missing, timeout or OOM!</text><text x="705" y="450" fill="red">Missing, timeout or OOM!</text><text x="5" y="480" fill="white">Day 14:</text><text x="105" y="480" fill="red">Missing, timeout or OOM!</text><text x="705" y="480" fill="red">Missing, timeout or OOM!</text><text x="5" y="510" fill="white">Day 15:</text><text x="105" y="510" fill="red">Missing, timeout or OOM!</text><text x="705" y="510" fill="red">Missing, timeout or OOM!</text><text x="5" y="540" fill="white">Day 16:</text><text x="105" y="540" fill="red">Missing, timeout or OOM!</text><text x="705" y="540" fill="red">Missing, timeout or OOM!</text><text x="5" y="570" fill="white">Day 17:</text><text x="105" y="570" fill="red">Missing, timeout or OOM!</text><text x="705" y="570" fill="red">Missing, timeout or OOM!</text><text x="5" y="600" fill="white">Day 18:</text><text x="105" y="600" fill="red">Missing, timeout or OOM!</text><text x="705" y="600" fill="red">Missing, timeout or OOM!</text><text x="5" y="630" fill="white">Day 19:</text><text x="105" y="630" fill="red">Missing, timeout or OOM!</text><text x="705" y="630" fill="red">Missing, timeout or OOM!</text><text x="5" y="660" fill="white">Day 20:</text><text x="105" y="660" fill="red">Missing, timeout or OOM!</text><text x="705" y="660" fill="red">Missing, timeout or OOM!</text><text x="5" y="690" fill="white">Day 21:</text><text x="105" y="690" fill="red">Missing, timeout or OOM!</text><text x="705" y="690" fill="red">Missing, timeout or OOM!</text><text x="5" y="720" fill="white">Day 22:</text><text x="105" y="720" fill="red">Missing, timeout or OOM!</text><text x="705" y="720" fill="red">Missing, timeout or OOM!</text><text x="5" y="750" fill="white">Day 23:</text><text x="105" y="750" fill="red">Missing, timeout or OOM!</text><text x="705" y="750" fill="red">Missing, timeout or OOM!</text><text x="5" y="780" fill="white">Day 24:</text><text x="105" y="780" fill="red">Missing, timeout or OOM!</text><text x="705" y="780" fill="red">Missing, timeout or OOM!</text><text x="5" y="810" fill="white">Day 25:</text><text x="105" y="810" fill="red">Missing, timeout or OOM!</text><text x="705" y="810" fill="red">Missing, timeout or OOM!</text></svg>
