<svg height="830" width="1300" xmlns="http://www.w3.org/2000/svg"><rect width="100%" height="100%" fill="%230D1117" /><text x="10" y="30" fill="white">Year 2020</text><text x="305" y="30" fill="white">Part 1</text><text x="905" y="30" fill="white">Part 2</text><text x="105" y="60" fill="white">Average</text><text x="305" y="60" fill="white">Best</text><text x="505" y="60" fill="white">Worst</text><text x="705" y="60" fill="white">Average</text><text x="905" y="60" fill="white">Best</text><text x="1105" y="60" fill="white">Worst</text><text x="5" y="90" fill="white">Day 1:</text><text x="105" y="90" fill="white">10.474µs</text><text x="305" y="90" fill="white">8.871µs</text><text x="505" y="90" fill="white">39.952µs</text><text x="705" y="90" fill="white">1.138674ms</text><text x="905" y="90" fill="white">1.109569ms</text><text x="1105" y="90" fill="white">1.419894ms</text><text x="5" y="120" fill="white">Day 2:</text><text x="105" y="120" fill="white">235.893µs</text><text x="305" y="120" fill="white">224.764µs</text><text x="505" y="120" fill="white">305.715µs</text><text x="705" y="120" fill="white">143.806µs</text><text x="905" y="120" fill="white">134.942µs</text><text x="1105" y="120" fill="white">216.313µs</text><text x="5" y="150" fill="white">Day 3:</text><text x="105" y="150" fill="white">43.798µs</text><text x="305" y="150" fill="white">39.183µs</text><text x="505" y="150" fill="white">106.794µs</text><text x="705" y="150" fill="white">47.479µs</text><text x="905" y="150" fill="white">42.396µs</text><text x="1105" y="150" fill="white">87.936µs</text><text x="5" y="180" fill="white">Day 4:</text><text x="105" y="180" fill="white">116.333µs</text><text x="305" y="180" fill="white">110.845µs</text><text x="505" y="180" fill="white">167.839µs</text><text x="705" y="180" fill="white">156.39µs</text><text x="905" y="180" fill="white">142.555µs</text><text x="1105" y="180" fill="white">227.558µs</text><text x="5" y="210" fill="white">Day 5:</text><text x="105" y="210" fill="white">68.449µs</text><text x="305" y="210" fill="white">63.699µs</text><text x="505" y="210" fill="white">108.89µs</text><text x="705" y="210" fill="white">90.846µs</text><text x="905" y="210" fill="white">83.884µs</text><text x="1105" y="210" fill="white">143.463µs</text><text x="5" y="240" fill="white">Day 6:</text><text x="105" y="240" fill="white">352.241µs</text><text x="305" y="240" fill="white">338.123µs</text><text x="505" y="240" fill="white">470.132µs</text><text x="705" y="240" fill="white">457.208µs</text><text x="905" y="240" fill="white">441.355µs</text><text x="1105" y="240" fill="white">628.122µs</text><text x="5" y="270" fill="white">Day 7:</text><text x="105" y="270" fill="white">28.649812ms</text><text x="305" y="270" fill="white">794.704µs</text><text x="505" y="270" fill="white">30.340633ms</text><text x="705" y="270" fill="white">521.676µs</text><text x="905" y="270" fill="white">495.625µs</text><text x="1105" y="270" fill="white">659.763µs</text><text x="5" y="300" fill="white">Day 8:</text><text x="105" y="300" fill="white">41.522µs</text><text x="305" y="300" fill="white">37.647µs</text><text x="505" y="300" fill="white">88.773µs</text><text x="705" y="300" fill="white">401.729µs</text><text x="905" y="300" fill="white">385.129µs</text><text x="1105" y="300" fill="white">516.789µs</text><text x="5" y="330" fill="white">Day 9:</text><text x="105" y="330" fill="white">26.597µs</text><text x="305" y="330" fill="white">22.421µs</text><text x="505" y="330" fill="white">59.089µs</text><text x="705" y="330" fill="white">203.088µs</text><text x="905" y="330" fill="white">142.415µs</text><text x="1105" y="330" fill="white">329.392µs</text><text x="5" y="360" fill="white">Day 10:</text><text x="105" y="360" fill="white">3.46µs</text><text x="305" y="360" fill="white">1.816µs</text><text x="505" y="360" fill="white">36.739µs</text><text x="705" y="360" fill="white">1.257µs</text><text x="905" y="360" fill="white">908ns</text><text x="1105" y="360" fill="white">1.886µs</text><text x="5" y="390" fill="white">Day 11:</text><text x="105" y="390" fill="red">Missing, timeout or OOM!</text><text x="705" y="390" fill="red">Missing, timeout or OOM!</text><text x="5" y="420" fill="white">Day 12:</text><text x="105" y="420" fill="red">Missing, timeout or OOM!</text><text x="705" y="420" fill="red">Missing, timeout or OOM!</text><text x="5" y="450" fill="white">Day 13:</text><text x="105" y="450" fill="red">Missing, timeout or OOM!</text><text x="705" y="450" fill="red">Missing, timeout or OOM!</text><text x="5" y="480" fill="white">Day 14:</text><text x="105" y="480" fill="red">Missing, timeout or OOM!</text><text x="705" y="480" fill="red">Missing, timeout or OOM!</text><text x="5" y="510" fill="white">Day 15:</text><text x="105" y="510" fill="red">Missing, timeout or OOM!</text><text x="705" y="510" fill="red">Missing, timeout or OOM!</text><text x="5" y="540" fill="white">Day 16:</text><text x="105" y="540" fill="red">Missing, timeout or OOM!</text><text x="705" y="540" fill="red">Missing, timeout or OOM!</text><text x="5" y="570" fill="white">Day 17:</text><text x="105" y="570" fill="red">Missing, timeout or OOM!</text><text x="705" y="570" fill="red">Missing, timeout or OOM!</text><text x="5" y="600" fill="white">Day 18:</text><text x="105" y="600" fill="red">Missing, timeout or OOM!</text><text x="705" y="600" fill="red">Missing, timeout or OOM!</text><text x="5" y="630" fill="white">Day 19:</text><text x="105" y="630" fill="red">Missing, timeout or OOM!</text><text x="705" y="630" fill="red">Missing, timeout or OOM!</text><text x="5" y="660" fill="white">Day 20:</text><text x="105" y="660" fill="red">Missing, timeout or OOM!</text><text x="705" y="660" fill="red">Missing, timeout or OOM!</text><text x="5" y="690" fill="white">Day 21:</text><text x="105" y="690" fill="red">Missing, timeout or OOM!</text><text x="705" y="690" fill="red">Missing, timeout or OOM!</text><text x="5" y="720" fill="white">Day 22:</text><text x="105" y="720" fill="red">Missing, timeout or OOM!</text><text x="705" y="720" fill="red">Missing, timeout or OOM!</text><text x="5" y="750" fill="white">Day 23:</text><text x="105" y="750" fill="red">Missing, timeout or OOM!</text><text x="705" y="750" fill="red">Missing, timeout or OOM!</text><text x="5" y="780" fill="white">Day 24:</text><text x="105" y="780" fill="red">Missing, timeout or OOM!</text><text x="705" y="780" fill="red">Missing, timeout or OOM!</text><text x="5" y="810" fill="white">Day 25:</text><text x="105" y="810" fill="red">Missing, timeout or OOM!</text><text x="705" y="810" fill="red">Missing, timeout or OOM!</text></svg>
