<svg height="830" width="1300" xmlns="http://www.w3.org/2000/svg"><rect width="100%" height="100%" fill="%230D1117" /><text x="10" y="30" fill="white">Year 2020</text><text x="305" y="30" fill="white">Part 1</text><text x="905" y="30" fill="white">Part 2</text><text x="105" y="60" fill="white">Average</text><text x="305" y="60" fill="white">Best</text><text x="505" y="60" fill="white">Worst</text><text x="705" y="60" fill="white">Average</text><text x="905" y="60" fill="white">Best</text><text x="1105" y="60" fill="white">Worst</text><text x="5" y="90" fill="white">Day 1:</text><text x="105" y="90" fill="white">9.853µs</text><text x="305" y="90" fill="white">33.803µs</text><text x="505" y="90" fill="white">8.521µs</text><text x="705" y="90" fill="red">Missing, timeout or OOM!</text><text x="5" y="120" fill="white">Day 2:</text><text x="105" y="120" fill="white">233.975µs</text><text x="305" y="120" fill="white">396.068µs</text><text x="505" y="120" fill="white">223.91µs</text><text x="705" y="120" fill="white">139.098µs</text><text x="905" y="120" fill="white">226.145µs</text><text x="1105" y="120" fill="white">130.673µs</text><text x="5" y="150" fill="white">Day 3:</text><text x="105" y="150" fill="white">46.285µs</text><text x="305" y="150" fill="white">132.348µs</text><text x="505" y="150" fill="white">42.534µs</text><text x="705" y="150" fill="white">48.544µs</text><text x="905" y="150" fill="white">105.39µs</text><text x="1105" y="150" fill="white">45.257µs</text><text x="5" y="180" fill="white">Day 4:</text><text x="105" y="180" fill="white">115.085µs</text><text x="305" y="180" fill="white">230.335µs</text><text x="505" y="180" fill="white">106.926µs</text><text x="705" y="180" fill="white">150.758µs</text><text x="905" y="180" fill="white">244.653µs</text><text x="1105" y="180" fill="white">141.498µs</text><text x="5" y="210" fill="white">Day 5:</text><text x="105" y="210" fill="white">66.486µs</text><text x="305" y="210" fill="white">297.801µs</text><text x="505" y="210" fill="white">64.114µs</text><text x="705" y="210" fill="white">89.393µs</text><text x="905" y="210" fill="white">159.028µs</text><text x="1105" y="210" fill="white">85.695µs</text><text x="5" y="240" fill="white">Day 6:</text><text x="105" y="240" fill="white">337.341µs</text><text x="305" y="240" fill="white">385.941µs</text><text x="505" y="240" fill="white">325.319µs</text><text x="705" y="240" fill="white">449.782µs</text><text x="905" y="240" fill="white">600.213µs</text><text x="1105" y="240" fill="white">430.709µs</text><text x="5" y="270" fill="white">Day 7:</text><text x="105" y="270" fill="red">Missing, timeout or OOM!</text><text x="705" y="270" fill="white">509.687µs</text><text x="905" y="270" fill="white">688.562µs</text><text x="1105" y="270" fill="white">491.54µs</text><text x="5" y="300" fill="white">Day 8:</text><text x="105" y="300" fill="white">40.406µs</text><text x="305" y="300" fill="white">101.13µs</text><text x="505" y="300" fill="white">37.086µs</text><text x="705" y="300" fill="white">391.615µs</text><text x="905" y="300" fill="white">489.306µs</text><text x="1105" y="300" fill="white">379.027µs</text><text x="5" y="330" fill="white">Day 9:</text><text x="105" y="330" fill="white">23.123µs</text><text x="305" y="330" fill="white">52.102µs</text><text x="505" y="330" fill="white">20.952µs</text><text x="705" y="330" fill="red">Missing, timeout or OOM!</text><text x="5" y="360" fill="white">Day 10:</text><text x="105" y="360" fill="white">2.893µs</text><text x="305" y="360" fill="white">35.27µs</text><text x="505" y="360" fill="white">978ns</text><text x="705" y="360" fill="white">1.229µs</text><text x="905" y="360" fill="white">18.438µs</text><text x="1105" y="360" fill="white">838ns</text><text x="5" y="390" fill="white">Day 11:</text><text x="105" y="390" fill="red">Missing, timeout or OOM!</text><text x="705" y="390" fill="red">Missing, timeout or OOM!</text><text x="5" y="420" fill="white">Day 12:</text><text x="105" y="420" fill="red">Missing, timeout or OOM!</text><text x="705" y="420" fill="red">Missing, timeout or OOM!</text><text x="5" y="450" fill="white">Day 13:</text><text x="105" y="450" fill="red">Missing, timeout or OOM!</text><text x="705" y="450" fill="red">Missing, timeout or OOM!</text><text x="5" y="480" fill="white">Day 14:</text><text x="105" y="480" fill="red">Missing, timeout or OOM!</text><text x="705" y="480" fill="red">Missing, timeout or OOM!</text><text x="5" y="510" fill="white">Day 15:</text><text x="105" y="510" fill="red">Missing, timeout or OOM!</text><text x="705" y="510" fill="red">Missing, timeout or OOM!</text><text x="5" y="540" fill="white">Day 16:</text><text x="105" y="540" fill="red">Missing, timeout or OOM!</text><text x="705" y="540" fill="red">Missing, timeout or OOM!</text><text x="5" y="570" fill="white">Day 17:</text><text x="105" y="570" fill="red">Missing, timeout or OOM!</text><text x="705" y="570" fill="red">Missing, timeout or OOM!</text><text x="5" y="600" fill="white">Day 18:</text><text x="105" y="600" fill="red">Missing, timeout or OOM!</text><text x="705" y="600" fill="red">Missing, timeout or OOM!</text><text x="5" y="630" fill="white">Day 19:</text><text x="105" y="630" fill="red">Missing, timeout or OOM!</text><text x="705" y="630" fill="red">Missing, timeout or OOM!</text><text x="5" y="660" fill="white">Day 20:</text><text x="105" y="660" fill="red">Missing, timeout or OOM!</text><text x="705" y="660" fill="red">Missing, timeout or OOM!</text><text x="5" y="690" fill="white">Day 21:</text><text x="105" y="690" fill="red">Missing, timeout or OOM!</text><text x="705" y="690" fill="red">Missing, timeout or OOM!</text><text x="5" y="720" fill="white">Day 22:</text><text x="105" y="720" fill="red">Missing, timeout or OOM!</text><text x="705" y="720" fill="red">Missing, timeout or OOM!</text><text x="5" y="750" fill="white">Day 23:</text><text x="105" y="750" fill="red">Missing, timeout or OOM!</text><text x="705" y="750" fill="red">Missing, timeout or OOM!</text><text x="5" y="780" fill="white">Day 24:</text><text x="105" y="780" fill="red">Missing, timeout or OOM!</text><text x="705" y="780" fill="red">Missing, timeout or OOM!</text><text x="5" y="810" fill="white">Day 25:</text><text x="105" y="810" fill="red">Missing, timeout or OOM!</text><text x="705" y="810" fill="red">Missing, timeout or OOM!</text></svg>
