<svg height="830" width="1300" xmlns="http://www.w3.org/2000/svg"><rect width="100%" height="100%" fill="%230D1117" /><text x="10" y="30" fill="white">Year 2020</text><text x="305" y="30" fill="white">Part 1</text><text x="905" y="30" fill="white">Part 2</text><text x="105" y="60" fill="white">Average</text><text x="305" y="60" fill="white">Best</text><text x="505" y="60" fill="white">Worst</text><text x="705" y="60" fill="white">Average</text><text x="905" y="60" fill="white">Best</text><text x="1105" y="60" fill="white">Worst</text><text x="5" y="90" fill="white">Day 1:</text><text x="105" y="90" fill="white">13.331µs</text><text x="305" y="90" fill="white">9.149µs</text><text x="505" y="90" fill="white">257.147µs</text><text x="705" y="90" fill="white">1.139024ms</text><text x="905" y="90" fill="white">1.098563ms</text><text x="1105" y="90" fill="white">1.417307ms</text><text x="5" y="120" fill="white">Day 2:</text><text x="105" y="120" fill="white">239.556µs</text><text x="305" y="120" fill="white">222.227µs</text><text x="505" y="120" fill="white">565.345µs</text><text x="705" y="120" fill="white">142.563µs</text><text x="905" y="120" fill="white">135.417µs</text><text x="1105" y="120" fill="white">175.645µs</text><text x="5" y="150" fill="white">Day 3:</text><text x="105" y="150" fill="white">46.352µs</text><text x="305" y="150" fill="white">39.39µs</text><text x="505" y="150" fill="white">428.88µs</text><text x="705" y="150" fill="white">45.236µs</text><text x="905" y="150" fill="white">41.833µs</text><text x="1105" y="150" fill="white">110.206µs</text><text x="5" y="180" fill="white">Day 4:</text><text x="105" y="180" fill="white">120.989µs</text><text x="305" y="180" fill="white">108.669µs</text><text x="505" y="180" fill="white">474.344µs</text><text x="705" y="180" fill="white">153.344µs</text><text x="905" y="180" fill="white">144.566µs</text><text x="1105" y="180" fill="white">223.763µs</text><text x="5" y="210" fill="white">Day 5:</text><text x="105" y="210" fill="white">65.686µs</text><text x="305" y="210" fill="white">63.484µs</text><text x="505" y="210" fill="white">79.127µs</text><text x="705" y="210" fill="white">88.352µs</text><text x="905" y="210" fill="white">84.645µs</text><text x="1105" y="210" fill="white">132.205µs</text><text x="5" y="240" fill="white">Day 6:</text><text x="105" y="240" fill="white">353.995µs</text><text x="305" y="240" fill="white">340.673µs</text><text x="505" y="240" fill="white">405.973µs</text><text x="705" y="240" fill="white">469.217µs</text><text x="905" y="240" fill="white">448.435µs</text><text x="1105" y="240" fill="white">686.724µs</text><text x="5" y="270" fill="white">Day 7:</text><text x="105" y="270" fill="white">28.984959ms</text><text x="305" y="270" fill="white">799.374µs</text><text x="505" y="270" fill="white">30.952465ms</text><text x="705" y="270" fill="white">533.035µs</text><text x="905" y="270" fill="white">502.49µs</text><text x="1105" y="270" fill="white">676.738µs</text><text x="5" y="300" fill="white">Day 8:</text><text x="105" y="300" fill="white">39.822µs</text><text x="305" y="300" fill="white">37.573µs</text><text x="505" y="300" fill="white">82.41µs</text><text x="705" y="300" fill="white">416.19µs</text><text x="905" y="300" fill="white">399.268µs</text><text x="1105" y="300" fill="white">549.98µs</text><text x="5" y="330" fill="white">Day 9:</text><text x="105" y="330" fill="white">24.564µs</text><text x="305" y="330" fill="white">22.488µs</text><text x="505" y="330" fill="white">38.761µs</text><text x="705" y="330" fill="white">211.381µs</text><text x="905" y="330" fill="white">154.483µs</text><text x="1105" y="330" fill="white">293.183µs</text><text x="5" y="360" fill="white">Day 10:</text><text x="105" y="360" fill="white">3.1µs</text><text x="305" y="360" fill="white">977ns</text><text x="505" y="360" fill="white">61.738µs</text><text x="705" y="360" fill="white">1.206µs</text><text x="905" y="360" fill="white">907ns</text><text x="1105" y="360" fill="white">1.886µs</text><text x="5" y="390" fill="white">Day 11:</text><text x="105" y="390" fill="red">Missing, timeout or OOM!</text><text x="705" y="390" fill="red">Missing, timeout or OOM!</text><text x="5" y="420" fill="white">Day 12:</text><text x="105" y="420" fill="red">Missing, timeout or OOM!</text><text x="705" y="420" fill="red">Missing, timeout or OOM!</text><text x="5" y="450" fill="white">Day 13:</text><text x="105" y="450" fill="red">Missing, timeout or OOM!</text><text x="705" y="450" fill="red">Missing, timeout or OOM!</text><text x="5" y="480" fill="white">Day 14:</text><text x="105" y="480" fill="red">Missing, timeout or OOM!</text><text x="705" y="480" fill="red">Missing, timeout or OOM!</text><text x="5" y="510" fill="white">Day 15:</text><text x="105" y="510" fill="red">Missing, timeout or OOM!</text><text x="705" y="510" fill="red">Missing, timeout or OOM!</text><text x="5" y="540" fill="white">Day 16:</text><text x="105" y="540" fill="red">Missing, timeout or OOM!</text><text x="705" y="540" fill="red">Missing, timeout or OOM!</text><text x="5" y="570" fill="white">Day 17:</text><text x="105" y="570" fill="red">Missing, timeout or OOM!</text><text x="705" y="570" fill="red">Missing, timeout or OOM!</text><text x="5" y="600" fill="white">Day 18:</text><text x="105" y="600" fill="red">Missing, timeout or OOM!</text><text x="705" y="600" fill="red">Missing, timeout or OOM!</text><text x="5" y="630" fill="white">Day 19:</text><text x="105" y="630" fill="red">Missing, timeout or OOM!</text><text x="705" y="630" fill="red">Missing, timeout or OOM!</text><text x="5" y="660" fill="white">Day 20:</text><text x="105" y="660" fill="red">Missing, timeout or OOM!</text><text x="705" y="660" fill="red">Missing, timeout or OOM!</text><text x="5" y="690" fill="white">Day 21:</text><text x="105" y="690" fill="red">Missing, timeout or OOM!</text><text x="705" y="690" fill="red">Missing, timeout or OOM!</text><text x="5" y="720" fill="white">Day 22:</text><text x="105" y="720" fill="red">Missing, timeout or OOM!</text><text x="705" y="720" fill="red">Missing, timeout or OOM!</text><text x="5" y="750" fill="white">Day 23:</text><text x="105" y="750" fill="red">Missing, timeout or OOM!</text><text x="705" y="750" fill="red">Missing, timeout or OOM!</text><text x="5" y="780" fill="white">Day 24:</text><text x="105" y="780" fill="red">Missing, timeout or OOM!</text><text x="705" y="780" fill="red">Missing, timeout or OOM!</text><text x="5" y="810" fill="white">Day 25:</text><text x="105" y="810" fill="red">Missing, timeout or OOM!</text><text x="705" y="810" fill="red">Missing, timeout or OOM!</text></svg>
