<svg height="830" width="1300" xmlns="http://www.w3.org/2000/svg"><rect width="100%" height="100%" fill="%230D1117" /><text x="10" y="30" fill="white">Year 2020</text><text x="305" y="30" fill="white">Part 1</text><text x="905" y="30" fill="white">Part 2</text><text x="105" y="60" fill="white">Average</text><text x="305" y="60" fill="white">Best</text><text x="505" y="60" fill="white">Worst</text><text x="705" y="60" fill="white">Average</text><text x="905" y="60" fill="white">Best</text><text x="1105" y="60" fill="white">Worst</text><text x="5" y="90" fill="white">Day 1:</text><text x="105" y="90" fill="white">10.046µs</text><text x="305" y="90" fill="white">48.051µs</text><text x="505" y="90" fill="white">8.241µs</text><text x="705" y="90" fill="red">Missing, timeout or OOM!</text><text x="5" y="120" fill="white">Day 2:</text><text x="105" y="120" fill="white">231.897µs</text><text x="305" y="120" fill="white">319.382µs</text><text x="505" y="120" fill="white">220.907µs</text><text x="705" y="120" fill="white">139.068µs</text><text x="905" y="120" fill="white">219.02µs</text><text x="1105" y="120" fill="white">130.113µs</text><text x="5" y="150" fill="white">Day 3:</text><text x="105" y="150" fill="white">47.616µs</text><text x="305" y="150" fill="white">109.581µs</text><text x="505" y="150" fill="white">42.812µs</text><text x="705" y="150" fill="white">48.055µs</text><text x="905" y="150" fill="white">101.199µs</text><text x="1105" y="150" fill="white">45.187µs</text><text x="5" y="180" fill="white">Day 4:</text><text x="105" y="180" fill="white">115.475µs</text><text x="305" y="180" fill="white">216.577µs</text><text x="505" y="180" fill="white">108.393µs</text><text x="705" y="180" fill="white">149.07µs</text><text x="905" y="180" fill="white">254.71µs</text><text x="1105" y="180" fill="white">139.751µs</text><text x="5" y="210" fill="white">Day 5:</text><text x="105" y="210" fill="white">66.063µs</text><text x="305" y="210" fill="white">102.806µs</text><text x="505" y="210" fill="white">63.415µs</text><text x="705" y="210" fill="white">88.388µs</text><text x="905" y="210" fill="white">127.39µs</text><text x="1105" y="210" fill="white">85.485µs</text><text x="5" y="240" fill="white">Day 6:</text><text x="105" y="240" fill="white">339.611µs</text><text x="305" y="240" fill="white">453.826µs</text><text x="505" y="240" fill="white">324.9µs</text><text x="705" y="240" fill="white">447.165µs</text><text x="905" y="240" fill="white">640.231µs</text><text x="1105" y="240" fill="white">429.451µs</text><text x="5" y="270" fill="white">Day 7:</text><text x="105" y="270" fill="red">Missing, timeout or OOM!</text><text x="705" y="270" fill="white">513.523µs</text><text x="905" y="270" fill="white">1.00976ms</text><text x="1105" y="270" fill="white">489.166µs</text><text x="5" y="300" fill="white">Day 8:</text><text x="105" y="300" fill="white">39.158µs</text><text x="305" y="300" fill="white">84.019µs</text><text x="505" y="300" fill="white">37.155µs</text><text x="705" y="300" fill="white">424.001µs</text><text x="905" y="300" fill="white">471.496µs</text><text x="1105" y="300" fill="white">409.128µs</text><text x="5" y="330" fill="white">Day 9:</text><text x="105" y="330" fill="white">23.036µs</text><text x="305" y="330" fill="white">74.939µs</text><text x="505" y="330" fill="white">21.371µs</text><text x="705" y="330" fill="red">Missing, timeout or OOM!</text><text x="5" y="360" fill="white">Day 10:</text><text x="105" y="360" fill="white">2.763µs</text><text x="305" y="360" fill="white">28.076µs</text><text x="505" y="360" fill="white">908ns</text><text x="705" y="360" fill="white">1.204µs</text><text x="905" y="360" fill="white">5.238µs</text><text x="1105" y="360" fill="white">907ns</text><text x="5" y="390" fill="white">Day 11:</text><text x="105" y="390" fill="red">Missing, timeout or OOM!</text><text x="705" y="390" fill="red">Missing, timeout or OOM!</text><text x="5" y="420" fill="white">Day 12:</text><text x="105" y="420" fill="red">Missing, timeout or OOM!</text><text x="705" y="420" fill="red">Missing, timeout or OOM!</text><text x="5" y="450" fill="white">Day 13:</text><text x="105" y="450" fill="red">Missing, timeout or OOM!</text><text x="705" y="450" fill="red">Missing, timeout or OOM!</text><text x="5" y="480" fill="white">Day 14:</text><text x="105" y="480" fill="red">Missing, timeout or OOM!</text><text x="705" y="480" fill="red">Missing, timeout or OOM!</text><text x="5" y="510" fill="white">Day 15:</text><text x="105" y="510" fill="red">Missing, timeout or OOM!</text><text x="705" y="510" fill="red">Missing, timeout or OOM!</text><text x="5" y="540" fill="white">Day 16:</text><text x="105" y="540" fill="red">Missing, timeout or OOM!</text><text x="705" y="540" fill="red">Missing, timeout or OOM!</text><text x="5" y="570" fill="white">Day 17:</text><text x="105" y="570" fill="red">Missing, timeout or OOM!</text><text x="705" y="570" fill="red">Missing, timeout or OOM!</text><text x="5" y="600" fill="white">Day 18:</text><text x="105" y="600" fill="red">Missing, timeout or OOM!</text><text x="705" y="600" fill="red">Missing, timeout or OOM!</text><text x="5" y="630" fill="white">Day 19:</text><text x="105" y="630" fill="red">Missing, timeout or OOM!</text><text x="705" y="630" fill="red">Missing, timeout or OOM!</text><text x="5" y="660" fill="white">Day 20:</text><text x="105" y="660" fill="red">Missing, timeout or OOM!</text><text x="705" y="660" fill="red">Missing, timeout or OOM!</text><text x="5" y="690" fill="white">Day 21:</text><text x="105" y="690" fill="red">Missing, timeout or OOM!</text><text x="705" y="690" fill="red">Missing, timeout or OOM!</text><text x="5" y="720" fill="white">Day 22:</text><text x="105" y="720" fill="red">Missing, timeout or OOM!</text><text x="705" y="720" fill="red">Missing, timeout or OOM!</text><text x="5" y="750" fill="white">Day 23:</text><text x="105" y="750" fill="red">Missing, timeout or OOM!</text><text x="705" y="750" fill="red">Missing, timeout or OOM!</text><text x="5" y="780" fill="white">Day 24:</text><text x="105" y="780" fill="red">Missing, timeout or OOM!</text><text x="705" y="780" fill="red">Missing, timeout or OOM!</text><text x="5" y="810" fill="white">Day 25:</text><text x="105" y="810" fill="red">Missing, timeout or OOM!</text><text x="705" y="810" fill="red">Missing, timeout or OOM!</text></svg>
