<svg height="830" width="1300" xmlns="http://www.w3.org/2000/svg"><rect width="100%" height="100%" fill="%230D1117" /><text x="10" y="30" fill="white">Year 2020</text><text x="305" y="30" fill="white">Part 1</text><text x="905" y="30" fill="white">Part 2</text><text x="105" y="60" fill="white">Average</text><text x="305" y="60" fill="white">Best</text><text x="505" y="60" fill="white">Worst</text><text x="705" y="60" fill="white">Average</text><text x="905" y="60" fill="white">Best</text><text x="1105" y="60" fill="white">Worst</text><text x="5" y="90" fill="white">Day 1:</text><text x="105" y="90" fill="white">16.527µs</text><text x="305" y="90" fill="white">8.66µs</text><text x="505" y="90" fill="white">688.832µs</text><text x="705" y="90" fill="white">1.124671ms</text><text x="905" y="90" fill="white">1.093276ms</text><text x="1105" y="90" fill="white">1.417333ms</text><text x="5" y="120" fill="white">Day 2:</text><text x="105" y="120" fill="white">234.015µs</text><text x="305" y="120" fill="white">224.955µs</text><text x="505" y="120" fill="white">298.496µs</text><text x="705" y="120" fill="white">145.277µs</text><text x="905" y="120" fill="white">138.074µs</text><text x="1105" y="120" fill="white">193.457µs</text><text x="5" y="150" fill="white">Day 3:</text><text x="105" y="150" fill="white">43.67µs</text><text x="305" y="150" fill="white">39.11µs</text><text x="505" y="150" fill="white">97.008µs</text><text x="705" y="150" fill="white">47.347µs</text><text x="905" y="150" fill="white">40.856µs</text><text x="1105" y="150" fill="white">102.176µs</text><text x="5" y="180" fill="white">Day 4:</text><text x="105" y="180" fill="white">114.181µs</text><text x="305" y="180" fill="white">107.344µs</text><text x="505" y="180" fill="white">163.635µs</text><text x="705" y="180" fill="white">151.362µs</text><text x="905" y="180" fill="white">143.312µs</text><text x="1105" y="180" fill="white">200.511µs</text><text x="5" y="210" fill="white">Day 5:</text><text x="105" y="210" fill="white">64.651µs</text><text x="305" y="210" fill="white">62.926µs</text><text x="505" y="210" fill="white">75.427µs</text><text x="705" y="210" fill="white">92.89µs</text><text x="905" y="210" fill="white">86.601µs</text><text x="1105" y="210" fill="white">139.68µs</text><text x="5" y="240" fill="white">Day 6:</text><text x="105" y="240" fill="white">354.86µs</text><text x="305" y="240" fill="white">341.657µs</text><text x="505" y="240" fill="white">492.232µs</text><text x="705" y="240" fill="white">453.453µs</text><text x="905" y="240" fill="white">432.729µs</text><text x="1105" y="240" fill="white">623.602µs</text><text x="5" y="270" fill="white">Day 7:</text><text x="105" y="270" fill="white">27.6071ms</text><text x="305" y="270" fill="white">808.747µs</text><text x="505" y="270" fill="white">30.203441ms</text><text x="705" y="270" fill="white">559.279µs</text><text x="905" y="270" fill="white">531.413µs</text><text x="1105" y="270" fill="white">824.811µs</text><text x="5" y="300" fill="white">Day 8:</text><text x="105" y="300" fill="white">51.111µs</text><text x="305" y="300" fill="white">48.05µs</text><text x="505" y="300" fill="white">91.072µs</text><text x="705" y="300" fill="white">432.239µs</text><text x="905" y="300" fill="white">408.494µs</text><text x="1105" y="300" fill="white">524.918µs</text><text x="5" y="330" fill="white">Day 9:</text><text x="105" y="330" fill="white">26.652µs</text><text x="305" y="330" fill="white">24.165µs</text><text x="505" y="330" fill="white">41.695µs</text><text x="705" y="330" fill="white">263.574µs</text><text x="905" y="330" fill="white">140.797µs</text><text x="1105" y="330" fill="white">2.295572ms</text><text x="5" y="360" fill="white">Day 10:</text><text x="105" y="360" fill="white">3.587µs</text><text x="305" y="360" fill="white">1.397µs</text><text x="505" y="360" fill="white">33.872µs</text><text x="705" y="360" fill="white">1.428µs</text><text x="905" y="360" fill="white">908ns</text><text x="1105" y="360" fill="white">12.502µs</text><text x="5" y="390" fill="white">Day 11:</text><text x="105" y="390" fill="red">Missing, timeout or OOM!</text><text x="705" y="390" fill="red">Missing, timeout or OOM!</text><text x="5" y="420" fill="white">Day 12:</text><text x="105" y="420" fill="red">Missing, timeout or OOM!</text><text x="705" y="420" fill="red">Missing, timeout or OOM!</text><text x="5" y="450" fill="white">Day 13:</text><text x="105" y="450" fill="red">Missing, timeout or OOM!</text><text x="705" y="450" fill="red">Missing, timeout or OOM!</text><text x="5" y="480" fill="white">Day 14:</text><text x="105" y="480" fill="red">Missing, timeout or OOM!</text><text x="705" y="480" fill="red">Missing, timeout or OOM!</text><text x="5" y="510" fill="white">Day 15:</text><text x="105" y="510" fill="red">Missing, timeout or OOM!</text><text x="705" y="510" fill="red">Missing, timeout or OOM!</text><text x="5" y="540" fill="white">Day 16:</text><text x="105" y="540" fill="red">Missing, timeout or OOM!</text><text x="705" y="540" fill="red">Missing, timeout or OOM!</text><text x="5" y="570" fill="white">Day 17:</text><text x="105" y="570" fill="red">Missing, timeout or OOM!</text><text x="705" y="570" fill="red">Missing, timeout or OOM!</text><text x="5" y="600" fill="white">Day 18:</text><text x="105" y="600" fill="red">Missing, timeout or OOM!</text><text x="705" y="600" fill="red">Missing, timeout or OOM!</text><text x="5" y="630" fill="white">Day 19:</text><text x="105" y="630" fill="red">Missing, timeout or OOM!</text><text x="705" y="630" fill="red">Missing, timeout or OOM!</text><text x="5" y="660" fill="white">Day 20:</text><text x="105" y="660" fill="red">Missing, timeout or OOM!</text><text x="705" y="660" fill="red">Missing, timeout or OOM!</text><text x="5" y="690" fill="white">Day 21:</text><text x="105" y="690" fill="red">Missing, timeout or OOM!</text><text x="705" y="690" fill="red">Missing, timeout or OOM!</text><text x="5" y="720" fill="white">Day 22:</text><text x="105" y="720" fill="red">Missing, timeout or OOM!</text><text x="705" y="720" fill="red">Missing, timeout or OOM!</text><text x="5" y="750" fill="white">Day 23:</text><text x="105" y="750" fill="red">Missing, timeout or OOM!</text><text x="705" y="750" fill="red">Missing, timeout or OOM!</text><text x="5" y="780" fill="white">Day 24:</text><text x="105" y="780" fill="red">Missing, timeout or OOM!</text><text x="705" y="780" fill="red">Missing, timeout or OOM!</text><text x="5" y="810" fill="white">Day 25:</text><text x="105" y="810" fill="red">Missing, timeout or OOM!</text><text x="705" y="810" fill="red">Missing, timeout or OOM!</text></svg>
