<svg height="830" width="1300" xmlns="http://www.w3.org/2000/svg"><rect width="100%" height="100%" fill="%230D1117" /><text x="10" y="30" fill="white">Year 2020</text><text x="305" y="30" fill="white">Part 1</text><text x="905" y="30" fill="white">Part 2</text><text x="105" y="60" fill="white">Average</text><text x="305" y="60" fill="white">Best</text><text x="505" y="60" fill="white">Worst</text><text x="705" y="60" fill="white">Average</text><text x="905" y="60" fill="white">Best</text><text x="1105" y="60" fill="white">Worst</text><text x="5" y="90" fill="white">Day 1:</text><text x="105" y="90" fill="white">9.852µs</text><text x="305" y="90" fill="white">9.01µs</text><text x="505" y="90" fill="white">34.852µs</text><text x="705" y="90" fill="white">1.143264ms</text><text x="905" y="90" fill="white">1.093827ms</text><text x="1105" y="90" fill="white">1.528047ms</text><text x="5" y="120" fill="white">Day 2:</text><text x="105" y="120" fill="white">237.442µs</text><text x="305" y="120" fill="white">226.154µs</text><text x="505" y="120" fill="white">302.145µs</text><text x="705" y="120" fill="white">141.427µs</text><text x="905" y="120" fill="white">133.891µs</text><text x="1105" y="120" fill="white">179.708µs</text><text x="5" y="150" fill="white">Day 3:</text><text x="105" y="150" fill="white">46.834µs</text><text x="305" y="150" fill="white">38.973µs</text><text x="505" y="150" fill="white">106.722µs</text><text x="705" y="150" fill="white">44.79µs</text><text x="905" y="150" fill="white">42.395µs</text><text x="1105" y="150" fill="white">82.416µs</text><text x="5" y="180" fill="white">Day 4:</text><text x="105" y="180" fill="white">131.975µs</text><text x="305" y="180" fill="white">108.328µs</text><text x="505" y="180" fill="white">231.882µs</text><text x="705" y="180" fill="white">151.792µs</text><text x="905" y="180" fill="white">142.831µs</text><text x="1105" y="180" fill="white">227.551µs</text><text x="5" y="210" fill="white">Day 5:</text><text x="105" y="210" fill="white">64.942µs</text><text x="305" y="210" fill="white">63.418µs</text><text x="505" y="210" fill="white">75.502µs</text><text x="705" y="210" fill="white">89.106µs</text><text x="905" y="210" fill="white">83.324µs</text><text x="1105" y="210" fill="white">116.29µs</text><text x="5" y="240" fill="white">Day 6:</text><text x="105" y="240" fill="white">354.947µs</text><text x="305" y="240" fill="white">339.163µs</text><text x="505" y="240" fill="white">473.473µs</text><text x="705" y="240" fill="white">473.258µs</text><text x="905" y="240" fill="white">433.313µs</text><text x="1105" y="240" fill="white">675.392µs</text><text x="5" y="270" fill="white">Day 7:</text><text x="105" y="270" fill="white">28.458255ms</text><text x="305" y="270" fill="white">970.762µs</text><text x="505" y="270" fill="white">30.875933ms</text><text x="705" y="270" fill="white">523.464µs</text><text x="905" y="270" fill="white">508.395µs</text><text x="1105" y="270" fill="white">621.123µs</text><text x="5" y="300" fill="white">Day 8:</text><text x="105" y="300" fill="white">38.866µs</text><text x="305" y="300" fill="white">37.576µs</text><text x="505" y="300" fill="white">55.945µs</text><text x="705" y="300" fill="white">403.992µs</text><text x="905" y="300" fill="white">385.818µs</text><text x="1105" y="300" fill="white">526.205µs</text><text x="5" y="330" fill="white">Day 9:</text><text x="105" y="330" fill="white">24.353µs</text><text x="305" y="330" fill="white">22.559µs</text><text x="505" y="330" fill="white">38.275µs</text><text x="705" y="330" fill="white">207.05µs</text><text x="905" y="330" fill="white">154.076µs</text><text x="1105" y="330" fill="white">363.608µs</text><text x="5" y="360" fill="white">Day 10:</text><text x="105" y="360" fill="white">3.327µs</text><text x="305" y="360" fill="white">908ns</text><text x="505" y="360" fill="white">35.201µs</text><text x="705" y="360" fill="white">1.216µs</text><text x="905" y="360" fill="white">908ns</text><text x="1105" y="360" fill="white">1.886µs</text><text x="5" y="390" fill="white">Day 11:</text><text x="105" y="390" fill="red">Missing, timeout or OOM!</text><text x="705" y="390" fill="red">Missing, timeout or OOM!</text><text x="5" y="420" fill="white">Day 12:</text><text x="105" y="420" fill="red">Missing, timeout or OOM!</text><text x="705" y="420" fill="red">Missing, timeout or OOM!</text><text x="5" y="450" fill="white">Day 13:</text><text x="105" y="450" fill="red">Missing, timeout or OOM!</text><text x="705" y="450" fill="red">Missing, timeout or OOM!</text><text x="5" y="480" fill="white">Day 14:</text><text x="105" y="480" fill="red">Missing, timeout or OOM!</text><text x="705" y="480" fill="red">Missing, timeout or OOM!</text><text x="5" y="510" fill="white">Day 15:</text><text x="105" y="510" fill="red">Missing, timeout or OOM!</text><text x="705" y="510" fill="red">Missing, timeout or OOM!</text><text x="5" y="540" fill="white">Day 16:</text><text x="105" y="540" fill="red">Missing, timeout or OOM!</text><text x="705" y="540" fill="red">Missing, timeout or OOM!</text><text x="5" y="570" fill="white">Day 17:</text><text x="105" y="570" fill="red">Missing, timeout or OOM!</text><text x="705" y="570" fill="red">Missing, timeout or OOM!</text><text x="5" y="600" fill="white">Day 18:</text><text x="105" y="600" fill="red">Missing, timeout or OOM!</text><text x="705" y="600" fill="red">Missing, timeout or OOM!</text><text x="5" y="630" fill="white">Day 19:</text><text x="105" y="630" fill="red">Missing, timeout or OOM!</text><text x="705" y="630" fill="red">Missing, timeout or OOM!</text><text x="5" y="660" fill="white">Day 20:</text><text x="105" y="660" fill="red">Missing, timeout or OOM!</text><text x="705" y="660" fill="red">Missing, timeout or OOM!</text><text x="5" y="690" fill="white">Day 21:</text><text x="105" y="690" fill="red">Missing, timeout or OOM!</text><text x="705" y="690" fill="red">Missing, timeout or OOM!</text><text x="5" y="720" fill="white">Day 22:</text><text x="105" y="720" fill="red">Missing, timeout or OOM!</text><text x="705" y="720" fill="red">Missing, timeout or OOM!</text><text x="5" y="750" fill="white">Day 23:</text><text x="105" y="750" fill="red">Missing, timeout or OOM!</text><text x="705" y="750" fill="red">Missing, timeout or OOM!</text><text x="5" y="780" fill="white">Day 24:</text><text x="105" y="780" fill="red">Missing, timeout or OOM!</text><text x="705" y="780" fill="red">Missing, timeout or OOM!</text><text x="5" y="810" fill="white">Day 25:</text><text x="105" y="810" fill="red">Missing, timeout or OOM!</text><text x="705" y="810" fill="red">Missing, timeout or OOM!</text></svg>
