<svg height="830" width="1300" xmlns="http://www.w3.org/2000/svg"><rect width="100%" height="100%" fill="%230D1117" /><text x="10" y="30" fill="white">Year 2020</text><text x="305" y="30" fill="white">Part 1</text><text x="905" y="30" fill="white">Part 2</text><text x="105" y="60" fill="white">Average</text><text x="305" y="60" fill="white">Best</text><text x="505" y="60" fill="white">Worst</text><text x="705" y="60" fill="white">Average</text><text x="905" y="60" fill="white">Best</text><text x="1105" y="60" fill="white">Worst</text><text x="5" y="90" fill="white">Day 1:</text><text x="105" y="90" fill="white">12.408µs</text><text x="305" y="90" fill="white">39.945µs</text><text x="505" y="90" fill="white">12.132µs</text><text x="705" y="90" fill="white">1.415055ms</text><text x="905" y="90" fill="white">2.35729ms</text><text x="1105" y="90" fill="white">1.342138ms</text><text x="5" y="120" fill="white">Day 2:</text><text x="105" y="120" fill="white">275.236µs</text><text x="305" y="120" fill="white">798.954µs</text><text x="505" y="120" fill="white">255.201µs</text><text x="705" y="120" fill="white">205.948µs</text><text x="905" y="120" fill="white">339.128µs</text><text x="1105" y="120" fill="white">186.731µs</text><text x="5" y="150" fill="white">Day 3:</text><text x="105" y="150" fill="white">60.082µs</text><text x="305" y="150" fill="white">104.787µs</text><text x="505" y="150" fill="white">58.49µs</text><text x="705" y="150" fill="white">70.067µs</text><text x="905" y="150" fill="white">146.355µs</text><text x="1105" y="150" fill="white">62.728µs</text><text x="5" y="180" fill="white">Day 4:</text><text x="105" y="180" fill="white">202.188µs</text><text x="305" y="180" fill="white">812.039µs</text><text x="505" y="180" fill="white">165.672µs</text><text x="705" y="180" fill="white">251.912µs</text><text x="905" y="180" fill="white">2.278502ms</text><text x="1105" y="180" fill="white">226.978µs</text><text x="5" y="210" fill="white">Day 5:</text><text x="105" y="210" fill="white">83.974µs</text><text x="305" y="210" fill="white">460.908µs</text><text x="505" y="210" fill="white">80.401µs</text><text x="705" y="210" fill="white">119.255µs</text><text x="905" y="210" fill="white">208.512µs</text><text x="1105" y="210" fill="white">116.679µs</text><text x="5" y="240" fill="white">Day 6:</text><text x="105" y="240" fill="white">464.216µs</text><text x="305" y="240" fill="white">729.815µs</text><text x="505" y="240" fill="white">445.129µs</text><text x="705" y="240" fill="white">557.682µs</text><text x="905" y="240" fill="white">1.121682ms</text><text x="1105" y="240" fill="white">537.312µs</text><text x="5" y="270" fill="white">Day 7:</text><text x="105" y="270" fill="red">Missing or timeout!</text><text x="705" y="270" fill="white">689.412µs</text><text x="905" y="270" fill="white">1.115942ms</text><text x="1105" y="270" fill="white">653.862µs</text><text x="5" y="300" fill="white">Day 8:</text><text x="105" y="300" fill="white">57.76µs</text><text x="305" y="300" fill="white">98.446µs</text><text x="505" y="300" fill="white">56.297µs</text><text x="705" y="300" fill="white">100.143µs</text><text x="905" y="300" fill="white">165.081µs</text><text x="1105" y="300" fill="white">97.083µs</text><text x="5" y="330" fill="white">Day 9:</text><text x="105" y="330" fill="white">28.583µs</text><text x="305" y="330" fill="white">428.497µs</text><text x="505" y="330" fill="white">24.166µs</text><text x="705" y="330" fill="white">255.473µs</text><text x="905" y="330" fill="white">3.104486ms</text><text x="1105" y="330" fill="white">95.87µs</text><text x="5" y="360" fill="white">Day 10:</text><text x="105" y="360" fill="white">1.516µs</text><text x="305" y="360" fill="white">30.147µs</text><text x="505" y="360" fill="white">921ns</text><text x="705" y="360" fill="white">32ns</text><text x="905" y="360" fill="white">451ns</text><text x="1105" y="360" fill="white">30ns</text><text x="5" y="390" fill="white">Day 11:</text><text x="105" y="390" fill="red">Missing or timeout!</text><text x="705" y="390" fill="red">Missing or timeout!</text><text x="5" y="420" fill="white">Day 12:</text><text x="105" y="420" fill="red">Missing or timeout!</text><text x="705" y="420" fill="red">Missing or timeout!</text><text x="5" y="450" fill="white">Day 13:</text><text x="105" y="450" fill="red">Missing or timeout!</text><text x="705" y="450" fill="red">Missing or timeout!</text><text x="5" y="480" fill="white">Day 14:</text><text x="105" y="480" fill="red">Missing or timeout!</text><text x="705" y="480" fill="red">Missing or timeout!</text><text x="5" y="510" fill="white">Day 15:</text><text x="105" y="510" fill="red">Missing or timeout!</text><text x="705" y="510" fill="red">Missing or timeout!</text><text x="5" y="540" fill="white">Day 16:</text><text x="105" y="540" fill="red">Missing or timeout!</text><text x="705" y="540" fill="red">Missing or timeout!</text><text x="5" y="570" fill="white">Day 17:</text><text x="105" y="570" fill="red">Missing or timeout!</text><text x="705" y="570" fill="red">Missing or timeout!</text><text x="5" y="600" fill="white">Day 18:</text><text x="105" y="600" fill="red">Missing or timeout!</text><text x="705" y="600" fill="red">Missing or timeout!</text><text x="5" y="630" fill="white">Day 19:</text><text x="105" y="630" fill="red">Missing or timeout!</text><text x="705" y="630" fill="red">Missing or timeout!</text><text x="5" y="660" fill="white">Day 20:</text><text x="105" y="660" fill="red">Missing or timeout!</text><text x="705" y="660" fill="red">Missing or timeout!</text><text x="5" y="690" fill="white">Day 21:</text><text x="105" y="690" fill="red">Missing or timeout!</text><text x="705" y="690" fill="red">Missing or timeout!</text><text x="5" y="720" fill="white">Day 22:</text><text x="105" y="720" fill="red">Missing or timeout!</text><text x="705" y="720" fill="red">Missing or timeout!</text><text x="5" y="750" fill="white">Day 23:</text><text x="105" y="750" fill="red">Missing or timeout!</text><text x="705" y="750" fill="red">Missing or timeout!</text><text x="5" y="780" fill="white">Day 24:</text><text x="105" y="780" fill="red">Missing or timeout!</text><text x="705" y="780" fill="red">Missing or timeout!</text><text x="5" y="810" fill="white">Day 25:</text><text x="105" y="810" fill="red">Missing or timeout!</text><text x="705" y="810" fill="red">Missing or timeout!</text></svg>
