<svg height="830" width="1300" xmlns="http://www.w3.org/2000/svg"><rect width="100%" height="100%" fill="%230D1117" /><text x="10" y="30" fill="white">Year 2022</text><text x="305" y="30" fill="white">Part 1</text><text x="905" y="30" fill="white">Part 2</text><text x="105" y="60" fill="white">Average</text><text x="305" y="60" fill="white">Best</text><text x="505" y="60" fill="white">Worst</text><text x="705" y="60" fill="white">Average</text><text x="905" y="60" fill="white">Best</text><text x="1105" y="60" fill="white">Worst</text><text x="5" y="90" fill="white">Day 1:</text><text x="105" y="90" fill="white">39.547µs</text><text x="305" y="90" fill="white">62.999µs</text><text x="505" y="90" fill="white">38.643µs</text><text x="705" y="90" fill="white">53.621µs</text><text x="905" y="90" fill="white">177.895µs</text><text x="1105" y="90" fill="white">49.804µs</text><text x="5" y="120" fill="white">Day 2:</text><text x="105" y="120" fill="white">44.813µs</text><text x="305" y="120" fill="white">134.974µs</text><text x="505" y="120" fill="white">41.398µs</text><text x="705" y="120" fill="white">47.306µs</text><text x="905" y="120" fill="white">99.387µs</text><text x="1105" y="120" fill="white">44.053µs</text><text x="5" y="150" fill="white">Day 3:</text><text x="105" y="150" fill="white">75.352µs</text><text x="305" y="150" fill="white">518.106µs</text><text x="505" y="150" fill="white">56.837µs</text><text x="705" y="150" fill="white">71.711µs</text><text x="905" y="150" fill="white">126.598µs</text><text x="1105" y="150" fill="white">61.285µs</text><text x="5" y="180" fill="white">Day 4:</text><text x="105" y="180" fill="white">78.217µs</text><text x="305" y="180" fill="white">670.773µs</text><text x="505" y="180" fill="white">75.562µs</text><text x="705" y="180" fill="white">82.001µs</text><text x="905" y="180" fill="white">210.035µs</text><text x="1105" y="180" fill="white">74.731µs</text><text x="5" y="210" fill="white">Day 5:</text><text x="105" y="210" fill="white">155.004µs</text><text x="305" y="210" fill="white">589.169µs</text><text x="505" y="210" fill="white">145.103µs</text><text x="705" y="210" fill="white">171.04µs</text><text x="905" y="210" fill="white">470.406µs</text><text x="1105" y="210" fill="white">148.75µs</text><text x="5" y="240" fill="white">Day 6:</text><text x="105" y="240" fill="white">18.833µs</text><text x="305" y="240" fill="white">49.393µs</text><text x="505" y="240" fill="white">16.911µs</text><text x="705" y="240" fill="white">28.675µs</text><text x="905" y="240" fill="white">56.166µs</text><text x="1105" y="240" fill="white">28.013µs</text><text x="5" y="270" fill="white">Day 7:</text><text x="105" y="270" fill="white">379.696µs</text><text x="305" y="270" fill="white">1.229205ms</text><text x="505" y="270" fill="white">330.693µs</text><text x="705" y="270" fill="white">374.653µs</text><text x="905" y="270" fill="white">704.947µs</text><text x="1105" y="270" fill="white">358.285µs</text><text x="5" y="300" fill="white">Day 8:</text><text x="105" y="300" fill="white">1.195139ms</text><text x="305" y="300" fill="white">1.690925ms</text><text x="505" y="300" fill="white">1.163531ms</text><text x="705" y="300" fill="white">1.165798ms</text><text x="905" y="300" fill="white">2.005848ms</text><text x="1105" y="300" fill="white">1.143523ms</text><text x="5" y="330" fill="white">Day 9:</text><text x="105" y="330" fill="white">559.233µs</text><text x="305" y="330" fill="white">766.113µs</text><text x="505" y="330" fill="white">542.652µs</text><text x="705" y="330" fill="white">697.088µs</text><text x="905" y="330" fill="white">925.663µs</text><text x="1105" y="330" fill="white">646.307µs</text><text x="5" y="360" fill="white">Day 10:</text><text x="105" y="360" fill="white">11.731µs</text><text x="305" y="360" fill="white">40.797µs</text><text x="505" y="360" fill="white">10.289µs</text><text x="705" y="360" fill="white">13.961µs</text><text x="905" y="360" fill="white">55.945µs</text><text x="1105" y="360" fill="white">12.043µs</text><text x="5" y="390" fill="white">Day 11:</text><text x="105" y="390" fill="white">23.495µs</text><text x="305" y="390" fill="white">63.399µs</text><text x="505" y="390" fill="white">18.224µs</text><text x="705" y="390" fill="red">Missing or timeout!</text><text x="5" y="420" fill="white">Day 12:</text><text x="105" y="420" fill="red">Missing or timeout!</text><text x="705" y="420" fill="red">Missing or timeout!</text><text x="5" y="450" fill="white">Day 13:</text><text x="105" y="450" fill="red">Missing or timeout!</text><text x="705" y="450" fill="red">Missing or timeout!</text><text x="5" y="480" fill="white">Day 14:</text><text x="105" y="480" fill="white">331.358µs</text><text x="305" y="480" fill="white">523.746µs</text><text x="505" y="480" fill="white">305.154µs</text><text x="705" y="480" fill="red">Missing or timeout!</text><text x="5" y="510" fill="white">Day 15:</text><text x="105" y="510" fill="red">Missing or timeout!</text><text x="705" y="510" fill="red">Missing or timeout!</text><text x="5" y="540" fill="white">Day 16:</text><text x="105" y="540" fill="red">Missing or timeout!</text><text x="705" y="540" fill="red">Missing or timeout!</text><text x="5" y="570" fill="white">Day 17:</text><text x="105" y="570" fill="white">945.581µs</text><text x="305" y="570" fill="white">1.277786ms</text><text x="505" y="570" fill="white">908.441µs</text><text x="705" y="570" fill="white">145.648µs</text><text x="905" y="570" fill="white">217.98µs</text><text x="1105" y="570" fill="white">139.002µs</text><text x="5" y="600" fill="white">Day 18:</text><text x="105" y="600" fill="white">28ns</text><text x="305" y="600" fill="white">441ns</text><text x="505" y="600" fill="white">20ns</text><text x="705" y="600" fill="white">48ns</text><text x="905" y="600" fill="white">11.041µs</text><text x="1105" y="600" fill="white">30ns</text><text x="5" y="630" fill="white">Day 19:</text><text x="105" y="630" fill="white">40ns</text><text x="305" y="630" fill="white">731ns</text><text x="505" y="630" fill="white">30ns</text><text x="705" y="630" fill="white">39ns</text><text x="905" y="630" fill="white">381ns</text><text x="1105" y="630" fill="white">30ns</text><text x="5" y="660" fill="white">Day 20:</text><text x="105" y="660" fill="white">30ns</text><text x="305" y="660" fill="white">451ns</text><text x="505" y="660" fill="white">30ns</text><text x="705" y="660" fill="white">39ns</text><text x="905" y="660" fill="white">701ns</text><text x="1105" y="660" fill="white">30ns</text><text x="5" y="690" fill="white">Day 21:</text><text x="105" y="690" fill="white">879.34µs</text><text x="305" y="690" fill="white">1.587029ms</text><text x="505" y="690" fill="white">782.213µs</text><text x="705" y="690" fill="white">815.604µs</text><text x="905" y="690" fill="white">1.331829ms</text><text x="1105" y="690" fill="white">773.667µs</text><text x="5" y="720" fill="white">Day 22:</text><text x="105" y="720" fill="white">577.734µs</text><text x="305" y="720" fill="white">826.587µs</text><text x="505" y="720" fill="white">548.493µs</text><text x="705" y="720" fill="white">39ns</text><text x="905" y="720" fill="white">531ns</text><text x="1105" y="720" fill="white">30ns</text><text x="5" y="750" fill="white">Day 23:</text><text x="105" y="750" fill="red">Missing or timeout!</text><text x="705" y="750" fill="red">Missing or timeout!</text><text x="5" y="780" fill="white">Day 24:</text><text x="105" y="780" fill="white">28ns</text><text x="305" y="780" fill="white">461ns</text><text x="505" y="780" fill="white">20ns</text><text x="705" y="780" fill="white">39ns</text><text x="905" y="780" fill="white">521ns</text><text x="1105" y="780" fill="white">30ns</text><text x="5" y="810" fill="white">Day 25:</text><text x="105" y="810" fill="white">34ns</text><text x="305" y="810" fill="white">692ns</text><text x="505" y="810" fill="white">30ns</text><text x="705" y="810" fill="white">29ns</text><text x="905" y="810" fill="white">561ns</text><text x="1105" y="810" fill="white">20ns</text></svg>
