<svg height="830" width="1300" xmlns="http://www.w3.org/2000/svg"><rect width="100%" height="100%" fill="%230D1117" /><text x="10" y="30" fill="white">Year 2022</text><text x="305" y="30" fill="white">Part 1</text><text x="905" y="30" fill="white">Part 2</text><text x="105" y="60" fill="white">Average</text><text x="305" y="60" fill="white">Best</text><text x="505" y="60" fill="white">Worst</text><text x="705" y="60" fill="white">Average</text><text x="905" y="60" fill="white">Best</text><text x="1105" y="60" fill="white">Worst</text><text x="5" y="90" fill="white">Day 1:</text><text x="105" y="90" fill="white">30.821µs</text><text x="305" y="90" fill="white">27.029µs</text><text x="505" y="90" fill="white">87.024µs</text><text x="705" y="90" fill="white">40.27µs</text><text x="905" y="90" fill="white">37.855µs</text><text x="1105" y="90" fill="white">95.544µs</text><text x="5" y="120" fill="white">Day 2:</text><text x="105" y="120" fill="white">40.304µs</text><text x="305" y="120" fill="white">35.271µs</text><text x="505" y="120" fill="white">81.507µs</text><text x="705" y="120" fill="white">38.417µs</text><text x="905" y="120" fill="white">34.293µs</text><text x="1105" y="120" fill="white">71.17µs</text><text x="5" y="150" fill="white">Day 3:</text><text x="105" y="150" fill="white">41.142µs</text><text x="305" y="150" fill="white">38.972µs</text><text x="505" y="150" fill="white">92.89µs</text><text x="705" y="150" fill="white">39.481µs</text><text x="905" y="150" fill="white">35.62µs</text><text x="1105" y="150" fill="white">89.608µs</text><text x="5" y="180" fill="white">Day 4:</text><text x="105" y="180" fill="white">60.925µs</text><text x="305" y="180" fill="white">56.712µs</text><text x="505" y="180" fill="white">128.371µs</text><text x="705" y="180" fill="white">58.562µs</text><text x="905" y="180" fill="white">56.363µs</text><text x="1105" y="180" fill="white">104.066µs</text><text x="5" y="210" fill="white">Day 5:</text><text x="105" y="210" fill="white">109.687µs</text><text x="305" y="210" fill="white">100.852µs</text><text x="505" y="210" fill="white">177.68µs</text><text x="705" y="210" fill="white">109.436µs</text><text x="905" y="210" fill="white">99.106µs</text><text x="1105" y="210" fill="white">160.847µs</text><text x="5" y="240" fill="white">Day 6:</text><text x="105" y="240" fill="white">20.679µs</text><text x="305" y="240" fill="white">18.229µs</text><text x="505" y="240" fill="white">51.125µs</text><text x="705" y="240" fill="white">28.695µs</text><text x="905" y="240" fill="white">27.658µs</text><text x="1105" y="240" fill="white">43.232µs</text><text x="5" y="270" fill="white">Day 7:</text><text x="105" y="270" fill="white">279.276µs</text><text x="305" y="270" fill="white">258.977µs</text><text x="505" y="270" fill="white">364.509µs</text><text x="705" y="270" fill="white">271.577µs</text><text x="905" y="270" fill="white">258.907µs</text><text x="1105" y="270" fill="white">336.502µs</text><text x="5" y="300" fill="white">Day 8:</text><text x="105" y="300" fill="white">1.018211ms</text><text x="305" y="300" fill="white">990.647µs</text><text x="505" y="300" fill="white">1.216518ms</text><text x="705" y="300" fill="white">986.852µs</text><text x="905" y="300" fill="white">963.129µs</text><text x="1105" y="300" fill="white">1.093176ms</text><text x="5" y="330" fill="white">Day 9:</text><text x="105" y="330" fill="white">443.615µs</text><text x="305" y="330" fill="white">428.485µs</text><text x="505" y="330" fill="white">543.096µs</text><text x="705" y="330" fill="white">535.33µs</text><text x="905" y="330" fill="white">515.229µs</text><text x="1105" y="330" fill="white">626.767µs</text><text x="5" y="360" fill="white">Day 10:</text><text x="105" y="360" fill="white">9.598µs</text><text x="305" y="360" fill="white">8.87µs</text><text x="505" y="360" fill="white">32.895µs</text><text x="705" y="360" fill="white">10.322µs</text><text x="905" y="360" fill="white">9.429µs</text><text x="1105" y="360" fill="white">27.169µs</text><text x="5" y="390" fill="white">Day 11:</text><text x="105" y="390" fill="white">18.061µs</text><text x="305" y="390" fill="white">17.041µs</text><text x="505" y="390" fill="white">38.204µs</text><text x="705" y="390" fill="white">8.861815ms</text><text x="905" y="390" fill="white">8.448161ms</text><text x="1105" y="390" fill="white">11.990229ms</text><text x="5" y="420" fill="white">Day 12:</text><text x="105" y="420" fill="white">2.421998ms</text><text x="305" y="420" fill="white">2.371854ms</text><text x="505" y="420" fill="white">2.661213ms</text><text x="705" y="420" fill="white">63.536869ms</text><text x="905" y="420" fill="white">568.905772ms</text><text x="1105" y="420" fill="white">619.036478ms</text><text x="5" y="450" fill="white">Day 13:</text><text x="105" y="450" fill="white">2.239053ms</text><text x="305" y="450" fill="white">2.189217ms</text><text x="505" y="450" fill="white">2.561198ms</text><text x="705" y="450" fill="white">4.455084ms</text><text x="905" y="450" fill="white">4.363556ms</text><text x="1105" y="450" fill="white">4.751462ms</text><text x="5" y="480" fill="white">Day 14:</text><text x="105" y="480" fill="white">237.331µs</text><text x="305" y="480" fill="white">225.172µs</text><text x="505" y="480" fill="white">319.18µs</text><text x="705" y="480" fill="white">8.208519ms</text><text x="905" y="480" fill="white">8.008083ms</text><text x="1105" y="480" fill="white">8.429932ms</text><text x="5" y="510" fill="white">Day 15:</text><text x="105" y="510" fill="white">10.328064ms</text><text x="305" y="510" fill="white">10.075144ms</text><text x="505" y="510" fill="white">14.142009ms</text><text x="705" y="510" fill="white">65.334359ms</text><text x="905" y="510" fill="white">576.297317ms</text><text x="1105" y="510" fill="white">701.898969ms</text><text x="5" y="540" fill="white">Day 16:</text><text x="105" y="540" fill="red">Missing, timeout or OOM!</text><text x="705" y="540" fill="red">Missing, timeout or OOM!</text><text x="5" y="570" fill="white">Day 17:</text><text x="105" y="570" fill="white">782.655µs</text><text x="305" y="570" fill="white">760.252µs</text><text x="505" y="570" fill="white">856.497µs</text><text x="705" y="570" fill="white">118.388µs</text><text x="905" y="570" fill="white">110.912µs</text><text x="1105" y="570" fill="white">155.194µs</text><text x="5" y="600" fill="white">Day 18:</text><text x="105" y="600" fill="white">1.241µs</text><text x="305" y="600" fill="white">908ns</text><text x="505" y="600" fill="white">1.467µs</text><text x="705" y="600" fill="white">1.16µs</text><text x="905" y="600" fill="white">908ns</text><text x="1105" y="600" fill="white">1.467µs</text><text x="5" y="630" fill="white">Day 19:</text><text x="105" y="630" fill="white">1.218µs</text><text x="305" y="630" fill="white">908ns</text><text x="505" y="630" fill="white">1.955µs</text><text x="705" y="630" fill="white">1.322µs</text><text x="905" y="630" fill="white">908ns</text><text x="1105" y="630" fill="white">11.245µs</text><text x="5" y="660" fill="white">Day 20:</text><text x="105" y="660" fill="white">1.258µs</text><text x="305" y="660" fill="white">908ns</text><text x="505" y="660" fill="white">5.588µs</text><text x="705" y="660" fill="white">1.195µs</text><text x="905" y="660" fill="white">908ns</text><text x="1105" y="660" fill="white">1.886µs</text><text x="5" y="690" fill="white">Day 21:</text><text x="105" y="690" fill="white">664.718µs</text><text x="305" y="690" fill="white">641.936µs</text><text x="505" y="690" fill="white">807.396µs</text><text x="705" y="690" fill="white">654.02µs</text><text x="905" y="690" fill="white">630.831µs</text><text x="1105" y="690" fill="white">924.805µs</text><text x="5" y="720" fill="white">Day 22:</text><text x="105" y="720" fill="white">441.812µs</text><text x="305" y="720" fill="white">422.696µs</text><text x="505" y="720" fill="white">681.608µs</text><text x="705" y="720" fill="white">1.245µs</text><text x="905" y="720" fill="white">908ns</text><text x="1105" y="720" fill="white">5.238µs</text><text x="5" y="750" fill="white">Day 23:</text><text x="105" y="750" fill="white">22.173676ms</text><text x="305" y="750" fill="white">19.610105ms</text><text x="505" y="750" fill="white">25.968568ms</text><text x="705" y="750" fill="white">79.707037ms</text><text x="905" y="750" fill="white">689.571559ms</text><text x="1105" y="750" fill="white">812.726738ms</text><text x="5" y="780" fill="white">Day 24:</text><text x="105" y="780" fill="white">1.292µs</text><text x="305" y="780" fill="white">908ns</text><text x="505" y="780" fill="white">5.238µs</text><text x="705" y="780" fill="white">1.169µs</text><text x="905" y="780" fill="white">908ns</text><text x="1105" y="780" fill="white">1.886µs</text><text x="5" y="810" fill="white">Day 25:</text><text x="105" y="810" fill="white">1.295µs</text><text x="305" y="810" fill="white">907ns</text><text x="505" y="810" fill="white">5.727µs</text><text x="705" y="810" fill="white">1.171µs</text><text x="905" y="810" fill="white">908ns</text><text x="1105" y="810" fill="white">1.467µs</text></svg>
