<svg height="830" width="1300" xmlns="http://www.w3.org/2000/svg"><rect width="100%" height="100%" fill="%230D1117" /><text x="10" y="30" fill="white">Year 2022</text><text x="305" y="30" fill="white">Part 1</text><text x="905" y="30" fill="white">Part 2</text><text x="105" y="60" fill="white">Average</text><text x="305" y="60" fill="white">Best</text><text x="505" y="60" fill="white">Worst</text><text x="705" y="60" fill="white">Average</text><text x="905" y="60" fill="white">Best</text><text x="1105" y="60" fill="white">Worst</text><text x="5" y="90" fill="white">Day 1:</text><text x="105" y="90" fill="white">30.176µs</text><text x="305" y="90" fill="white">66.349µs</text><text x="505" y="90" fill="white">28.076µs</text><text x="705" y="90" fill="white">40.065µs</text><text x="905" y="90" fill="white">81.016µs</text><text x="1105" y="90" fill="white">37.504µs</text><text x="5" y="120" fill="white">Day 2:</text><text x="105" y="120" fill="white">36.514µs</text><text x="305" y="120" fill="white">102.736µs</text><text x="505" y="120" fill="white">34.781µs</text><text x="705" y="120" fill="white">38.305µs</text><text x="905" y="120" fill="white">94.844µs</text><text x="1105" y="120" fill="white">36.108µs</text><text x="5" y="150" fill="white">Day 3:</text><text x="105" y="150" fill="white">41.885µs</text><text x="305" y="150" fill="white">91.561µs</text><text x="505" y="150" fill="white">39.949µs</text><text x="705" y="150" fill="white">36.862µs</text><text x="905" y="150" fill="white">97.917µs</text><text x="1105" y="150" fill="white">33.873µs</text><text x="5" y="180" fill="white">Day 4:</text><text x="105" y="180" fill="white">53.952µs</text><text x="305" y="180" fill="white">109.441µs</text><text x="505" y="180" fill="white">50.146µs</text><text x="705" y="180" fill="white">54.028µs</text><text x="905" y="180" fill="white">113.003µs</text><text x="1105" y="180" fill="white">50.984µs</text><text x="5" y="210" fill="white">Day 5:</text><text x="105" y="210" fill="white">100.355µs</text><text x="305" y="210" fill="white">168.805µs</text><text x="505" y="210" fill="white">96.381µs</text><text x="705" y="210" fill="white">101.813µs</text><text x="905" y="210" fill="white">158.678µs</text><text x="1105" y="210" fill="white">96.8µs</text><text x="5" y="240" fill="white">Day 6:</text><text x="105" y="240" fill="white">21.83µs</text><text x="305" y="240" fill="white">65.091µs</text><text x="505" y="240" fill="white">18.997µs</text><text x="705" y="240" fill="white">30.69µs</text><text x="905" y="240" fill="white">58.107µs</text><text x="1105" y="240" fill="white">28.635µs</text><text x="5" y="270" fill="white">Day 7:</text><text x="105" y="270" fill="white">267.163µs</text><text x="305" y="270" fill="white">382.518µs</text><text x="505" y="270" fill="white">253.313µs</text><text x="705" y="270" fill="white">267.194µs</text><text x="905" y="270" fill="white">442.163µs</text><text x="1105" y="270" fill="white">252.475µs</text><text x="5" y="300" fill="white">Day 8:</text><text x="105" y="300" fill="white">994.712µs</text><text x="305" y="300" fill="white">1.25057ms</text><text x="505" y="300" fill="white">970.578µs</text><text x="705" y="300" fill="white">985.324µs</text><text x="905" y="300" fill="white">1.08847ms</text><text x="1105" y="300" fill="white">960.242µs</text><text x="5" y="330" fill="white">Day 9:</text><text x="105" y="330" fill="white">441.929µs</text><text x="305" y="330" fill="white">679.203µs</text><text x="505" y="330" fill="white">422.816µs</text><text x="705" y="330" fill="white">529.626µs</text><text x="905" y="330" fill="white">598.466µs</text><text x="1105" y="330" fill="white">511.444µs</text><text x="5" y="360" fill="white">Day 10:</text><text x="105" y="360" fill="white">9.432µs</text><text x="305" y="360" fill="white">43.581µs</text><text x="505" y="360" fill="white">8.031µs</text><text x="705" y="360" fill="white">10.485µs</text><text x="905" y="360" fill="white">42.394µs</text><text x="1105" y="360" fill="white">9.499µs</text><text x="5" y="390" fill="white">Day 11:</text><text x="105" y="390" fill="white">18.36µs</text><text x="305" y="390" fill="white">63.974µs</text><text x="505" y="390" fill="white">17.041µs</text><text x="705" y="390" fill="red">Missing, timeout or OOM!</text><text x="5" y="420" fill="white">Day 12:</text><text x="105" y="420" fill="red">Missing, timeout or OOM!</text><text x="705" y="420" fill="red">Missing, timeout or OOM!</text><text x="5" y="450" fill="white">Day 13:</text><text x="105" y="450" fill="red">Missing, timeout or OOM!</text><text x="705" y="450" fill="red">Missing, timeout or OOM!</text><text x="5" y="480" fill="white">Day 14:</text><text x="105" y="480" fill="white">225.671µs</text><text x="305" y="480" fill="white">321.058µs</text><text x="505" y="480" fill="white">215.249µs</text><text x="705" y="480" fill="red">Missing, timeout or OOM!</text><text x="5" y="510" fill="white">Day 15:</text><text x="105" y="510" fill="red">Missing, timeout or OOM!</text><text x="705" y="510" fill="red">Missing, timeout or OOM!</text><text x="5" y="540" fill="white">Day 16:</text><text x="105" y="540" fill="red">Missing, timeout or OOM!</text><text x="705" y="540" fill="red">Missing, timeout or OOM!</text><text x="5" y="570" fill="white">Day 17:</text><text x="105" y="570" fill="white">764.569µs</text><text x="305" y="570" fill="white">1.046426ms</text><text x="505" y="570" fill="white">740.174µs</text><text x="705" y="570" fill="white">116.262µs</text><text x="905" y="570" fill="white">189.688µs</text><text x="1105" y="570" fill="white">107.625µs</text><text x="5" y="600" fill="white">Day 18:</text><text x="105" y="600" fill="white">1.226µs</text><text x="305" y="600" fill="white">13.34µs</text><text x="505" y="600" fill="white">838ns</text><text x="705" y="600" fill="white">1.236µs</text><text x="905" y="600" fill="white">11.315µs</text><text x="1105" y="600" fill="white">907ns</text><text x="5" y="630" fill="white">Day 19:</text><text x="105" y="630" fill="white">1.258µs</text><text x="305" y="630" fill="white">22.14µs</text><text x="505" y="630" fill="white">907ns</text><text x="705" y="630" fill="white">1.22µs</text><text x="905" y="630" fill="white">4.26µs</text><text x="1105" y="630" fill="white">907ns</text><text x="5" y="660" fill="white">Day 20:</text><text x="105" y="660" fill="white">1.223µs</text><text x="305" y="660" fill="white">9.987µs</text><text x="505" y="660" fill="white">838ns</text><text x="705" y="660" fill="white">1.228µs</text><text x="905" y="660" fill="white">2.864µs</text><text x="1105" y="660" fill="white">907ns</text><text x="5" y="690" fill="white">Day 21:</text><text x="105" y="690" fill="white">658.571µs</text><text x="305" y="690" fill="white">851.71µs</text><text x="505" y="690" fill="white">622.98µs</text><text x="705" y="690" fill="white">651.863µs</text><text x="905" y="690" fill="white">956.47µs</text><text x="1105" y="690" fill="white">617.603µs</text><text x="5" y="720" fill="white">Day 22:</text><text x="105" y="720" fill="white">483.475µs</text><text x="305" y="720" fill="white">1.162222ms</text><text x="505" y="720" fill="white">460.74µs</text><text x="705" y="720" fill="white">1.215µs</text><text x="905" y="720" fill="white">10.406µs</text><text x="1105" y="720" fill="white">907ns</text><text x="5" y="750" fill="white">Day 23:</text><text x="105" y="750" fill="red">Missing, timeout or OOM!</text><text x="705" y="750" fill="red">Missing, timeout or OOM!</text><text x="5" y="780" fill="white">Day 24:</text><text x="105" y="780" fill="white">1.264µs</text><text x="305" y="780" fill="white">39.53µs</text><text x="505" y="780" fill="white">907ns</text><text x="705" y="780" fill="white">1.234µs</text><text x="905" y="780" fill="white">12.013µs</text><text x="1105" y="780" fill="white">907ns</text><text x="5" y="810" fill="white">Day 25:</text><text x="105" y="810" fill="white">1.242µs</text><text x="305" y="810" fill="white">12.362µs</text><text x="505" y="810" fill="white">907ns</text><text x="705" y="810" fill="white">1.219µs</text><text x="905" y="810" fill="white">11.104µs</text><text x="1105" y="810" fill="white">907ns</text></svg>
