<svg height="830" width="1300" xmlns="http://www.w3.org/2000/svg"><rect width="100%" height="100%" fill="%230D1117" /><text x="10" y="30" fill="white">Year 2022</text><text x="305" y="30" fill="white">Part 1</text><text x="905" y="30" fill="white">Part 2</text><text x="105" y="60" fill="white">Average</text><text x="305" y="60" fill="white">Best</text><text x="505" y="60" fill="white">Worst</text><text x="705" y="60" fill="white">Average</text><text x="905" y="60" fill="white">Best</text><text x="1105" y="60" fill="white">Worst</text><text x="5" y="90" fill="white">Day 1:</text><text x="105" y="90" fill="white">30.608µs</text><text x="305" y="90" fill="white">76.825µs</text><text x="505" y="90" fill="white">28.565µs</text><text x="705" y="90" fill="white">39.42µs</text><text x="905" y="90" fill="white">83.111µs</text><text x="1105" y="90" fill="white">37.225µs</text><text x="5" y="120" fill="white">Day 2:</text><text x="105" y="120" fill="white">37.078µs</text><text x="305" y="120" fill="white">85.067µs</text><text x="505" y="120" fill="white">34.361µs</text><text x="705" y="120" fill="white">38.057µs</text><text x="905" y="120" fill="white">82.482µs</text><text x="1105" y="120" fill="white">36.317µs</text><text x="5" y="150" fill="white">Day 3:</text><text x="105" y="150" fill="white">44.812µs</text><text x="305" y="150" fill="white">117.263µs</text><text x="505" y="150" fill="white">42.743µs</text><text x="705" y="150" fill="white">36.243µs</text><text x="905" y="150" fill="white">84.019µs</text><text x="1105" y="150" fill="white">34.431µs</text><text x="5" y="180" fill="white">Day 4:</text><text x="105" y="180" fill="white">54.367µs</text><text x="305" y="180" fill="white">159.377µs</text><text x="505" y="180" fill="white">49.587µs</text><text x="705" y="180" fill="white">54.05µs</text><text x="905" y="180" fill="white">104.343µs</text><text x="1105" y="180" fill="white">50.286µs</text><text x="5" y="210" fill="white">Day 5:</text><text x="105" y="210" fill="white">103.227µs</text><text x="305" y="210" fill="white">188.99µs</text><text x="505" y="210" fill="white">97.219µs</text><text x="705" y="210" fill="white">103.5µs</text><text x="905" y="210" fill="white">138.914µs</text><text x="1105" y="210" fill="white">97.428µs</text><text x="5" y="240" fill="white">Day 6:</text><text x="105" y="240" fill="white">20.637µs</text><text x="305" y="240" fill="white">54.756µs</text><text x="505" y="240" fill="white">18.299µs</text><text x="705" y="240" fill="white">31.259µs</text><text x="905" y="240" fill="white">74.311µs</text><text x="1105" y="240" fill="white">28.495µs</text><text x="5" y="270" fill="white">Day 7:</text><text x="105" y="270" fill="white">272.101µs</text><text x="305" y="270" fill="white">463.045µs</text><text x="505" y="270" fill="white">250.659µs</text><text x="705" y="270" fill="white">264.708µs</text><text x="905" y="270" fill="white">354.722µs</text><text x="1105" y="270" fill="white">250.938µs</text><text x="5" y="300" fill="white">Day 8:</text><text x="105" y="300" fill="red">Missing, timeout or OOM!</text><text x="705" y="300" fill="white">990.211µs</text><text x="905" y="300" fill="white">1.197213ms</text><text x="1105" y="300" fill="white">962.966µs</text><text x="5" y="330" fill="white">Day 9:</text><text x="105" y="330" fill="white">437.999µs</text><text x="305" y="330" fill="white">624.169µs</text><text x="505" y="330" fill="white">418.627µs</text><text x="705" y="330" fill="white">529.244µs</text><text x="905" y="330" fill="white">1.182896ms</text><text x="1105" y="330" fill="white">509.559µs</text><text x="5" y="360" fill="white">Day 10:</text><text x="105" y="360" fill="white">9.191µs</text><text x="305" y="360" fill="white">33.384µs</text><text x="505" y="360" fill="white">7.613µs</text><text x="705" y="360" fill="white">10.713µs</text><text x="905" y="360" fill="white">27.168µs</text><text x="1105" y="360" fill="white">8.451µs</text><text x="5" y="390" fill="white">Day 11:</text><text x="105" y="390" fill="white">18.555µs</text><text x="305" y="390" fill="white">72.914µs</text><text x="505" y="390" fill="white">16.273µs</text><text x="705" y="390" fill="red">Missing, timeout or OOM!</text><text x="5" y="420" fill="white">Day 12:</text><text x="105" y="420" fill="red">Missing, timeout or OOM!</text><text x="705" y="420" fill="red">Missing, timeout or OOM!</text><text x="5" y="450" fill="white">Day 13:</text><text x="105" y="450" fill="red">Missing, timeout or OOM!</text><text x="705" y="450" fill="red">Missing, timeout or OOM!</text><text x="5" y="480" fill="white">Day 14:</text><text x="105" y="480" fill="white">226.835µs</text><text x="305" y="480" fill="white">377.56µs</text><text x="505" y="480" fill="white">215.599µs</text><text x="705" y="480" fill="red">Missing, timeout or OOM!</text><text x="5" y="510" fill="white">Day 15:</text><text x="105" y="510" fill="red">Missing, timeout or OOM!</text><text x="705" y="510" fill="red">Missing, timeout or OOM!</text><text x="5" y="540" fill="white">Day 16:</text><text x="105" y="540" fill="red">Missing, timeout or OOM!</text><text x="705" y="540" fill="red">Missing, timeout or OOM!</text><text x="5" y="570" fill="white">Day 17:</text><text x="105" y="570" fill="white">768.484µs</text><text x="305" y="570" fill="white">892.567µs</text><text x="505" y="570" fill="white">744.435µs</text><text x="705" y="570" fill="white">116.216µs</text><text x="905" y="570" fill="white">190.526µs</text><text x="1105" y="570" fill="white">108.463µs</text><text x="5" y="600" fill="white">Day 18:</text><text x="105" y="600" fill="white">1.212µs</text><text x="305" y="600" fill="white">13.479µs</text><text x="505" y="600" fill="white">907ns</text><text x="705" y="600" fill="white">1.248µs</text><text x="905" y="600" fill="white">18.996µs</text><text x="1105" y="600" fill="white">907ns</text><text x="5" y="630" fill="white">Day 19:</text><text x="105" y="630" fill="white">1.196µs</text><text x="305" y="630" fill="white">1.886µs</text><text x="505" y="630" fill="white">907ns</text><text x="705" y="630" fill="white">1.233µs</text><text x="905" y="630" fill="white">12.572µs</text><text x="1105" y="630" fill="white">907ns</text><text x="5" y="660" fill="white">Day 20:</text><text x="105" y="660" fill="white">1.22µs</text><text x="305" y="660" fill="white">2.375µs</text><text x="505" y="660" fill="white">907ns</text><text x="705" y="660" fill="white">1.198µs</text><text x="905" y="660" fill="white">4.33µs</text><text x="1105" y="660" fill="white">907ns</text><text x="5" y="690" fill="white">Day 21:</text><text x="105" y="690" fill="white">660.186µs</text><text x="305" y="690" fill="white">1.165715ms</text><text x="505" y="690" fill="white">621.863µs</text><text x="705" y="690" fill="white">649.607µs</text><text x="905" y="690" fill="white">865.678µs</text><text x="1105" y="690" fill="white">619.909µs</text><text x="5" y="720" fill="white">Day 22:</text><text x="105" y="720" fill="white">478.729µs</text><text x="305" y="720" fill="white">639.743µs</text><text x="505" y="720" fill="white">458.366µs</text><text x="705" y="720" fill="white">1.221µs</text><text x="905" y="720" fill="white">11.384µs</text><text x="1105" y="720" fill="white">838ns</text><text x="5" y="750" fill="white">Day 23:</text><text x="105" y="750" fill="red">Missing, timeout or OOM!</text><text x="705" y="750" fill="red">Missing, timeout or OOM!</text><text x="5" y="780" fill="white">Day 24:</text><text x="105" y="780" fill="white">1.245µs</text><text x="305" y="780" fill="white">10.127µs</text><text x="505" y="780" fill="white">907ns</text><text x="705" y="780" fill="white">1.221µs</text><text x="905" y="780" fill="white">8.94µs</text><text x="1105" y="780" fill="white">907ns</text><text x="5" y="810" fill="white">Day 25:</text><text x="105" y="810" fill="white">1.191µs</text><text x="305" y="810" fill="white">2.863µs</text><text x="505" y="810" fill="white">907ns</text><text x="705" y="810" fill="white">1.254µs</text><text x="905" y="810" fill="white">13.061µs</text><text x="1105" y="810" fill="white">907ns</text></svg>
