<svg height="830" width="1300" xmlns="http://www.w3.org/2000/svg"><rect width="100%" height="100%" fill="%230D1117" /><text x="10" y="30" fill="white">Year 2022</text><text x="305" y="30" fill="white">Part 1</text><text x="905" y="30" fill="white">Part 2</text><text x="105" y="60" fill="white">Average</text><text x="305" y="60" fill="white">Best</text><text x="505" y="60" fill="white">Worst</text><text x="705" y="60" fill="white">Average</text><text x="905" y="60" fill="white">Best</text><text x="1105" y="60" fill="white">Worst</text><text x="5" y="90" fill="white">Day 1:</text><text x="105" y="90" fill="white">32.287µs</text><text x="305" y="90" fill="white">27.029µs</text><text x="505" y="90" fill="white">203.589µs</text><text x="705" y="90" fill="white">42.465µs</text><text x="905" y="90" fill="white">38.063µs</text><text x="1105" y="90" fill="white">80.946µs</text><text x="5" y="120" fill="white">Day 2:</text><text x="105" y="120" fill="white">42.18µs</text><text x="305" y="120" fill="white">35.2µs</text><text x="505" y="120" fill="white">266.375µs</text><text x="705" y="120" fill="white">37.944µs</text><text x="905" y="120" fill="white">34.781µs</text><text x="1105" y="120" fill="white">78.153µs</text><text x="5" y="150" fill="white">Day 3:</text><text x="105" y="150" fill="white">47.745µs</text><text x="305" y="150" fill="white">39.041µs</text><text x="505" y="150" fill="white">336.147µs</text><text x="705" y="150" fill="white">37.959µs</text><text x="905" y="150" fill="white">35.34µs</text><text x="1105" y="150" fill="white">75.01µs</text><text x="5" y="180" fill="white">Day 4:</text><text x="105" y="180" fill="white">64.942µs</text><text x="305" y="180" fill="white">56.641µs</text><text x="505" y="180" fill="white">350.115µs</text><text x="705" y="180" fill="white">59.862µs</text><text x="905" y="180" fill="white">56.013µs</text><text x="1105" y="180" fill="white">95.963µs</text><text x="5" y="210" fill="white">Day 5:</text><text x="105" y="210" fill="white">110.5µs</text><text x="305" y="210" fill="white">100.153µs</text><text x="505" y="210" fill="white">400.751µs</text><text x="705" y="210" fill="white">107.363µs</text><text x="905" y="210" fill="white">98.756µs</text><text x="1105" y="210" fill="white">142.337µs</text><text x="5" y="240" fill="white">Day 6:</text><text x="105" y="240" fill="white">21.197µs</text><text x="305" y="240" fill="white">18.089µs</text><text x="505" y="240" fill="white">251.918µs</text><text x="705" y="240" fill="white">30.765µs</text><text x="905" y="240" fill="white">27.657µs</text><text x="1105" y="240" fill="white">55.734µs</text><text x="5" y="270" fill="white">Day 7:</text><text x="105" y="270" fill="white">274.696µs</text><text x="305" y="270" fill="white">258.135µs</text><text x="505" y="270" fill="white">612.581µs</text><text x="705" y="270" fill="white">284.056µs</text><text x="905" y="270" fill="white">258.065µs</text><text x="1105" y="270" fill="white">402.567µs</text><text x="5" y="300" fill="white">Day 8:</text><text x="105" y="300" fill="white">1.04858ms</text><text x="305" y="300" fill="white">995.662µs</text><text x="505" y="300" fill="white">1.646795ms</text><text x="705" y="300" fill="white">1.061281ms</text><text x="905" y="300" fill="white">979.737µs</text><text x="1105" y="300" fill="white">1.661182ms</text><text x="5" y="330" fill="white">Day 9:</text><text x="105" y="330" fill="white">438.869µs</text><text x="305" y="330" fill="white">424.846µs</text><text x="505" y="330" fill="white">679.14µs</text><text x="705" y="330" fill="white">542.243µs</text><text x="905" y="330" fill="white">520.808µs</text><text x="1105" y="330" fill="white">719.787µs</text><text x="5" y="360" fill="white">Day 10:</text><text x="105" y="360" fill="white">12.478µs</text><text x="305" y="360" fill="white">8.032µs</text><text x="505" y="360" fill="white">233.83µs</text><text x="705" y="360" fill="white">10.358µs</text><text x="905" y="360" fill="white">9.009µs</text><text x="1105" y="360" fill="white">28.076µs</text><text x="5" y="390" fill="white">Day 11:</text><text x="105" y="390" fill="white">17.908µs</text><text x="305" y="390" fill="white">16.413µs</text><text x="505" y="390" fill="white">32.895µs</text><text x="705" y="390" fill="white">8.79779ms</text><text x="905" y="390" fill="white">8.337898ms</text><text x="1105" y="390" fill="white">9.859397ms</text><text x="5" y="420" fill="white">Day 12:</text><text x="105" y="420" fill="white">2.47676ms</text><text x="305" y="420" fill="white">2.409046ms</text><text x="505" y="420" fill="white">2.968197ms</text><text x="705" y="420" fill="white">62.800264ms</text><text x="905" y="420" fill="white">565.209372ms</text><text x="1105" y="420" fill="white">575.592792ms</text><text x="5" y="450" fill="white">Day 13:</text><text x="105" y="450" fill="white">2.279479ms</text><text x="305" y="450" fill="white">2.194912ms</text><text x="505" y="450" fill="white">2.946128ms</text><text x="705" y="450" fill="white">4.66854ms</text><text x="905" y="450" fill="white">4.500802ms</text><text x="1105" y="450" fill="white">5.527961ms</text><text x="5" y="480" fill="white">Day 14:</text><text x="105" y="480" fill="white">239.481µs</text><text x="305" y="480" fill="white">224.61µs</text><text x="505" y="480" fill="white">576.333µs</text><text x="705" y="480" fill="white">8.26436ms</text><text x="905" y="480" fill="white">8.068728ms</text><text x="1105" y="480" fill="white">8.911507ms</text><text x="5" y="510" fill="white">Day 15:</text><text x="105" y="510" fill="white">10.325614ms</text><text x="305" y="510" fill="white">10.085195ms</text><text x="505" y="510" fill="white">14.056947ms</text><text x="705" y="510" fill="white">63.867933ms</text><text x="905" y="510" fill="white">575.010055ms</text><text x="1105" y="510" fill="white">586.036649ms</text><text x="5" y="540" fill="white">Day 16:</text><text x="105" y="540" fill="red">Missing, timeout or OOM!</text><text x="705" y="540" fill="red">Missing, timeout or OOM!</text><text x="5" y="570" fill="white">Day 17:</text><text x="105" y="570" fill="white">794.473µs</text><text x="305" y="570" fill="white">769.273µs</text><text x="505" y="570" fill="white">1.271623ms</text><text x="705" y="570" fill="white">126.096µs</text><text x="905" y="570" fill="white">112.091µs</text><text x="1105" y="570" fill="white">218.176µs</text><text x="5" y="600" fill="white">Day 18:</text><text x="105" y="600" fill="white">1.301µs</text><text x="305" y="600" fill="white">907ns</text><text x="505" y="600" fill="white">2.375µs</text><text x="705" y="600" fill="white">1.308µs</text><text x="905" y="600" fill="white">907ns</text><text x="1105" y="600" fill="white">4.26µs</text><text x="5" y="630" fill="white">Day 19:</text><text x="105" y="630" fill="white">1.34µs</text><text x="305" y="630" fill="white">908ns</text><text x="505" y="630" fill="white">1.467µs</text><text x="705" y="630" fill="white">1.243µs</text><text x="905" y="630" fill="white">907ns</text><text x="1105" y="630" fill="white">1.955µs</text><text x="5" y="660" fill="white">Day 20:</text><text x="105" y="660" fill="white">1.292µs</text><text x="305" y="660" fill="white">907ns</text><text x="505" y="660" fill="white">1.885µs</text><text x="705" y="660" fill="white">1.289µs</text><text x="905" y="660" fill="white">907ns</text><text x="1105" y="660" fill="white">1.886µs</text><text x="5" y="690" fill="white">Day 21:</text><text x="105" y="690" fill="white">660.682µs</text><text x="305" y="690" fill="white">640.491µs</text><text x="505" y="690" fill="white">1.03878ms</text><text x="705" y="690" fill="white">661.55µs</text><text x="905" y="690" fill="white">630.084µs</text><text x="1105" y="690" fill="white">900.57µs</text><text x="5" y="720" fill="white">Day 22:</text><text x="105" y="720" fill="white">443.074µs</text><text x="305" y="720" fill="white">423.152µs</text><text x="505" y="720" fill="white">789.317µs</text><text x="705" y="720" fill="white">1.454µs</text><text x="905" y="720" fill="white">907ns</text><text x="1105" y="720" fill="white">11.454µs</text><text x="5" y="750" fill="white">Day 23:</text><text x="105" y="750" fill="white">22.023329ms</text><text x="305" y="750" fill="white">19.555534ms</text><text x="505" y="750" fill="white">26.407477ms</text><text x="705" y="750" fill="white">79.415365ms</text><text x="905" y="750" fill="white">683.837327ms</text><text x="1105" y="750" fill="white">753.413067ms</text><text x="5" y="780" fill="white">Day 24:</text><text x="105" y="780" fill="white">1.333µs</text><text x="305" y="780" fill="white">907ns</text><text x="505" y="780" fill="white">9.359µs</text><text x="705" y="780" fill="white">1.177µs</text><text x="905" y="780" fill="white">908ns</text><text x="1105" y="780" fill="white">1.467µs</text><text x="5" y="810" fill="white">Day 25:</text><text x="105" y="810" fill="white">1.207µs</text><text x="305" y="810" fill="white">907ns</text><text x="505" y="810" fill="white">1.467µs</text><text x="705" y="810" fill="white">1.209µs</text><text x="905" y="810" fill="white">907ns</text><text x="1105" y="810" fill="white">3.353µs</text></svg>
