<svg height="830" width="1300" xmlns="http://www.w3.org/2000/svg"><rect width="100%" height="100%" fill="%230D1117" /><text x="10" y="30" fill="white">Year 2022</text><text x="305" y="30" fill="white">Part 1</text><text x="905" y="30" fill="white">Part 2</text><text x="105" y="60" fill="white">Average</text><text x="305" y="60" fill="white">Best</text><text x="505" y="60" fill="white">Worst</text><text x="705" y="60" fill="white">Average</text><text x="905" y="60" fill="white">Best</text><text x="1105" y="60" fill="white">Worst</text><text x="5" y="90" fill="white">Day 1:</text><text x="105" y="90" fill="white">28.269µs</text><text x="305" y="90" fill="white">26.26µs</text><text x="505" y="90" fill="white">54.126µs</text><text x="705" y="90" fill="white">39.527µs</text><text x="905" y="90" fill="white">37.085µs</text><text x="1105" y="90" fill="white">71.586µs</text><text x="5" y="120" fill="white">Day 2:</text><text x="105" y="120" fill="white">36.892µs</text><text x="305" y="120" fill="white">34.99µs</text><text x="505" y="120" fill="white">71.097µs</text><text x="705" y="120" fill="white">38.583µs</text><text x="905" y="120" fill="white">34.64µs</text><text x="1105" y="120" fill="white">70.049µs</text><text x="5" y="150" fill="white">Day 3:</text><text x="105" y="150" fill="white">41.396µs</text><text x="305" y="150" fill="white">38.482µs</text><text x="505" y="150" fill="white">84.576µs</text><text x="705" y="150" fill="white">38.362µs</text><text x="905" y="150" fill="white">36.457µs</text><text x="1105" y="150" fill="white">75.147µs</text><text x="5" y="180" fill="white">Day 4:</text><text x="105" y="180" fill="white">60.567µs</text><text x="305" y="180" fill="white">56.641µs</text><text x="505" y="180" fill="white">104.55µs</text><text x="705" y="180" fill="white">58.304µs</text><text x="905" y="180" fill="white">56.291µs</text><text x="1105" y="180" fill="white">82.132µs</text><text x="5" y="210" fill="white">Day 5:</text><text x="105" y="210" fill="white">112.206µs</text><text x="305" y="210" fill="white">100.569µs</text><text x="505" y="210" fill="white">247.513µs</text><text x="705" y="210" fill="white">109.257µs</text><text x="905" y="210" fill="white">97.637µs</text><text x="1105" y="210" fill="white">171.318µs</text><text x="5" y="240" fill="white">Day 6:</text><text x="105" y="240" fill="white">19.102µs</text><text x="305" y="240" fill="white">18.019µs</text><text x="505" y="240" fill="white">52.519µs</text><text x="705" y="240" fill="white">30.441µs</text><text x="905" y="240" fill="white">27.587µs</text><text x="1105" y="240" fill="white">71.516µs</text><text x="5" y="270" fill="white">Day 7:</text><text x="105" y="270" fill="white">272.229µs</text><text x="305" y="270" fill="white">255.266µs</text><text x="505" y="270" fill="white">353.041µs</text><text x="705" y="270" fill="white">272.922µs</text><text x="905" y="270" fill="white">262.25µs</text><text x="1105" y="270" fill="white">342.286µs</text><text x="5" y="300" fill="white">Day 8:</text><text x="105" y="300" fill="white">1.013351ms</text><text x="305" y="300" fill="white">989.145µs</text><text x="505" y="300" fill="white">1.193916ms</text><text x="705" y="300" fill="white">1.03973ms</text><text x="905" y="300" fill="white">987.748µs</text><text x="1105" y="300" fill="white">1.407068ms</text><text x="5" y="330" fill="white">Day 9:</text><text x="105" y="330" fill="white">452.927µs</text><text x="305" y="330" fill="white">429.167µs</text><text x="505" y="330" fill="white">662.503µs</text><text x="705" y="330" fill="white">544.809µs</text><text x="905" y="330" fill="white">528.131µs</text><text x="1105" y="330" fill="white">620.53µs</text><text x="5" y="360" fill="white">Day 10:</text><text x="105" y="360" fill="white">9.858µs</text><text x="305" y="360" fill="white">8.939µs</text><text x="505" y="360" fill="white">38.342µs</text><text x="705" y="360" fill="white">10.226µs</text><text x="905" y="360" fill="white">8.591µs</text><text x="1105" y="360" fill="white">25.771µs</text><text x="5" y="390" fill="white">Day 11:</text><text x="105" y="390" fill="white">18.058µs</text><text x="305" y="390" fill="white">16.342µs</text><text x="505" y="390" fill="white">42.393µs</text><text x="705" y="390" fill="white">8.808899ms</text><text x="905" y="390" fill="white">8.424948ms</text><text x="1105" y="390" fill="white">9.547697ms</text><text x="5" y="420" fill="white">Day 12:</text><text x="105" y="420" fill="white">2.448813ms</text><text x="305" y="420" fill="white">2.405921ms</text><text x="505" y="420" fill="white">2.69876ms</text><text x="705" y="420" fill="white">63.43016ms</text><text x="905" y="420" fill="white">573.586954ms</text><text x="1105" y="420" fill="white">581.987067ms</text><text x="5" y="450" fill="white">Day 13:</text><text x="105" y="450" fill="white">2.273606ms</text><text x="305" y="450" fill="white">2.18383ms</text><text x="505" y="450" fill="white">2.911284ms</text><text x="705" y="450" fill="white">4.513004ms</text><text x="905" y="450" fill="white">4.394758ms</text><text x="1105" y="450" fill="white">5.216707ms</text><text x="5" y="480" fill="white">Day 14:</text><text x="105" y="480" fill="white">234.671µs</text><text x="305" y="480" fill="white">225.584µs</text><text x="505" y="480" fill="white">311.487µs</text><text x="705" y="480" fill="white">8.256286ms</text><text x="905" y="480" fill="white">8.055217ms</text><text x="1105" y="480" fill="white">8.758508ms</text><text x="5" y="510" fill="white">Day 15:</text><text x="105" y="510" fill="white">10.299829ms</text><text x="305" y="510" fill="white">10.062422ms</text><text x="505" y="510" fill="white">14.187108ms</text><text x="705" y="510" fill="white">64.961306ms</text><text x="905" y="510" fill="white">578.934408ms</text><text x="1105" y="510" fill="white">627.699073ms</text><text x="5" y="540" fill="white">Day 16:</text><text x="105" y="540" fill="red">Missing, timeout or OOM!</text><text x="705" y="540" fill="red">Missing, timeout or OOM!</text><text x="5" y="570" fill="white">Day 17:</text><text x="105" y="570" fill="white">776.087µs</text><text x="305" y="570" fill="white">749.384µs</text><text x="505" y="570" fill="white">927.964µs</text><text x="705" y="570" fill="white">121.249µs</text><text x="905" y="570" fill="white">111.954µs</text><text x="1105" y="570" fill="white">212.244µs</text><text x="5" y="600" fill="white">Day 18:</text><text x="105" y="600" fill="white">1.249µs</text><text x="305" y="600" fill="white">908ns</text><text x="505" y="600" fill="white">1.886µs</text><text x="705" y="600" fill="white">1.17µs</text><text x="905" y="600" fill="white">907ns</text><text x="1105" y="600" fill="white">1.467µs</text><text x="5" y="630" fill="white">Day 19:</text><text x="105" y="630" fill="white">1.199µs</text><text x="305" y="630" fill="white">908ns</text><text x="505" y="630" fill="white">1.467µs</text><text x="705" y="630" fill="white">1.211µs</text><text x="905" y="630" fill="white">907ns</text><text x="1105" y="630" fill="white">1.467µs</text><text x="5" y="660" fill="white">Day 20:</text><text x="105" y="660" fill="white">1.213µs</text><text x="305" y="660" fill="white">907ns</text><text x="505" y="660" fill="white">1.886µs</text><text x="705" y="660" fill="white">1.199µs</text><text x="905" y="660" fill="white">907ns</text><text x="1105" y="660" fill="white">1.467µs</text><text x="5" y="690" fill="white">Day 21:</text><text x="105" y="690" fill="white">662.794µs</text><text x="305" y="690" fill="white">632.262µs</text><text x="505" y="690" fill="white">930.897µs</text><text x="705" y="690" fill="white">654.916µs</text><text x="905" y="690" fill="white">626.325µs</text><text x="1105" y="690" fill="white">792.195µs</text><text x="5" y="720" fill="white">Day 22:</text><text x="105" y="720" fill="white">453.138µs</text><text x="305" y="720" fill="white">422.742µs</text><text x="505" y="720" fill="white">628.769µs</text><text x="705" y="720" fill="white">1.28µs</text><text x="905" y="720" fill="white">908ns</text><text x="1105" y="720" fill="white">2.305µs</text><text x="5" y="750" fill="white">Day 23:</text><text x="105" y="750" fill="white">21.944754ms</text><text x="305" y="750" fill="white">19.521956ms</text><text x="505" y="750" fill="white">26.703396ms</text><text x="705" y="750" fill="white">77.71742ms</text><text x="905" y="750" fill="white">683.480685ms</text><text x="1105" y="750" fill="white">737.038662ms</text><text x="5" y="780" fill="white">Day 24:</text><text x="105" y="780" fill="white">1.374µs</text><text x="305" y="780" fill="white">907ns</text><text x="505" y="780" fill="white">12.851µs</text><text x="705" y="780" fill="white">1.25µs</text><text x="905" y="780" fill="white">907ns</text><text x="1105" y="780" fill="white">1.956µs</text><text x="5" y="810" fill="white">Day 25:</text><text x="105" y="810" fill="white">1.213µs</text><text x="305" y="810" fill="white">907ns</text><text x="505" y="810" fill="white">1.956µs</text><text x="705" y="810" fill="white">1.198µs</text><text x="905" y="810" fill="white">907ns</text><text x="1105" y="810" fill="white">1.467µs</text></svg>
