<svg height="830" width="1300" xmlns="http://www.w3.org/2000/svg"><rect width="100%" height="100%" fill="%230D1117" /><text x="10" y="30" fill="white">Year 2022</text><text x="305" y="30" fill="white">Part 1</text><text x="905" y="30" fill="white">Part 2</text><text x="105" y="60" fill="white">Average</text><text x="305" y="60" fill="white">Best</text><text x="505" y="60" fill="white">Worst</text><text x="705" y="60" fill="white">Average</text><text x="905" y="60" fill="white">Best</text><text x="1105" y="60" fill="white">Worst</text><text x="5" y="90" fill="white">Day 1:</text><text x="105" y="90" fill="white">28.427µs</text><text x="305" y="90" fill="white">27.101µs</text><text x="505" y="90" fill="white">54.831µs</text><text x="705" y="90" fill="white">39.723µs</text><text x="905" y="90" fill="white">38.277µs</text><text x="1105" y="90" fill="white">71.665µs</text><text x="5" y="120" fill="white">Day 2:</text><text x="105" y="120" fill="white">37.559µs</text><text x="305" y="120" fill="white">34.296µs</text><text x="505" y="120" fill="white">75.367µs</text><text x="705" y="120" fill="white">36.003µs</text><text x="905" y="120" fill="white">34.506µs</text><text x="1105" y="120" fill="white">57.137µs</text><text x="5" y="150" fill="white">Day 3:</text><text x="105" y="150" fill="white">42.156µs</text><text x="305" y="150" fill="white">39.045µs</text><text x="505" y="150" fill="white">87.8µs</text><text x="705" y="150" fill="white">40.895µs</text><text x="905" y="150" fill="white">35.484µs</text><text x="1105" y="150" fill="white">89.127µs</text><text x="5" y="180" fill="white">Day 4:</text><text x="105" y="180" fill="white">60.279µs</text><text x="305" y="180" fill="white">56.927µs</text><text x="505" y="180" fill="white">112.457µs</text><text x="705" y="180" fill="white">60.803µs</text><text x="905" y="180" fill="white">56.089µs</text><text x="1105" y="180" fill="white">98.836µs</text><text x="5" y="210" fill="white">Day 5:</text><text x="105" y="210" fill="white">112.185µs</text><text x="305" y="210" fill="white">99.046µs</text><text x="505" y="210" fill="white">169.593µs</text><text x="705" y="210" fill="white">109.806µs</text><text x="905" y="210" fill="white">98.767µs</text><text x="1105" y="210" fill="white">174.552µs</text><text x="5" y="240" fill="white">Day 6:</text><text x="105" y="240" fill="white">18.917µs</text><text x="305" y="240" fill="white">17.951µs</text><text x="505" y="240" fill="white">41.071µs</text><text x="705" y="240" fill="white">28.84µs</text><text x="905" y="240" fill="white">26.682µs</text><text x="1105" y="240" fill="white">52.317µs</text><text x="5" y="270" fill="white">Day 7:</text><text x="105" y="270" fill="white">273.463µs</text><text x="305" y="270" fill="white">262.004µs</text><text x="505" y="270" fill="white">373.483µs</text><text x="705" y="270" fill="white">279.283µs</text><text x="905" y="270" fill="white">259.489µs</text><text x="1105" y="270" fill="white">393.39µs</text><text x="5" y="300" fill="white">Day 8:</text><text x="105" y="300" fill="white">1.026918ms</text><text x="305" y="300" fill="white">1.005895ms</text><text x="505" y="300" fill="white">1.368062ms</text><text x="705" y="300" fill="white">1.014652ms</text><text x="905" y="300" fill="white">994.37µs</text><text x="1105" y="300" fill="white">1.199307ms</text><text x="5" y="330" fill="white">Day 9:</text><text x="105" y="330" fill="white">450.657µs</text><text x="305" y="330" fill="white">429.152µs</text><text x="505" y="330" fill="white">660.213µs</text><text x="705" y="330" fill="white">540.059µs</text><text x="905" y="330" fill="white">525.544µs</text><text x="1105" y="330" fill="white">684.31µs</text><text x="5" y="360" fill="white">Day 10:</text><text x="105" y="360" fill="white">9.346µs</text><text x="305" y="360" fill="white">7.963µs</text><text x="505" y="360" fill="white">33.876µs</text><text x="705" y="360" fill="white">10.159µs</text><text x="905" y="360" fill="white">8.94µs</text><text x="1105" y="360" fill="white">28.848µs</text><text x="5" y="390" fill="white">Day 11:</text><text x="105" y="390" fill="white">23.489µs</text><text x="305" y="390" fill="white">18.998µs</text><text x="505" y="390" fill="white">33.178µs</text><text x="705" y="390" fill="white">8.761435ms</text><text x="905" y="390" fill="white">8.497407ms</text><text x="1105" y="390" fill="white">9.389728ms</text><text x="5" y="420" fill="white">Day 12:</text><text x="105" y="420" fill="white">2.501516ms</text><text x="305" y="420" fill="white">2.439056ms</text><text x="505" y="420" fill="white">2.656916ms</text><text x="705" y="420" fill="white">62.893954ms</text><text x="905" y="420" fill="white">567.280896ms</text><text x="1105" y="420" fill="white">578.973983ms</text><text x="5" y="450" fill="white">Day 13:</text><text x="105" y="450" fill="white">2.233195ms</text><text x="305" y="450" fill="white">2.174256ms</text><text x="505" y="450" fill="white">2.702732ms</text><text x="705" y="450" fill="white">4.452408ms</text><text x="905" y="450" fill="white">4.38637ms</text><text x="1105" y="450" fill="white">4.920853ms</text><text x="5" y="480" fill="white">Day 14:</text><text x="105" y="480" fill="white">236.553µs</text><text x="305" y="480" fill="white">224.494µs</text><text x="505" y="480" fill="white">333.598µs</text><text x="705" y="480" fill="white">8.214917ms</text><text x="905" y="480" fill="white">8.056717ms</text><text x="1105" y="480" fill="white">10.468319ms</text><text x="5" y="510" fill="white">Day 15:</text><text x="105" y="510" fill="white">10.227981ms</text><text x="305" y="510" fill="white">10.072133ms</text><text x="505" y="510" fill="white">14.170656ms</text><text x="705" y="510" fill="white">63.193307ms</text><text x="905" y="510" fill="white">572.675054ms</text><text x="1105" y="510" fill="white">578.654609ms</text><text x="5" y="540" fill="white">Day 16:</text><text x="105" y="540" fill="red">Missing, timeout or OOM!</text><text x="705" y="540" fill="red">Missing, timeout or OOM!</text><text x="5" y="570" fill="white">Day 17:</text><text x="105" y="570" fill="white">800.993µs</text><text x="305" y="570" fill="white">758.455µs</text><text x="505" y="570" fill="white">985.524µs</text><text x="705" y="570" fill="white">119.57µs</text><text x="905" y="570" fill="white">108.82µs</text><text x="1105" y="570" fill="white">183.415µs</text><text x="5" y="600" fill="white">Day 18:</text><text x="105" y="600" fill="white">1.213µs</text><text x="305" y="600" fill="white">908ns</text><text x="505" y="600" fill="white">1.886µs</text><text x="705" y="600" fill="white">1.215µs</text><text x="905" y="600" fill="white">908ns</text><text x="1105" y="600" fill="white">1.886µs</text><text x="5" y="630" fill="white">Day 19:</text><text x="105" y="630" fill="white">1.274µs</text><text x="305" y="630" fill="white">908ns</text><text x="505" y="630" fill="white">2.374µs</text><text x="705" y="630" fill="white">1.208µs</text><text x="905" y="630" fill="white">908ns</text><text x="1105" y="630" fill="white">1.886µs</text><text x="5" y="660" fill="white">Day 20:</text><text x="105" y="660" fill="white">1.225µs</text><text x="305" y="660" fill="white">908ns</text><text x="505" y="660" fill="white">2.305µs</text><text x="705" y="660" fill="white">1.227µs</text><text x="905" y="660" fill="white">908ns</text><text x="1105" y="660" fill="white">4.401µs</text><text x="5" y="690" fill="white">Day 21:</text><text x="105" y="690" fill="white">674.053µs</text><text x="305" y="690" fill="white">638.601µs</text><text x="505" y="690" fill="white">928.181µs</text><text x="705" y="690" fill="white">659.245µs</text><text x="905" y="690" fill="white">624.143µs</text><text x="1105" y="690" fill="white">856.17µs</text><text x="5" y="720" fill="white">Day 22:</text><text x="105" y="720" fill="white">436.765µs</text><text x="305" y="720" fill="white">415.373µs</text><text x="505" y="720" fill="white">643.909µs</text><text x="705" y="720" fill="white">1.218µs</text><text x="905" y="720" fill="white">908ns</text><text x="1105" y="720" fill="white">1.955µs</text><text x="5" y="750" fill="white">Day 23:</text><text x="105" y="750" fill="white">21.329647ms</text><text x="305" y="750" fill="white">19.633793ms</text><text x="505" y="750" fill="white">25.014082ms</text><text x="705" y="750" fill="white">76.10708ms</text><text x="905" y="750" fill="white">686.051572ms</text><text x="1105" y="750" fill="white">697.947876ms</text><text x="5" y="780" fill="white">Day 24:</text><text x="105" y="780" fill="white">1.239µs</text><text x="305" y="780" fill="white">908ns</text><text x="505" y="780" fill="white">1.467µs</text><text x="705" y="780" fill="white">1.193µs</text><text x="905" y="780" fill="white">908ns</text><text x="1105" y="780" fill="white">1.886µs</text><text x="5" y="810" fill="white">Day 25:</text><text x="105" y="810" fill="white">1.382µs</text><text x="305" y="810" fill="white">908ns</text><text x="505" y="810" fill="white">9.429µs</text><text x="705" y="810" fill="white">1.202µs</text><text x="905" y="810" fill="white">908ns</text><text x="1105" y="810" fill="white">1.467µs</text></svg>
