<svg height="830" width="1300" xmlns="http://www.w3.org/2000/svg"><rect width="100%" height="100%" fill="%230D1117" /><text x="10" y="30" fill="white">Year 2022</text><text x="305" y="30" fill="white">Part 1</text><text x="905" y="30" fill="white">Part 2</text><text x="105" y="60" fill="white">Average</text><text x="305" y="60" fill="white">Best</text><text x="505" y="60" fill="white">Worst</text><text x="705" y="60" fill="white">Average</text><text x="905" y="60" fill="white">Best</text><text x="1105" y="60" fill="white">Worst</text><text x="5" y="90" fill="white">Day 1:</text><text x="105" y="90" fill="white">27.823µs</text><text x="305" y="90" fill="white">54.342µs</text><text x="505" y="90" fill="white">26.821µs</text><text x="705" y="90" fill="white">41.313µs</text><text x="905" y="90" fill="white">79.766µs</text><text x="1105" y="90" fill="white">37.159µs</text><text x="5" y="120" fill="white">Day 2:</text><text x="105" y="120" fill="white">40.026µs</text><text x="305" y="120" fill="white">119.72µs</text><text x="505" y="120" fill="white">34.784µs</text><text x="705" y="120" fill="white">36.274µs</text><text x="905" y="120" fill="white">56.926µs</text><text x="1105" y="120" fill="white">34.645µs</text><text x="5" y="150" fill="white">Day 3:</text><text x="105" y="150" fill="white">41.064µs</text><text x="305" y="150" fill="white">89.684µs</text><text x="505" y="150" fill="white">39.115µs</text><text x="705" y="150" fill="white">40.423µs</text><text x="905" y="150" fill="white">95.273µs</text><text x="1105" y="150" fill="white">35.273µs</text><text x="5" y="180" fill="white">Day 4:</text><text x="105" y="180" fill="white">59.202µs</text><text x="305" y="180" fill="white">101.698µs</text><text x="505" y="180" fill="white">56.926µs</text><text x="705" y="180" fill="white">60.654µs</text><text x="905" y="180" fill="white">100.93µs</text><text x="1105" y="180" fill="white">56.647µs</text><text x="5" y="210" fill="white">Day 5:</text><text x="105" y="210" fill="white">110.702µs</text><text x="305" y="210" fill="white">155.551µs</text><text x="505" y="210" fill="white">101.419µs</text><text x="705" y="210" fill="white">107.068µs</text><text x="905" y="210" fill="white">132.71µs</text><text x="1105" y="210" fill="white">98.486µs</text><text x="5" y="240" fill="white">Day 6:</text><text x="105" y="240" fill="white">19.356µs</text><text x="305" y="240" fill="white">48.614µs</text><text x="505" y="240" fill="white">18.091µs</text><text x="705" y="240" fill="white">30.954µs</text><text x="905" y="240" fill="white">61.536µs</text><text x="1105" y="240" fill="white">28.358µs</text><text x="5" y="270" fill="white">Day 7:</text><text x="105" y="270" fill="white">277.656µs</text><text x="305" y="270" fill="white">365.304µs</text><text x="505" y="270" fill="white">264.304µs</text><text x="705" y="270" fill="white">275.496µs</text><text x="905" y="270" fill="white">401.346µs</text><text x="1105" y="270" fill="white">263.117µs</text><text x="5" y="300" fill="white">Day 8:</text><text x="105" y="300" fill="white">1.008434ms</text><text x="305" y="300" fill="white">1.331787ms</text><text x="505" y="300" fill="white">974.027µs</text><text x="705" y="300" fill="white">1.011496ms</text><text x="905" y="300" fill="white">1.236026ms</text><text x="1105" y="300" fill="white">966.414µs</text><text x="5" y="330" fill="white">Day 9:</text><text x="105" y="330" fill="white">457.739µs</text><text x="305" y="330" fill="white">595.592µs</text><text x="505" y="330" fill="white">436.968µs</text><text x="705" y="330" fill="white">540.935µs</text><text x="905" y="330" fill="white">694.985µs</text><text x="1105" y="330" fill="white">524.417µs</text><text x="5" y="360" fill="white">Day 10:</text><text x="105" y="360" fill="white">9.537µs</text><text x="305" y="360" fill="white">35.343µs</text><text x="505" y="360" fill="white">8.661µs</text><text x="705" y="360" fill="white">10.368µs</text><text x="905" y="360" fill="white">25.355µs</text><text x="1105" y="360" fill="white">9.569µs</text><text x="5" y="390" fill="white">Day 11:</text><text x="105" y="390" fill="white">18.071µs</text><text x="305" y="390" fill="white">39.884µs</text><text x="505" y="390" fill="white">17.042µs</text><text x="705" y="390" fill="white">9.479211ms</text><text x="905" y="390" fill="white">9.694031ms</text><text x="1105" y="390" fill="white">8.798443ms</text><text x="5" y="420" fill="white">Day 12:</text><text x="105" y="420" fill="white">2.47536ms</text><text x="305" y="420" fill="white">2.761431ms</text><text x="505" y="420" fill="white">2.402763ms</text><text x="705" y="420" fill="white">63.861979ms</text><text x="905" y="420" fill="white">584.046102ms</text><text x="1105" y="420" fill="white">578.383162ms</text><text x="5" y="450" fill="white">Day 13:</text><text x="105" y="450" fill="white">2.249376ms</text><text x="305" y="450" fill="white">2.562152ms</text><text x="505" y="450" fill="white">2.196011ms</text><text x="705" y="450" fill="white">4.80863ms</text><text x="905" y="450" fill="white">5.033293ms</text><text x="1105" y="450" fill="white">4.722052ms</text><text x="5" y="480" fill="white">Day 14:</text><text x="105" y="480" fill="white">238.758µs</text><text x="305" y="480" fill="white">360.135µs</text><text x="505" y="480" fill="white">227.354µs</text><text x="705" y="480" fill="white">8.180449ms</text><text x="905" y="480" fill="white">8.51457ms</text><text x="1105" y="480" fill="white">8.027172ms</text><text x="5" y="510" fill="white">Day 15:</text><text x="105" y="510" fill="white">10.298045ms</text><text x="305" y="510" fill="white">13.595567ms</text><text x="505" y="510" fill="white">10.08139ms</text><text x="705" y="510" fill="white">63.248989ms</text><text x="905" y="510" fill="white">577.055433ms</text><text x="1105" y="510" fill="white">571.730771ms</text><text x="5" y="540" fill="white">Day 16:</text><text x="105" y="540" fill="red">Missing, timeout or OOM!</text><text x="705" y="540" fill="red">Missing, timeout or OOM!</text><text x="5" y="570" fill="white">Day 17:</text><text x="105" y="570" fill="white">786.583µs</text><text x="305" y="570" fill="white">970.063µs</text><text x="505" y="570" fill="white">758.94µs</text><text x="705" y="570" fill="white">120.065µs</text><text x="905" y="570" fill="white">167.893µs</text><text x="1105" y="570" fill="white">113.139µs</text><text x="5" y="600" fill="white">Day 18:</text><text x="105" y="600" fill="white">1.317µs</text><text x="305" y="600" fill="white">2.375µs</text><text x="505" y="600" fill="white">908ns</text><text x="705" y="600" fill="white">1.197µs</text><text x="905" y="600" fill="white">1.886µs</text><text x="1105" y="600" fill="white">907ns</text><text x="5" y="630" fill="white">Day 19:</text><text x="105" y="630" fill="white">1.18µs</text><text x="305" y="630" fill="white">1.886µs</text><text x="505" y="630" fill="white">907ns</text><text x="705" y="630" fill="white">1.176µs</text><text x="905" y="630" fill="white">1.885µs</text><text x="1105" y="630" fill="white">908ns</text><text x="5" y="660" fill="white">Day 20:</text><text x="105" y="660" fill="white">1.247µs</text><text x="305" y="660" fill="white">2.864µs</text><text x="505" y="660" fill="white">907ns</text><text x="705" y="660" fill="white">1.212µs</text><text x="905" y="660" fill="white">1.886µs</text><text x="1105" y="660" fill="white">907ns</text><text x="5" y="690" fill="white">Day 21:</text><text x="105" y="690" fill="white">669.196µs</text><text x="305" y="690" fill="white">825.497µs</text><text x="505" y="690" fill="white">637.769µs</text><text x="705" y="690" fill="white">661.917µs</text><text x="905" y="690" fill="white">823.541µs</text><text x="1105" y="690" fill="white">627.503µs</text><text x="5" y="720" fill="white">Day 22:</text><text x="105" y="720" fill="white">440.535µs</text><text x="305" y="720" fill="white">564.159µs</text><text x="505" y="720" fill="white">421.269µs</text><text x="705" y="720" fill="white">1.355µs</text><text x="905" y="720" fill="white">14.247µs</text><text x="1105" y="720" fill="white">907ns</text><text x="5" y="750" fill="white">Day 23:</text><text x="105" y="750" fill="white">20.068266ms</text><text x="305" y="750" fill="white">22.742784ms</text><text x="505" y="750" fill="white">19.279959ms</text><text x="705" y="750" fill="white">75.814917ms</text><text x="905" y="750" fill="white">696.347686ms</text><text x="1105" y="750" fill="white">680.085428ms</text><text x="5" y="780" fill="white">Day 24:</text><text x="105" y="780" fill="white">1.287µs</text><text x="305" y="780" fill="white">2.374µs</text><text x="505" y="780" fill="white">907ns</text><text x="705" y="780" fill="white">1.218µs</text><text x="905" y="780" fill="white">1.886µs</text><text x="1105" y="780" fill="white">907ns</text><text x="5" y="810" fill="white">Day 25:</text><text x="105" y="810" fill="white">1.236µs</text><text x="305" y="810" fill="white">5.796µs</text><text x="505" y="810" fill="white">908ns</text><text x="705" y="810" fill="white">1.18µs</text><text x="905" y="810" fill="white">1.467µs</text><text x="1105" y="810" fill="white">907ns</text></svg>
