<svg height="830" width="1300" xmlns="http://www.w3.org/2000/svg"><rect width="100%" height="100%" fill="%230D1117" /><text x="10" y="30" fill="white">Year 2023</text><text x="305" y="30" fill="white">Part 1</text><text x="905" y="30" fill="white">Part 2</text><text x="105" y="60" fill="white">Average</text><text x="305" y="60" fill="white">Best</text><text x="505" y="60" fill="white">Worst</text><text x="705" y="60" fill="white">Average</text><text x="905" y="60" fill="white">Best</text><text x="1105" y="60" fill="white">Worst</text><text x="5" y="90" fill="white">Day 1:</text><text x="105" y="90" fill="white">80.077µs</text><text x="305" y="90" fill="white">70.191µs</text><text x="505" y="90" fill="white">796.683µs</text><text x="705" y="90" fill="white">331.798µs</text><text x="905" y="90" fill="white">312.471µs</text><text x="1105" y="90" fill="white">440.351µs</text><text x="5" y="120" fill="white">Day 2:</text><text x="105" y="120" fill="white">85.342µs</text><text x="305" y="120" fill="white">74.731µs</text><text x="505" y="120" fill="white">452.015µs</text><text x="705" y="120" fill="white">98.765µs</text><text x="905" y="120" fill="white">94.425µs</text><text x="1105" y="120" fill="white">185.429µs</text><text x="5" y="150" fill="white">Day 3:</text><text x="105" y="150" fill="white">292.298µs</text><text x="305" y="150" fill="white">275.246µs</text><text x="505" y="150" fill="white">834.676µs</text><text x="705" y="150" fill="white">297.68µs</text><text x="905" y="150" fill="white">277.759µs</text><text x="1105" y="150" fill="white">595.818µs</text><text x="5" y="180" fill="white">Day 4:</text><text x="105" y="180" fill="white">110.333µs</text><text x="305" y="180" fill="white">94.426µs</text><text x="505" y="180" fill="white">394.046µs</text><text x="705" y="180" fill="white">143.951µs</text><text x="905" y="180" fill="white">128.508µs</text><text x="1105" y="180" fill="white">234.039µs</text><text x="5" y="210" fill="white">Day 5:</text><text x="105" y="210" fill="white">29.819µs</text><text x="305" y="210" fill="white">24.444µs</text><text x="505" y="210" fill="white">293.404µs</text><text x="705" y="210" fill="white">469.883µs</text><text x="905" y="210" fill="white">438.186µs</text><text x="1105" y="210" fill="white">710.148µs</text><text x="5" y="240" fill="white">Day 6:</text><text x="105" y="240" fill="white">7.194µs</text><text x="305" y="240" fill="white">5.168µs</text><text x="505" y="240" fill="white">163.429µs</text><text x="705" y="240" fill="white">25.474539ms</text><text x="905" y="240" fill="white">24.943136ms</text><text x="1105" y="240" fill="white">27.077564ms</text><text x="5" y="270" fill="white">Day 7:</text><text x="105" y="270" fill="white">855.289µs</text><text x="305" y="270" fill="white">824.829µs</text><text x="505" y="270" fill="white">1.191846ms</text><text x="705" y="270" fill="white">2.969651ms</text><text x="905" y="270" fill="white">2.915675ms</text><text x="1105" y="270" fill="white">3.279479ms</text><text x="5" y="300" fill="white">Day 8:</text><text x="105" y="300" fill="white">504.281µs</text><text x="305" y="300" fill="white">478.833µs</text><text x="505" y="300" fill="white">815.68µs</text><text x="705" y="300" fill="white">2.040404ms</text><text x="905" y="300" fill="white">1.959684ms</text><text x="1105" y="300" fill="white">2.623178ms</text><text x="5" y="330" fill="white">Day 9:</text><text x="105" y="330" fill="white">354.669µs</text><text x="305" y="330" fill="white">339.71µs</text><text x="505" y="330" fill="white">645.336µs</text><text x="705" y="330" fill="white">350.361µs</text><text x="905" y="330" fill="white">336.287µs</text><text x="1105" y="330" fill="white">417.792µs</text><text x="5" y="360" fill="white">Day 10:</text><text x="105" y="360" fill="white">4.618828ms</text><text x="305" y="360" fill="white">4.24462ms</text><text x="505" y="360" fill="white">6.022855ms</text><text x="705" y="360" fill="white">3.00188ms</text><text x="905" y="360" fill="white">2.871325ms</text><text x="1105" y="360" fill="white">4.615548ms</text><text x="5" y="390" fill="white">Day 11:</text><text x="105" y="390" fill="white">770.108µs</text><text x="305" y="390" fill="white">731.381µs</text><text x="505" y="390" fill="white">1.171941ms</text><text x="705" y="390" fill="white">783.671µs</text><text x="905" y="390" fill="white">740.67µs</text><text x="1105" y="390" fill="white">1.07109ms</text><text x="5" y="420" fill="white">Day 12:</text><text x="105" y="420" fill="white">613.779µs</text><text x="305" y="420" fill="white">370.37µs</text><text x="505" y="420" fill="white">19.589504ms</text><text x="705" y="420" fill="white">8.585755ms</text><text x="905" y="420" fill="white">1.012702ms</text><text x="1105" y="420" fill="white">847.702154ms</text><text x="5" y="450" fill="white">Day 13:</text><text x="105" y="450" fill="white">250.39µs</text><text x="305" y="450" fill="white">230.757µs</text><text x="505" y="450" fill="white">491.684µs</text><text x="705" y="450" fill="white">264.539µs</text><text x="905" y="450" fill="white">242.979µs</text><text x="1105" y="450" fill="white">361.919µs</text><text x="5" y="480" fill="white">Day 14:</text><text x="105" y="480" fill="white">319.37µs</text><text x="305" y="480" fill="white">304.928µs</text><text x="505" y="480" fill="white">723.489µs</text><text x="705" y="480" fill="white">252.030538ms</text><text x="905" y="480" fill="white">248.609417ms</text><text x="1105" y="480" fill="white">264.800841ms</text><text x="5" y="510" fill="white">Day 15:</text><text x="105" y="510" fill="white">72.947µs</text><text x="305" y="510" fill="white">64.674µs</text><text x="505" y="510" fill="white">309.468µs</text><text x="705" y="510" fill="white">261.071µs</text><text x="905" y="510" fill="white">248.217µs</text><text x="1105" y="510" fill="white">412.833µs</text><text x="5" y="540" fill="white">Day 16:</text><text x="105" y="540" fill="white">1.340339ms</text><text x="305" y="540" fill="white">1.286132ms</text><text x="505" y="540" fill="white">1.914287ms</text><text x="705" y="540" fill="white">41.399615ms</text><text x="905" y="540" fill="white">37.065677ms</text><text x="1105" y="540" fill="white">49.506413ms</text><text x="5" y="570" fill="white">Day 17:</text><text x="105" y="570" fill="white">63.825993ms</text><text x="305" y="570" fill="white">58.228506ms</text><text x="505" y="570" fill="white">76.99912ms</text><text x="705" y="570" fill="white">48.479379ms</text><text x="905" y="570" fill="white">406.229612ms</text><text x="1105" y="570" fill="white">513.141028ms</text><text x="5" y="600" fill="white">Day 18:</text><text x="105" y="600" fill="white">27.901µs</text><text x="305" y="600" fill="white">23.606µs</text><text x="505" y="600" fill="white">276.782µs</text><text x="705" y="600" fill="white">55.54µs</text><text x="905" y="600" fill="white">53.429µs</text><text x="1105" y="600" fill="white">86.673µs</text><text x="5" y="630" fill="white">Day 19:</text><text x="105" y="630" fill="white">274.051µs</text><text x="305" y="630" fill="white">250.033µs</text><text x="505" y="630" fill="white">748.841µs</text><text x="705" y="630" fill="white">95.521793ms</text><text x="905" y="630" fill="white">92.396534ms</text><text x="1105" y="630" fill="white">100.175066ms</text><text x="5" y="660" fill="white">Day 20:</text><text x="105" y="660" fill="white">5.737435ms</text><text x="305" y="660" fill="white">5.601781ms</text><text x="505" y="660" fill="white">6.240623ms</text><text x="705" y="660" fill="white">26.373059ms</text><text x="905" y="660" fill="white">25.64526ms</text><text x="1105" y="660" fill="white">28.039359ms</text><text x="5" y="690" fill="white">Day 21:</text><text x="105" y="690" fill="white">2.557983ms</text><text x="305" y="690" fill="white">2.475744ms</text><text x="505" y="690" fill="white">2.995924ms</text><text x="705" y="690" fill="white">1.22µs</text><text x="905" y="690" fill="white">907ns</text><text x="1105" y="690" fill="white">5.308µs</text><text x="5" y="720" fill="white">Day 22:</text><text x="105" y="720" fill="white">770.537862ms</text><text x="305" y="720" fill="white">6.990399142s</text><text x="505" y="720" fill="white">7.026567901s</text><text x="705" y="720" fill="red">Missing, timeout or OOM!</text><text x="5" y="750" fill="white">Day 23:</text><text x="105" y="750" fill="white">18.388458ms</text><text x="305" y="750" fill="white">17.681234ms</text><text x="505" y="750" fill="white">20.139449ms</text><text x="705" y="750" fill="red">Missing, timeout or OOM!</text><text x="5" y="780" fill="white">Day 24:</text><text x="105" y="780" fill="red">Missing, timeout or OOM!</text><text x="705" y="780" fill="red">Missing, timeout or OOM!</text><text x="5" y="810" fill="white">Day 25:</text><text x="105" y="810" fill="red">Missing, timeout or OOM!</text><text x="705" y="810" fill="white">1.201µs</text><text x="905" y="810" fill="white">908ns</text><text x="1105" y="810" fill="white">1.467µs</text></svg>
