<svg height="830" width="1300" xmlns="http://www.w3.org/2000/svg"><rect width="100%" height="100%" fill="%230D1117" /><text x="10" y="30" fill="white">Year 2023</text><text x="305" y="30" fill="white">Part 1</text><text x="905" y="30" fill="white">Part 2</text><text x="105" y="60" fill="white">Average</text><text x="305" y="60" fill="white">Best</text><text x="505" y="60" fill="white">Worst</text><text x="705" y="60" fill="white">Average</text><text x="905" y="60" fill="white">Best</text><text x="1105" y="60" fill="white">Worst</text><text x="5" y="90" fill="white">Day 1:</text><text x="105" y="90" fill="white">72.974µs</text><text x="305" y="90" fill="white">69.074µs</text><text x="505" y="90" fill="white">112.098µs</text><text x="705" y="90" fill="white">327.66µs</text><text x="905" y="90" fill="white">310.66µs</text><text x="1105" y="90" fill="white">550.64µs</text><text x="5" y="120" fill="white">Day 2:</text><text x="105" y="120" fill="white">84.697µs</text><text x="305" y="120" fill="white">75.849µs</text><text x="505" y="120" fill="white">175.585µs</text><text x="705" y="120" fill="white">97.877µs</text><text x="905" y="120" fill="white">92.751µs</text><text x="1105" y="120" fill="white">176.771µs</text><text x="5" y="150" fill="white">Day 3:</text><text x="105" y="150" fill="white">292.139µs</text><text x="305" y="150" fill="white">272.596µs</text><text x="505" y="150" fill="white">574.945µs</text><text x="705" y="150" fill="white">291.489µs</text><text x="905" y="150" fill="white">277.066µs</text><text x="1105" y="150" fill="white">557.415µs</text><text x="5" y="180" fill="white">Day 4:</text><text x="105" y="180" fill="white">105.236µs</text><text x="305" y="180" fill="white">94.288µs</text><text x="505" y="180" fill="white">172.023µs</text><text x="705" y="180" fill="white">137.641µs</text><text x="905" y="180" fill="white">126.416µs</text><text x="1105" y="180" fill="white">234.322µs</text><text x="5" y="210" fill="white">Day 5:</text><text x="105" y="210" fill="white">27.362µs</text><text x="305" y="210" fill="white">24.235µs</text><text x="505" y="210" fill="white">63.487µs</text><text x="705" y="210" fill="white">462.332µs</text><text x="905" y="210" fill="white">427.298µs</text><text x="1105" y="210" fill="white">846.354µs</text><text x="5" y="240" fill="white">Day 6:</text><text x="105" y="240" fill="white">6.968µs</text><text x="305" y="240" fill="white">6.146µs</text><text x="505" y="240" fill="white">33.385µs</text><text x="705" y="240" fill="white">25.192311ms</text><text x="905" y="240" fill="white">24.917281ms</text><text x="1105" y="240" fill="white">26.219359ms</text><text x="5" y="270" fill="white">Day 7:</text><text x="105" y="270" fill="white">843.626µs</text><text x="305" y="270" fill="white">820.511µs</text><text x="505" y="270" fill="white">915.707µs</text><text x="705" y="270" fill="white">3.0406ms</text><text x="905" y="270" fill="white">2.977253ms</text><text x="1105" y="270" fill="white">3.685947ms</text><text x="5" y="300" fill="white">Day 8:</text><text x="105" y="300" fill="white">500.556µs</text><text x="305" y="300" fill="white">480.727µs</text><text x="505" y="300" fill="white">613.917µs</text><text x="705" y="300" fill="white">1.992404ms</text><text x="905" y="300" fill="white">1.955106ms</text><text x="1105" y="300" fill="white">2.133065ms</text><text x="5" y="330" fill="white">Day 9:</text><text x="105" y="330" fill="white">349.583µs</text><text x="305" y="330" fill="white">335.734µs</text><text x="505" y="330" fill="white">475.908µs</text><text x="705" y="330" fill="white">351.027µs</text><text x="905" y="330" fill="white">338.108µs</text><text x="1105" y="330" fill="white">432.117µs</text><text x="5" y="360" fill="white">Day 10:</text><text x="105" y="360" fill="white">4.768032ms</text><text x="305" y="360" fill="white">4.38158ms</text><text x="505" y="360" fill="white">6.174721ms</text><text x="705" y="360" fill="white">2.997718ms</text><text x="905" y="360" fill="white">2.888972ms</text><text x="1105" y="360" fill="white">4.616252ms</text><text x="5" y="390" fill="white">Day 11:</text><text x="105" y="390" fill="white">761.812µs</text><text x="305" y="390" fill="white">736.491µs</text><text x="505" y="390" fill="white">833.433µs</text><text x="705" y="390" fill="white">772.807µs</text><text x="905" y="390" fill="white">744.383µs</text><text x="1105" y="390" fill="white">1.045126ms</text><text x="5" y="420" fill="white">Day 12:</text><text x="105" y="420" fill="white">561.328µs</text><text x="305" y="420" fill="white">373.309µs</text><text x="505" y="420" fill="white">17.7172ms</text><text x="705" y="420" fill="white">8.544725ms</text><text x="905" y="420" fill="white">1.014604ms</text><text x="1105" y="420" fill="white">843.4868ms</text><text x="5" y="450" fill="white">Day 13:</text><text x="105" y="450" fill="white">254.485µs</text><text x="305" y="450" fill="white">223.776µs</text><text x="505" y="450" fill="white">376.103µs</text><text x="705" y="450" fill="white">261.195µs</text><text x="905" y="450" fill="white">247.731µs</text><text x="1105" y="450" fill="white">333.15µs</text><text x="5" y="480" fill="white">Day 14:</text><text x="105" y="480" fill="white">318.866µs</text><text x="305" y="480" fill="white">302.698µs</text><text x="505" y="480" fill="white">450.625µs</text><text x="705" y="480" fill="white">251.260332ms</text><text x="905" y="480" fill="white">248.235704ms</text><text x="1105" y="480" fill="white">258.302621ms</text><text x="5" y="510" fill="white">Day 15:</text><text x="105" y="510" fill="white">70.702µs</text><text x="305" y="510" fill="white">65.163µs</text><text x="505" y="510" fill="white">117.265µs</text><text x="705" y="510" fill="white">265.645µs</text><text x="905" y="510" fill="white">245.427µs</text><text x="1105" y="510" fill="white">422.967µs</text><text x="5" y="540" fill="white">Day 16:</text><text x="105" y="540" fill="white">1.332714ms</text><text x="305" y="540" fill="white">1.283917ms</text><text x="505" y="540" fill="white">1.771559ms</text><text x="705" y="540" fill="white">40.561686ms</text><text x="905" y="540" fill="white">37.033861ms</text><text x="1105" y="540" fill="white">46.274604ms</text><text x="5" y="570" fill="white">Day 17:</text><text x="105" y="570" fill="white">64.504168ms</text><text x="305" y="570" fill="white">60.637045ms</text><text x="505" y="570" fill="white">85.678085ms</text><text x="705" y="570" fill="white">456.178285ms</text><text x="905" y="570" fill="white">411.1831ms</text><text x="1105" y="570" fill="white">498.892611ms</text><text x="5" y="600" fill="white">Day 18:</text><text x="105" y="600" fill="white">25.229µs</text><text x="305" y="600" fill="white">23.607µs</text><text x="505" y="600" fill="white">86.605µs</text><text x="705" y="600" fill="white">56.608µs</text><text x="905" y="600" fill="white">53.988µs</text><text x="1105" y="600" fill="white">99.735µs</text><text x="5" y="630" fill="white">Day 19:</text><text x="105" y="630" fill="white">267.355µs</text><text x="305" y="630" fill="white">250.596µs</text><text x="505" y="630" fill="white">429.672µs</text><text x="705" y="630" fill="white">95.671889ms</text><text x="905" y="630" fill="white">93.0709ms</text><text x="1105" y="630" fill="white">98.741986ms</text><text x="5" y="660" fill="white">Day 20:</text><text x="105" y="660" fill="white">5.890039ms</text><text x="305" y="660" fill="white">5.73003ms</text><text x="505" y="660" fill="white">6.53329ms</text><text x="705" y="660" fill="white">26.416385ms</text><text x="905" y="660" fill="white">25.802942ms</text><text x="1105" y="660" fill="white">27.416446ms</text><text x="5" y="690" fill="white">Day 21:</text><text x="105" y="690" fill="white">2.520368ms</text><text x="305" y="690" fill="white">2.444632ms</text><text x="505" y="690" fill="white">2.860615ms</text><text x="705" y="690" fill="white">1.303µs</text><text x="905" y="690" fill="white">908ns</text><text x="1105" y="690" fill="white">5.308µs</text><text x="5" y="720" fill="white">Day 22:</text><text x="105" y="720" fill="white">767.905746ms</text><text x="305" y="720" fill="white">6.968658829s</text><text x="505" y="720" fill="white">6.991330557s</text><text x="705" y="720" fill="red">Missing, timeout or OOM!</text><text x="5" y="750" fill="white">Day 23:</text><text x="105" y="750" fill="white">18.153197ms</text><text x="305" y="750" fill="white">17.86036ms</text><text x="505" y="750" fill="white">18.969252ms</text><text x="705" y="750" fill="red">Missing, timeout or OOM!</text><text x="5" y="780" fill="white">Day 24:</text><text x="105" y="780" fill="red">Missing, timeout or OOM!</text><text x="705" y="780" fill="red">Missing, timeout or OOM!</text><text x="5" y="810" fill="white">Day 25:</text><text x="105" y="810" fill="red">Missing, timeout or OOM!</text><text x="705" y="810" fill="white">1.201µs</text><text x="905" y="810" fill="white">908ns</text><text x="1105" y="810" fill="white">1.956µs</text></svg>
