<svg height="830" width="1300" xmlns="http://www.w3.org/2000/svg"><rect width="100%" height="100%" fill="%230D1117" /><text x="10" y="30" fill="white">Year 2023</text><text x="305" y="30" fill="white">Part 1</text><text x="905" y="30" fill="white">Part 2</text><text x="105" y="60" fill="white">Average</text><text x="305" y="60" fill="white">Best</text><text x="505" y="60" fill="white">Worst</text><text x="705" y="60" fill="white">Average</text><text x="905" y="60" fill="white">Best</text><text x="1105" y="60" fill="white">Worst</text><text x="5" y="90" fill="white">Day 1:</text><text x="105" y="90" fill="white">72.741µs</text><text x="305" y="90" fill="white">69.56µs</text><text x="505" y="90" fill="white">113.559µs</text><text x="705" y="90" fill="white">336.053µs</text><text x="905" y="90" fill="white">313.231µs</text><text x="1105" y="90" fill="white">556.691µs</text><text x="5" y="120" fill="white">Day 2:</text><text x="105" y="120" fill="white">85.207µs</text><text x="305" y="120" fill="white">77.871µs</text><text x="505" y="120" fill="white">195.899µs</text><text x="705" y="120" fill="white">103.603µs</text><text x="905" y="120" fill="white">93.934µs</text><text x="1105" y="120" fill="white">200.299µs</text><text x="5" y="150" fill="white">Day 3:</text><text x="105" y="150" fill="white">300.042µs</text><text x="305" y="150" fill="white">278.031µs</text><text x="505" y="150" fill="white">615.775µs</text><text x="705" y="150" fill="white">303.064µs</text><text x="905" y="150" fill="white">283.339µs</text><text x="1105" y="150" fill="white">692.249µs</text><text x="5" y="180" fill="white">Day 4:</text><text x="105" y="180" fill="white">103.896µs</text><text x="305" y="180" fill="white">94.911µs</text><text x="505" y="180" fill="white">179.558µs</text><text x="705" y="180" fill="white">143.423µs</text><text x="905" y="180" fill="white">125.851µs</text><text x="1105" y="180" fill="white">218.039µs</text><text x="5" y="210" fill="white">Day 5:</text><text x="105" y="210" fill="white">29.133µs</text><text x="305" y="210" fill="white">24.723µs</text><text x="505" y="210" fill="white">79.966µs</text><text x="705" y="210" fill="white">480.324µs</text><text x="905" y="210" fill="white">436.776µs</text><text x="1105" y="210" fill="white">665.641µs</text><text x="5" y="240" fill="white">Day 6:</text><text x="105" y="240" fill="white">6.015µs</text><text x="305" y="240" fill="white">4.679µs</text><text x="505" y="240" fill="white">26.05µs</text><text x="705" y="240" fill="white">25.326307ms</text><text x="905" y="240" fill="white">24.94074ms</text><text x="1105" y="240" fill="white">26.80336ms</text><text x="5" y="270" fill="white">Day 7:</text><text x="105" y="270" fill="white">842.607µs</text><text x="305" y="270" fill="white">812.373µs</text><text x="505" y="270" fill="white">1.012603ms</text><text x="705" y="270" fill="white">3.016555ms</text><text x="905" y="270" fill="white">2.899458ms</text><text x="1105" y="270" fill="white">3.449095ms</text><text x="5" y="300" fill="white">Day 8:</text><text x="105" y="300" fill="white">498.4µs</text><text x="305" y="300" fill="white">477.073µs</text><text x="505" y="300" fill="white">683.31µs</text><text x="705" y="300" fill="white">2.030138ms</text><text x="905" y="300" fill="white">1.939304ms</text><text x="1105" y="300" fill="white">2.444803ms</text><text x="5" y="330" fill="white">Day 9:</text><text x="105" y="330" fill="white">349.338µs</text><text x="305" y="330" fill="white">337.395µs</text><text x="505" y="330" fill="white">415.685µs</text><text x="705" y="330" fill="white">344.717µs</text><text x="905" y="330" fill="white">329.503µs</text><text x="1105" y="330" fill="white">514.996µs</text><text x="5" y="360" fill="white">Day 10:</text><text x="105" y="360" fill="white">4.865533ms</text><text x="305" y="360" fill="white">4.511983ms</text><text x="505" y="360" fill="white">5.79675ms</text><text x="705" y="360" fill="white">3.029849ms</text><text x="905" y="360" fill="white">2.863281ms</text><text x="1105" y="360" fill="white">4.467146ms</text><text x="5" y="390" fill="white">Day 11:</text><text x="105" y="390" fill="white">765.381µs</text><text x="305" y="390" fill="white">734.991µs</text><text x="505" y="390" fill="white">956.662µs</text><text x="705" y="390" fill="white">789.301µs</text><text x="905" y="390" fill="white">741.067µs</text><text x="1105" y="390" fill="white">1.186434ms</text><text x="5" y="420" fill="white">Day 12:</text><text x="105" y="420" fill="white">574.616µs</text><text x="305" y="420" fill="white">373.083µs</text><text x="505" y="420" fill="white">17.405058ms</text><text x="705" y="420" fill="white">8.641866ms</text><text x="905" y="420" fill="white">1.012185ms</text><text x="1105" y="420" fill="white">853.236346ms</text><text x="5" y="450" fill="white">Day 13:</text><text x="105" y="450" fill="white">253.509µs</text><text x="305" y="450" fill="white">235.708µs</text><text x="505" y="450" fill="white">424.135µs</text><text x="705" y="450" fill="white">267.484µs</text><text x="905" y="450" fill="white">242.064µs</text><text x="1105" y="450" fill="white">368.683µs</text><text x="5" y="480" fill="white">Day 14:</text><text x="105" y="480" fill="white">316.75µs</text><text x="305" y="480" fill="white">305.688µs</text><text x="505" y="480" fill="white">381.883µs</text><text x="705" y="480" fill="white">252.588108ms</text><text x="905" y="480" fill="white">248.57354ms</text><text x="1105" y="480" fill="white">274.647539ms</text><text x="5" y="510" fill="white">Day 15:</text><text x="105" y="510" fill="white">67.417µs</text><text x="305" y="510" fill="white">64.462µs</text><text x="505" y="510" fill="white">116.353µs</text><text x="705" y="510" fill="white">262.267µs</text><text x="905" y="510" fill="white">248.49µs</text><text x="1105" y="510" fill="white">344.449µs</text><text x="5" y="540" fill="white">Day 16:</text><text x="105" y="540" fill="white">1.342184ms</text><text x="305" y="540" fill="white">1.283093ms</text><text x="505" y="540" fill="white">1.592134ms</text><text x="705" y="540" fill="white">47.592328ms</text><text x="905" y="540" fill="white">40.296904ms</text><text x="1105" y="540" fill="white">53.227299ms</text><text x="5" y="570" fill="white">Day 17:</text><text x="105" y="570" fill="white">61.642536ms</text><text x="305" y="570" fill="white">58.271411ms</text><text x="505" y="570" fill="white">71.832026ms</text><text x="705" y="570" fill="white">330.743817ms</text><text x="905" y="570" fill="white">413.577807ms</text><text x="1105" y="570" fill="white">505.780712ms</text><text x="5" y="600" fill="white">Day 18:</text><text x="105" y="600" fill="white">24.964µs</text><text x="305" y="600" fill="white">23.466µs</text><text x="505" y="600" fill="white">65.37µs</text><text x="705" y="600" fill="white">55.013µs</text><text x="905" y="600" fill="white">53.287µs</text><text x="1105" y="600" fill="white">87.999µs</text><text x="5" y="630" fill="white">Day 19:</text><text x="105" y="630" fill="white">273.653µs</text><text x="305" y="630" fill="white">249.049µs</text><text x="505" y="630" fill="white">536.928µs</text><text x="705" y="630" fill="white">96.183261ms</text><text x="905" y="630" fill="white">93.298066ms</text><text x="1105" y="630" fill="white">101.112728ms</text><text x="5" y="660" fill="white">Day 20:</text><text x="105" y="660" fill="white">5.772359ms</text><text x="305" y="660" fill="white">5.571749ms</text><text x="505" y="660" fill="white">6.509418ms</text><text x="705" y="660" fill="white">26.164349ms</text><text x="905" y="660" fill="white">25.445365ms</text><text x="1105" y="660" fill="white">27.469391ms</text><text x="5" y="690" fill="white">Day 21:</text><text x="105" y="690" fill="white">2.565661ms</text><text x="305" y="690" fill="white">2.505853ms</text><text x="505" y="690" fill="white">2.694978ms</text><text x="705" y="690" fill="white">1.225µs</text><text x="905" y="690" fill="white">907ns</text><text x="1105" y="690" fill="white">1.467µs</text><text x="5" y="720" fill="white">Day 22:</text><text x="105" y="720" fill="white">771.092225ms</text><text x="305" y="720" fill="white">6.997369382s</text><text x="505" y="720" fill="white">7.025239402s</text><text x="705" y="720" fill="red">Missing, timeout or OOM!</text><text x="5" y="750" fill="white">Day 23:</text><text x="105" y="750" fill="white">18.186048ms</text><text x="305" y="750" fill="white">17.772478ms</text><text x="505" y="750" fill="white">19.536846ms</text><text x="705" y="750" fill="red">Missing, timeout or OOM!</text><text x="5" y="780" fill="white">Day 24:</text><text x="105" y="780" fill="red">Missing, timeout or OOM!</text><text x="705" y="780" fill="red">Missing, timeout or OOM!</text><text x="5" y="810" fill="white">Day 25:</text><text x="105" y="810" fill="red">Missing, timeout or OOM!</text><text x="705" y="810" fill="white">1.242µs</text><text x="905" y="810" fill="white">907ns</text><text x="1105" y="810" fill="white">1.467µs</text></svg>
