<svg height="830" width="1300" xmlns="http://www.w3.org/2000/svg"><rect width="100%" height="100%" fill="%230D1117" /><text x="10" y="30" fill="white">Year 2023</text><text x="305" y="30" fill="white">Part 1</text><text x="905" y="30" fill="white">Part 2</text><text x="105" y="60" fill="white">Average</text><text x="305" y="60" fill="white">Best</text><text x="505" y="60" fill="white">Worst</text><text x="705" y="60" fill="white">Average</text><text x="905" y="60" fill="white">Best</text><text x="1105" y="60" fill="white">Worst</text><text x="5" y="90" fill="white">Day 1:</text><text x="105" y="90" fill="white">78.145µs</text><text x="305" y="90" fill="white">69.072µs</text><text x="505" y="90" fill="white">120.195µs</text><text x="705" y="90" fill="white">338.692µs</text><text x="905" y="90" fill="white">310.511µs</text><text x="1105" y="90" fill="white">488.464µs</text><text x="5" y="120" fill="white">Day 2:</text><text x="105" y="120" fill="white">83.803µs</text><text x="305" y="120" fill="white">75.009µs</text><text x="505" y="120" fill="white">174.043µs</text><text x="705" y="120" fill="white">101.112µs</text><text x="905" y="120" fill="white">94.913µs</text><text x="1105" y="120" fill="white">194.925µs</text><text x="5" y="150" fill="white">Day 3:</text><text x="105" y="150" fill="white">294.099µs</text><text x="305" y="150" fill="white">273.705µs</text><text x="505" y="150" fill="white">593.644µs</text><text x="705" y="150" fill="white">289.227µs</text><text x="905" y="150" fill="white">275.171µs</text><text x="1105" y="150" fill="white">530.09µs</text><text x="5" y="180" fill="white">Day 4:</text><text x="105" y="180" fill="white">106.589µs</text><text x="305" y="180" fill="white">95.193µs</text><text x="505" y="180" fill="white">165.313µs</text><text x="705" y="180" fill="white">141.724µs</text><text x="905" y="180" fill="white">126.481µs</text><text x="1105" y="180" fill="white">223.35µs</text><text x="5" y="210" fill="white">Day 5:</text><text x="105" y="210" fill="white">26.98µs</text><text x="305" y="210" fill="white">24.514µs</text><text x="505" y="210" fill="white">69.491µs</text><text x="705" y="210" fill="white">504.521µs</text><text x="905" y="210" fill="white">439.995µs</text><text x="1105" y="210" fill="white">784.309µs</text><text x="5" y="240" fill="white">Day 6:</text><text x="105" y="240" fill="white">5.78µs</text><text x="305" y="240" fill="white">4.33µs</text><text x="505" y="240" fill="white">24.304µs</text><text x="705" y="240" fill="white">25.754133ms</text><text x="905" y="240" fill="white">25.130837ms</text><text x="1105" y="240" fill="white">26.652519ms</text><text x="5" y="270" fill="white">Day 7:</text><text x="105" y="270" fill="white">865.97µs</text><text x="305" y="270" fill="white">830.682µs</text><text x="505" y="270" fill="white">1.108508ms</text><text x="705" y="270" fill="white">3.032555ms</text><text x="905" y="270" fill="white">2.984632ms</text><text x="1105" y="270" fill="white">3.122568ms</text><text x="5" y="300" fill="white">Day 8:</text><text x="105" y="300" fill="white">507.694µs</text><text x="305" y="300" fill="white">473.169µs</text><text x="505" y="300" fill="white">718.449µs</text><text x="705" y="300" fill="white">2.077252ms</text><text x="905" y="300" fill="white">1.986892ms</text><text x="1105" y="300" fill="white">2.484086ms</text><text x="5" y="330" fill="white">Day 9:</text><text x="105" y="330" fill="white">355.517µs</text><text x="305" y="330" fill="white">339.146µs</text><text x="505" y="330" fill="white">445.163µs</text><text x="705" y="330" fill="white">352.039µs</text><text x="905" y="330" fill="white">328.11µs</text><text x="1105" y="330" fill="white">460.947µs</text><text x="5" y="360" fill="white">Day 10:</text><text x="105" y="360" fill="white">4.895009ms</text><text x="305" y="360" fill="white">4.457988ms</text><text x="505" y="360" fill="white">7.21543ms</text><text x="705" y="360" fill="white">3.068722ms</text><text x="905" y="360" fill="white">2.95998ms</text><text x="1105" y="360" fill="white">4.717585ms</text><text x="5" y="390" fill="white">Day 11:</text><text x="105" y="390" fill="white">769.014µs</text><text x="305" y="390" fill="white">739.192µs</text><text x="505" y="390" fill="white">977.907µs</text><text x="705" y="390" fill="white">777.735µs</text><text x="905" y="390" fill="white">758.118µs</text><text x="1105" y="390" fill="white">915.12µs</text><text x="5" y="420" fill="white">Day 12:</text><text x="105" y="420" fill="white">563.066µs</text><text x="305" y="420" fill="white">376.58µs</text><text x="505" y="420" fill="white">17.418635ms</text><text x="705" y="420" fill="white">8.805375ms</text><text x="905" y="420" fill="white">1.025468ms</text><text x="1105" y="420" fill="white">869.311473ms</text><text x="5" y="450" fill="white">Day 13:</text><text x="105" y="450" fill="white">251.388µs</text><text x="305" y="450" fill="white">226.632µs</text><text x="505" y="450" fill="white">327.132µs</text><text x="705" y="450" fill="white">264.975µs</text><text x="905" y="450" fill="white">249.4µs</text><text x="1105" y="450" fill="white">378.954µs</text><text x="5" y="480" fill="white">Day 14:</text><text x="105" y="480" fill="white">323.787µs</text><text x="305" y="480" fill="white">304.504µs</text><text x="505" y="480" fill="white">517.379µs</text><text x="705" y="480" fill="white">251.834808ms</text><text x="905" y="480" fill="white">247.85055ms</text><text x="1105" y="480" fill="white">260.224329ms</text><text x="5" y="510" fill="white">Day 15:</text><text x="105" y="510" fill="white">69.796µs</text><text x="305" y="510" fill="white">64.813µs</text><text x="505" y="510" fill="white">127.948µs</text><text x="705" y="510" fill="white">265.985µs</text><text x="905" y="510" fill="white">245.98µs</text><text x="1105" y="510" fill="white">415.274µs</text><text x="5" y="540" fill="white">Day 16:</text><text x="105" y="540" fill="white">1.351873ms</text><text x="305" y="540" fill="white">1.301626ms</text><text x="505" y="540" fill="white">1.733662ms</text><text x="705" y="540" fill="white">42.298226ms</text><text x="905" y="540" fill="white">38.038023ms</text><text x="1105" y="540" fill="white">48.251434ms</text><text x="5" y="570" fill="white">Day 17:</text><text x="105" y="570" fill="white">62.912936ms</text><text x="305" y="570" fill="white">57.396284ms</text><text x="505" y="570" fill="white">86.197207ms</text><text x="705" y="570" fill="white">50.762997ms</text><text x="905" y="570" fill="white">434.198013ms</text><text x="1105" y="570" fill="white">502.168274ms</text><text x="5" y="600" fill="white">Day 18:</text><text x="105" y="600" fill="white">25.674µs</text><text x="305" y="600" fill="white">23.819µs</text><text x="505" y="600" fill="white">77.743µs</text><text x="705" y="600" fill="white">56.828µs</text><text x="905" y="600" fill="white">54.902µs</text><text x="1105" y="600" fill="white">81.515µs</text><text x="5" y="630" fill="white">Day 19:</text><text x="105" y="630" fill="white">271.205µs</text><text x="305" y="630" fill="white">251.531µs</text><text x="505" y="630" fill="white">530.585µs</text><text x="705" y="630" fill="white">98.449576ms</text><text x="905" y="630" fill="white">92.688179ms</text><text x="1105" y="630" fill="white">104.791134ms</text><text x="5" y="660" fill="white">Day 20:</text><text x="105" y="660" fill="white">6.022572ms</text><text x="305" y="660" fill="white">5.813019ms</text><text x="505" y="660" fill="white">6.979311ms</text><text x="705" y="660" fill="white">26.244354ms</text><text x="905" y="660" fill="white">25.627327ms</text><text x="1105" y="660" fill="white">28.140549ms</text><text x="5" y="690" fill="white">Day 21:</text><text x="105" y="690" fill="white">2.560209ms</text><text x="305" y="690" fill="white">2.502459ms</text><text x="505" y="690" fill="white">2.862466ms</text><text x="705" y="690" fill="white">1.276µs</text><text x="905" y="690" fill="white">908ns</text><text x="1105" y="690" fill="white">1.956µs</text><text x="5" y="720" fill="white">Day 22:</text><text x="105" y="720" fill="white">765.812218ms</text><text x="305" y="720" fill="white">6.952719513s</text><text x="505" y="720" fill="white">6.976264212s</text><text x="705" y="720" fill="red">Missing, timeout or OOM!</text><text x="5" y="750" fill="white">Day 23:</text><text x="105" y="750" fill="white">18.072823ms</text><text x="305" y="750" fill="white">17.775198ms</text><text x="505" y="750" fill="white">18.926106ms</text><text x="705" y="750" fill="red">Missing, timeout or OOM!</text><text x="5" y="780" fill="white">Day 24:</text><text x="105" y="780" fill="red">Missing, timeout or OOM!</text><text x="705" y="780" fill="red">Missing, timeout or OOM!</text><text x="5" y="810" fill="white">Day 25:</text><text x="105" y="810" fill="red">Missing, timeout or OOM!</text><text x="705" y="810" fill="white">1.244µs</text><text x="905" y="810" fill="white">908ns</text><text x="1105" y="810" fill="white">1.467µs</text></svg>
