<svg height="830" width="1300" xmlns="http://www.w3.org/2000/svg"><rect width="100%" height="100%" fill="%230D1117" /><text x="10" y="30" fill="white">Year 2023</text><text x="305" y="30" fill="white">Part 1</text><text x="905" y="30" fill="white">Part 2</text><text x="105" y="60" fill="white">Average</text><text x="305" y="60" fill="white">Best</text><text x="505" y="60" fill="white">Worst</text><text x="705" y="60" fill="white">Average</text><text x="905" y="60" fill="white">Best</text><text x="1105" y="60" fill="white">Worst</text><text x="5" y="90" fill="white">Day 1:</text><text x="105" y="90" fill="white">104.112µs</text><text x="305" y="90" fill="white">165.392µs</text><text x="505" y="90" fill="white">98.996µs</text><text x="705" y="90" fill="white">344.442µs</text><text x="905" y="90" fill="white">1.196294ms</text><text x="1105" y="90" fill="white">299.714µs</text><text x="5" y="120" fill="white">Day 2:</text><text x="105" y="120" fill="white">122.723µs</text><text x="305" y="120" fill="white">248.869µs</text><text x="505" y="120" fill="white">112.021µs</text><text x="705" y="120" fill="white">147.009µs</text><text x="905" y="120" fill="white">288.483µs</text><text x="1105" y="120" fill="white">135.846µs</text><text x="5" y="150" fill="white">Day 3:</text><text x="105" y="150" fill="white">430.581µs</text><text x="305" y="150" fill="white">1.591968ms</text><text x="505" y="150" fill="white">375.016µs</text><text x="705" y="150" fill="white">425.355µs</text><text x="905" y="150" fill="white">1.075555ms</text><text x="1105" y="150" fill="white">379.054µs</text><text x="5" y="180" fill="white">Day 4:</text><text x="105" y="180" fill="white">167.822µs</text><text x="305" y="180" fill="white">802.581µs</text><text x="505" y="180" fill="white">134.563µs</text><text x="705" y="180" fill="white">194.73µs</text><text x="905" y="180" fill="white">309.042µs</text><text x="1105" y="180" fill="white">188.505µs</text><text x="5" y="210" fill="white">Day 5:</text><text x="105" y="210" fill="white">39.421µs</text><text x="305" y="210" fill="white">202.771µs</text><text x="505" y="210" fill="white">34.385µs</text><text x="705" y="210" fill="white">1.000182ms</text><text x="905" y="210" fill="white">1.976723ms</text><text x="1105" y="210" fill="white">808.884µs</text><text x="5" y="240" fill="white">Day 6:</text><text x="105" y="240" fill="white">4.91µs</text><text x="305" y="240" fill="white">109.316µs</text><text x="505" y="240" fill="white">4.699µs</text><text x="705" y="240" fill="red">Missing or timeout!</text><text x="5" y="270" fill="white">Day 7:</text><text x="105" y="270" fill="white">1.040404ms</text><text x="305" y="270" fill="white">1.990068ms</text><text x="505" y="270" fill="white">972.011µs</text><text x="705" y="270" fill="red">Missing or timeout!</text><text x="5" y="300" fill="white">Day 8:</text><text x="105" y="300" fill="white">726.296µs</text><text x="305" y="300" fill="white">1.489425ms</text><text x="505" y="300" fill="white">679.91µs</text><text x="705" y="300" fill="red">Missing or timeout!</text><text x="5" y="330" fill="white">Day 9:</text><text x="105" y="330" fill="white">523.094µs</text><text x="305" y="330" fill="white">966.76µs</text><text x="505" y="330" fill="white">488.85µs</text><text x="705" y="330" fill="white">581.189µs</text><text x="905" y="330" fill="white">1.324114ms</text><text x="1105" y="330" fill="white">486.686µs</text><text x="5" y="360" fill="white">Day 10:</text><text x="105" y="360" fill="red">Missing or timeout!</text><text x="705" y="360" fill="red">Missing or timeout!</text><text x="5" y="390" fill="white">Day 11:</text><text x="105" y="390" fill="white">964.4µs</text><text x="305" y="390" fill="white">1.514793ms</text><text x="505" y="390" fill="white">925.302µs</text><text x="705" y="390" fill="white">1.052562ms</text><text x="905" y="390" fill="white">1.7737ms</text><text x="1105" y="390" fill="white">926.064µs</text><text x="5" y="420" fill="white">Day 12:</text><text x="105" y="420" fill="white">546.463µs</text><text x="305" y="420" fill="white">20.937694ms</text><text x="505" y="420" fill="white">512.145µs</text><text x="705" y="420" fill="white">913.114µs</text><text x="905" y="420" fill="white">900.057543ms</text><text x="1105" y="420" fill="white">1.22118ms</text><text x="5" y="450" fill="white">Day 13:</text><text x="105" y="450" fill="white">336.416µs</text><text x="305" y="450" fill="white">916.116µs</text><text x="505" y="450" fill="white">313.541µs</text><text x="705" y="450" fill="white">347.101µs</text><text x="905" y="450" fill="white">597.065µs</text><text x="1105" y="450" fill="white">321.967µs</text><text x="5" y="480" fill="white">Day 14:</text><text x="105" y="480" fill="white">403.653µs</text><text x="305" y="480" fill="white">613.706µs</text><text x="505" y="480" fill="white">384.334µs</text><text x="705" y="480" fill="red">Missing or timeout!</text><text x="5" y="510" fill="white">Day 15:</text><text x="105" y="510" fill="white">99.121µs</text><text x="305" y="510" fill="white">169.69µs</text><text x="505" y="510" fill="white">84.299µs</text><text x="705" y="510" fill="white">349.543µs</text><text x="905" y="510" fill="white">514.769µs</text><text x="1105" y="510" fill="white">328.699µs</text><text x="5" y="540" fill="white">Day 16:</text><text x="105" y="540" fill="white">1.635437ms</text><text x="305" y="540" fill="white">2.671351ms</text><text x="505" y="540" fill="white">1.503431ms</text><text x="705" y="540" fill="red">Missing or timeout!</text><text x="5" y="570" fill="white">Day 17:</text><text x="105" y="570" fill="red">Missing or timeout!</text><text x="705" y="570" fill="red">Missing or timeout!</text><text x="5" y="600" fill="white">Day 18:</text><text x="105" y="600" fill="white">39.33µs</text><text x="305" y="600" fill="white">102.273µs</text><text x="505" y="600" fill="white">34.285µs</text><text x="705" y="600" fill="white">87.94µs</text><text x="905" y="600" fill="white">282.643µs</text><text x="1105" y="600" fill="white">78.818µs</text><text x="5" y="630" fill="white">Day 19:</text><text x="105" y="630" fill="white">360.858µs</text><text x="305" y="630" fill="white">971.84µs</text><text x="505" y="630" fill="white">338.678µs</text><text x="705" y="630" fill="red">Missing or timeout!</text><text x="5" y="660" fill="white">Day 20:</text><text x="105" y="660" fill="red">Missing or timeout!</text><text x="705" y="660" fill="red">Missing or timeout!</text><text x="5" y="690" fill="white">Day 21:</text><text x="105" y="690" fill="red">Missing or timeout!</text><text x="705" y="690" fill="white">30ns</text><text x="905" y="690" fill="white">461ns</text><text x="1105" y="690" fill="white">20ns</text><text x="5" y="720" fill="white">Day 22:</text><text x="105" y="720" fill="red">Missing or timeout!</text><text x="705" y="720" fill="red">Missing or timeout!</text><text x="5" y="750" fill="white">Day 23:</text><text x="105" y="750" fill="red">Missing or timeout!</text><text x="705" y="750" fill="red">Missing or timeout!</text><text x="5" y="780" fill="white">Day 24:</text><text x="105" y="780" fill="red">Missing or timeout!</text><text x="705" y="780" fill="red">Missing or timeout!</text><text x="5" y="810" fill="white">Day 25:</text><text x="105" y="810" fill="red">Missing or timeout!</text><text x="705" y="810" fill="white">30ns</text><text x="905" y="810" fill="white">902ns</text><text x="1105" y="810" fill="white">20ns</text></svg>
