<svg height="830" width="1300" xmlns="http://www.w3.org/2000/svg"><rect width="100%" height="100%" fill="%230D1117" /><text x="10" y="30" fill="white">Year 2023</text><text x="305" y="30" fill="white">Part 1</text><text x="905" y="30" fill="white">Part 2</text><text x="105" y="60" fill="white">Average</text><text x="305" y="60" fill="white">Best</text><text x="505" y="60" fill="white">Worst</text><text x="705" y="60" fill="white">Average</text><text x="905" y="60" fill="white">Best</text><text x="1105" y="60" fill="white">Worst</text><text x="5" y="90" fill="white">Day 1:</text><text x="105" y="90" fill="white">76.174µs</text><text x="305" y="90" fill="white">138.792µs</text><text x="505" y="90" fill="white">69.292µs</text><text x="705" y="90" fill="white">328.892µs</text><text x="905" y="90" fill="white">435.377µs</text><text x="1105" y="90" fill="white">310.485µs</text><text x="5" y="120" fill="white">Day 2:</text><text x="105" y="120" fill="white">82.878µs</text><text x="305" y="120" fill="white">173.578µs</text><text x="505" y="120" fill="white">74.74µs</text><text x="705" y="120" fill="white">97.846µs</text><text x="905" y="120" fill="white">163.939µs</text><text x="1105" y="120" fill="white">93.879µs</text><text x="5" y="150" fill="white">Day 3:</text><text x="105" y="150" fill="white">291.256µs</text><text x="305" y="150" fill="white">552.238µs</text><text x="505" y="150" fill="white">277.097µs</text><text x="705" y="150" fill="white">292.289µs</text><text x="905" y="150" fill="white">514.169µs</text><text x="1105" y="150" fill="white">276.328µs</text><text x="5" y="180" fill="white">Day 4:</text><text x="105" y="180" fill="white">115.029µs</text><text x="305" y="180" fill="white">165.685µs</text><text x="505" y="180" fill="white">102.471µs</text><text x="705" y="180" fill="white">150.265µs</text><text x="905" y="180" fill="white">231.973µs</text><text x="1105" y="180" fill="white">131.878µs</text><text x="5" y="210" fill="white">Day 5:</text><text x="105" y="210" fill="white">25.948µs</text><text x="305" y="210" fill="white">62.865µs</text><text x="505" y="210" fill="white">24.308µs</text><text x="705" y="210" fill="white">461.582µs</text><text x="905" y="210" fill="white">608.188µs</text><text x="1105" y="210" fill="white">438.451µs</text><text x="5" y="240" fill="white">Day 6:</text><text x="105" y="240" fill="white">5.956µs</text><text x="305" y="240" fill="white">27.8µs</text><text x="505" y="240" fill="white">4.68µs</text><text x="705" y="240" fill="white">25.179722ms</text><text x="905" y="240" fill="white">26.761517ms</text><text x="1105" y="240" fill="white">24.922693ms</text><text x="5" y="270" fill="white">Day 7:</text><text x="105" y="270" fill="white">866.158µs</text><text x="305" y="270" fill="white">944.168µs</text><text x="505" y="270" fill="white">838.903µs</text><text x="705" y="270" fill="white">3.003678ms</text><text x="905" y="270" fill="white">3.357359ms</text><text x="1105" y="270" fill="white">2.937278ms</text><text x="5" y="300" fill="white">Day 8:</text><text x="105" y="300" fill="white">499.667µs</text><text x="305" y="300" fill="white">700.599µs</text><text x="505" y="300" fill="white">477.427µs</text><text x="705" y="300" fill="white">2.004106ms</text><text x="905" y="300" fill="white">2.318613ms</text><text x="1105" y="300" fill="white">1.944704ms</text><text x="5" y="330" fill="white">Day 9:</text><text x="105" y="330" fill="white">353.021µs</text><text x="305" y="330" fill="white">425.459µs</text><text x="505" y="330" fill="white">340.241µs</text><text x="705" y="330" fill="white">347.674µs</text><text x="905" y="330" fill="white">429.44µs</text><text x="1105" y="330" fill="white">333.815µs</text><text x="5" y="360" fill="white">Day 10:</text><text x="105" y="360" fill="white">4.792699ms</text><text x="305" y="360" fill="white">6.281015ms</text><text x="505" y="360" fill="white">4.391702ms</text><text x="705" y="360" fill="white">3.039012ms</text><text x="905" y="360" fill="white">4.894275ms</text><text x="1105" y="360" fill="white">2.907661ms</text><text x="5" y="390" fill="white">Day 11:</text><text x="105" y="390" fill="white">760.458µs</text><text x="305" y="390" fill="white">969.104µs</text><text x="505" y="390" fill="white">735.524µs</text><text x="705" y="390" fill="white">782.187µs</text><text x="905" y="390" fill="white">1.009896ms</text><text x="1105" y="390" fill="white">746.071µs</text><text x="5" y="420" fill="white">Day 12:</text><text x="105" y="420" fill="white">581.227µs</text><text x="305" y="420" fill="white">19.496491ms</text><text x="505" y="420" fill="white">373.979µs</text><text x="705" y="420" fill="white">8.470854ms</text><text x="905" y="420" fill="white">836.128061ms</text><text x="1105" y="420" fill="white">1.006473ms</text><text x="5" y="450" fill="white">Day 13:</text><text x="105" y="450" fill="white">253.467µs</text><text x="305" y="450" fill="white">357.703µs</text><text x="505" y="450" fill="white">236.933µs</text><text x="705" y="450" fill="white">265.511µs</text><text x="905" y="450" fill="white">340.8µs</text><text x="1105" y="450" fill="white">243.219µs</text><text x="5" y="480" fill="white">Day 14:</text><text x="105" y="480" fill="white">320.48µs</text><text x="305" y="480" fill="white">429.859µs</text><text x="505" y="480" fill="white">304.478µs</text><text x="705" y="480" fill="white">252.090005ms</text><text x="905" y="480" fill="white">260.969151ms</text><text x="1105" y="480" fill="white">247.817863ms</text><text x="5" y="510" fill="white">Day 15:</text><text x="105" y="510" fill="white">67.5µs</text><text x="305" y="510" fill="white">110.224µs</text><text x="505" y="510" fill="white">65.309µs</text><text x="705" y="510" fill="white">261.255µs</text><text x="905" y="510" fill="white">341.776µs</text><text x="1105" y="510" fill="white">247.129µs</text><text x="5" y="540" fill="white">Day 16:</text><text x="105" y="540" fill="white">1.313023ms</text><text x="305" y="540" fill="white">1.61542ms</text><text x="505" y="540" fill="white">1.280209ms</text><text x="705" y="540" fill="white">40.10941ms</text><text x="905" y="540" fill="white">44.712366ms</text><text x="1105" y="540" fill="white">36.881242ms</text><text x="5" y="570" fill="white">Day 17:</text><text x="105" y="570" fill="white">62.333724ms</text><text x="305" y="570" fill="white">71.031726ms</text><text x="505" y="570" fill="white">59.170553ms</text><text x="705" y="570" fill="white">451.059326ms</text><text x="905" y="570" fill="white">492.242092ms</text><text x="1105" y="570" fill="white">410.110545ms</text><text x="5" y="600" fill="white">Day 18:</text><text x="105" y="600" fill="white">24.925µs</text><text x="305" y="600" fill="white">75.297µs</text><text x="505" y="600" fill="white">23.399µs</text><text x="705" y="600" fill="white">59.465µs</text><text x="905" y="600" fill="white">109.244µs</text><text x="1105" y="600" fill="white">52.946µs</text><text x="5" y="630" fill="white">Day 19:</text><text x="105" y="630" fill="white">270.348µs</text><text x="305" y="630" fill="white">472.809µs</text><text x="505" y="630" fill="white">250.968µs</text><text x="705" y="630" fill="white">95.217338ms</text><text x="905" y="630" fill="white">97.321815ms</text><text x="1105" y="630" fill="white">92.987453ms</text><text x="5" y="660" fill="white">Day 20:</text><text x="105" y="660" fill="white">5.798375ms</text><text x="305" y="660" fill="white">6.021331ms</text><text x="505" y="660" fill="white">5.650503ms</text><text x="705" y="660" fill="white">26.556372ms</text><text x="905" y="660" fill="white">27.389322ms</text><text x="1105" y="660" fill="white">25.746962ms</text><text x="5" y="690" fill="white">Day 21:</text><text x="105" y="690" fill="white">2.562089ms</text><text x="305" y="690" fill="white">2.737659ms</text><text x="505" y="690" fill="white">2.499405ms</text><text x="705" y="690" fill="white">1.206µs</text><text x="905" y="690" fill="white">1.956µs</text><text x="1105" y="690" fill="white">908ns</text><text x="5" y="720" fill="white">Day 22:</text><text x="105" y="720" fill="white">767.566932ms</text><text x="305" y="720" fill="white">7.043621641s</text><text x="505" y="720" fill="white">6.958238664s</text><text x="705" y="720" fill="red">Missing, timeout or OOM!</text><text x="5" y="750" fill="white">Day 23:</text><text x="105" y="750" fill="white">18.332389ms</text><text x="305" y="750" fill="white">19.583809ms</text><text x="505" y="750" fill="white">17.885039ms</text><text x="705" y="750" fill="red">Missing, timeout or OOM!</text><text x="5" y="780" fill="white">Day 24:</text><text x="105" y="780" fill="red">Missing, timeout or OOM!</text><text x="705" y="780" fill="red">Missing, timeout or OOM!</text><text x="5" y="810" fill="white">Day 25:</text><text x="105" y="810" fill="red">Missing, timeout or OOM!</text><text x="705" y="810" fill="white">1.348µs</text><text x="905" y="810" fill="white">14.319µs</text><text x="1105" y="810" fill="white">908ns</text></svg>
