<svg height="830" width="1300" xmlns="http://www.w3.org/2000/svg"><rect width="100%" height="100%" fill="%230D1117" /><text x="10" y="30" fill="white">Year 2023</text><text x="305" y="30" fill="white">Part 1</text><text x="905" y="30" fill="white">Part 2</text><text x="105" y="60" fill="white">Average</text><text x="305" y="60" fill="white">Best</text><text x="505" y="60" fill="white">Worst</text><text x="705" y="60" fill="white">Average</text><text x="905" y="60" fill="white">Best</text><text x="1105" y="60" fill="white">Worst</text><text x="5" y="90" fill="white">Day 1:</text><text x="105" y="90" fill="white">71.22µs</text><text x="305" y="90" fill="white">114.05µs</text><text x="505" y="90" fill="white">67.745µs</text><text x="705" y="90" fill="white">331.085µs</text><text x="905" y="90" fill="white">476.873µs</text><text x="1105" y="90" fill="white">312.049µs</text><text x="5" y="120" fill="white">Day 2:</text><text x="105" y="120" fill="white">80.149µs</text><text x="305" y="120" fill="white">729.418µs</text><text x="505" y="120" fill="white">73.542µs</text><text x="705" y="120" fill="white">96.465µs</text><text x="905" y="120" fill="white">187.034µs</text><text x="1105" y="120" fill="white">92.4µs</text><text x="5" y="150" fill="white">Day 3:</text><text x="105" y="150" fill="white">280.773µs</text><text x="305" y="150" fill="white">602.726µs</text><text x="505" y="150" fill="white">266.512µs</text><text x="705" y="150" fill="white">282.946µs</text><text x="905" y="150" fill="white">560.683µs</text><text x="1105" y="150" fill="white">268.119µs</text><text x="5" y="180" fill="white">Day 4:</text><text x="105" y="180" fill="white">98.674µs</text><text x="305" y="180" fill="white">176.907µs</text><text x="505" y="180" fill="white">94.425µs</text><text x="705" y="180" fill="white">131.901µs</text><text x="905" y="180" fill="white">206.938µs</text><text x="1105" y="180" fill="white">123.478µs</text><text x="5" y="210" fill="white">Day 5:</text><text x="105" y="210" fill="white">26.849µs</text><text x="305" y="210" fill="white">67.816µs</text><text x="505" y="210" fill="white">24.095µs</text><text x="705" y="210" fill="white">448.713µs</text><text x="905" y="210" fill="white">634.644µs</text><text x="1105" y="210" fill="white">423.934µs</text><text x="5" y="240" fill="white">Day 6:</text><text x="105" y="240" fill="white">5.654µs</text><text x="305" y="240" fill="white">40.089µs</text><text x="505" y="240" fill="white">4.19µs</text><text x="705" y="240" fill="red">Missing, timeout or OOM!</text><text x="5" y="270" fill="white">Day 7:</text><text x="105" y="270" fill="white">861.679µs</text><text x="305" y="270" fill="white">1.220818ms</text><text x="505" y="270" fill="white">828.662µs</text><text x="705" y="270" fill="red">Missing, timeout or OOM!</text><text x="5" y="300" fill="white">Day 8:</text><text x="105" y="300" fill="white">494.776µs</text><text x="305" y="300" fill="white">741.849µs</text><text x="505" y="300" fill="white">473.311µs</text><text x="705" y="300" fill="red">Missing, timeout or OOM!</text><text x="5" y="330" fill="white">Day 9:</text><text x="105" y="330" fill="white">339.419µs</text><text x="305" y="330" fill="white">563.826µs</text><text x="505" y="330" fill="white">322.595µs</text><text x="705" y="330" fill="white">338.467µs</text><text x="905" y="330" fill="white">445.166µs</text><text x="1105" y="330" fill="white">324.201µs</text><text x="5" y="360" fill="white">Day 10:</text><text x="105" y="360" fill="red">Missing, timeout or OOM!</text><text x="705" y="360" fill="red">Missing, timeout or OOM!</text><text x="5" y="390" fill="white">Day 11:</text><text x="105" y="390" fill="white">858.224µs</text><text x="305" y="390" fill="white">1.881653ms</text><text x="505" y="390" fill="white">824.611µs</text><text x="705" y="390" fill="white">844.531µs</text><text x="905" y="390" fill="white">996.908µs</text><text x="1105" y="390" fill="white">811.83µs</text><text x="5" y="420" fill="white">Day 12:</text><text x="105" y="420" fill="white">388.903µs</text><text x="305" y="420" fill="white">16.458136ms</text><text x="505" y="420" fill="white">362.404µs</text><text x="705" y="420" fill="white">795.736µs</text><text x="905" y="420" fill="white">785.554037ms</text><text x="1105" y="420" fill="white">955.912µs</text><text x="5" y="450" fill="white">Day 13:</text><text x="105" y="450" fill="white">245.491µs</text><text x="305" y="450" fill="white">383.077µs</text><text x="505" y="450" fill="white">229.497µs</text><text x="705" y="450" fill="white">254.721µs</text><text x="905" y="450" fill="white">371.134µs</text><text x="1105" y="450" fill="white">243.675µs</text><text x="5" y="480" fill="white">Day 14:</text><text x="105" y="480" fill="white">317.957µs</text><text x="305" y="480" fill="white">413.458µs</text><text x="505" y="480" fill="white">303.599µs</text><text x="705" y="480" fill="red">Missing, timeout or OOM!</text><text x="5" y="510" fill="white">Day 15:</text><text x="105" y="510" fill="white">68.122µs</text><text x="305" y="510" fill="white">143.173µs</text><text x="505" y="510" fill="white">65.301µs</text><text x="705" y="510" fill="white">256.077µs</text><text x="905" y="510" fill="white">428.753µs</text><text x="1105" y="510" fill="white">242.627µs</text><text x="5" y="540" fill="white">Day 16:</text><text x="105" y="540" fill="red">Missing, timeout or OOM!</text><text x="705" y="540" fill="red">Missing, timeout or OOM!</text><text x="5" y="570" fill="white">Day 17:</text><text x="105" y="570" fill="red">Missing, timeout or OOM!</text><text x="705" y="570" fill="red">Missing, timeout or OOM!</text><text x="5" y="600" fill="white">Day 18:</text><text x="105" y="600" fill="white">24.982µs</text><text x="305" y="600" fill="white">62.996µs</text><text x="505" y="600" fill="white">23.257µs</text><text x="705" y="600" fill="white">53.865µs</text><text x="905" y="600" fill="white">98.685µs</text><text x="1105" y="600" fill="white">51.123µs</text><text x="5" y="630" fill="white">Day 19:</text><text x="105" y="630" fill="white">271.7µs</text><text x="305" y="630" fill="white">431.197µs</text><text x="505" y="630" fill="white">255.687µs</text><text x="705" y="630" fill="red">Missing, timeout or OOM!</text><text x="5" y="660" fill="white">Day 20:</text><text x="105" y="660" fill="red">Missing, timeout or OOM!</text><text x="705" y="660" fill="red">Missing, timeout or OOM!</text><text x="5" y="690" fill="white">Day 21:</text><text x="105" y="690" fill="red">Missing, timeout or OOM!</text><text x="705" y="690" fill="white">1.244µs</text><text x="905" y="690" fill="white">11.803µs</text><text x="1105" y="690" fill="white">907ns</text><text x="5" y="720" fill="white">Day 22:</text><text x="105" y="720" fill="red">Missing, timeout or OOM!</text><text x="705" y="720" fill="red">Missing, timeout or OOM!</text><text x="5" y="750" fill="white">Day 23:</text><text x="105" y="750" fill="red">Missing, timeout or OOM!</text><text x="705" y="750" fill="red">Missing, timeout or OOM!</text><text x="5" y="780" fill="white">Day 24:</text><text x="105" y="780" fill="red">Missing, timeout or OOM!</text><text x="705" y="780" fill="red">Missing, timeout or OOM!</text><text x="5" y="810" fill="white">Day 25:</text><text x="105" y="810" fill="red">Missing, timeout or OOM!</text><text x="705" y="810" fill="white">1.236µs</text><text x="905" y="810" fill="white">9.359µs</text><text x="1105" y="810" fill="white">907ns</text></svg>
