<svg height="830" width="1300" xmlns="http://www.w3.org/2000/svg"><rect width="100%" height="100%" fill="%230D1117" /><text x="10" y="30" fill="white">Year 2023</text><text x="305" y="30" fill="white">Part 1</text><text x="905" y="30" fill="white">Part 2</text><text x="105" y="60" fill="white">Average</text><text x="305" y="60" fill="white">Best</text><text x="505" y="60" fill="white">Worst</text><text x="705" y="60" fill="white">Average</text><text x="905" y="60" fill="white">Best</text><text x="1105" y="60" fill="white">Worst</text><text x="5" y="90" fill="white">Day 1:</text><text x="105" y="90" fill="white">71.815µs</text><text x="305" y="90" fill="white">138.704µs</text><text x="505" y="90" fill="white">68.514µs</text><text x="705" y="90" fill="white">335.152µs</text><text x="905" y="90" fill="white">568.505µs</text><text x="1105" y="90" fill="white">315.122µs</text><text x="5" y="120" fill="white">Day 2:</text><text x="105" y="120" fill="white">77.862µs</text><text x="305" y="120" fill="white">171.25µs</text><text x="505" y="120" fill="white">74.451µs</text><text x="705" y="120" fill="white">96.16µs</text><text x="905" y="120" fill="white">178.653µs</text><text x="1105" y="120" fill="white">92.19µs</text><text x="5" y="150" fill="white">Day 3:</text><text x="105" y="150" fill="white">286.195µs</text><text x="305" y="150" fill="white">715.59µs</text><text x="505" y="150" fill="white">268.329µs</text><text x="705" y="150" fill="white">280.984µs</text><text x="905" y="150" fill="white">639.254µs</text><text x="1105" y="150" fill="white">265.465µs</text><text x="5" y="180" fill="white">Day 4:</text><text x="105" y="180" fill="white">97.728µs</text><text x="305" y="180" fill="white">166.571µs</text><text x="505" y="180" fill="white">94.215µs</text><text x="705" y="180" fill="white">132.302µs</text><text x="905" y="180" fill="white">248.285µs</text><text x="1105" y="180" fill="white">124.456µs</text><text x="5" y="210" fill="white">Day 5:</text><text x="105" y="210" fill="white">25.691µs</text><text x="305" y="210" fill="white">56.292µs</text><text x="505" y="210" fill="white">24.724µs</text><text x="705" y="210" fill="white">452.762µs</text><text x="905" y="210" fill="white">778.726µs</text><text x="1105" y="210" fill="white">417.649µs</text><text x="5" y="240" fill="white">Day 6:</text><text x="105" y="240" fill="white">5.86µs</text><text x="305" y="240" fill="white">49.936µs</text><text x="505" y="240" fill="white">4.749µs</text><text x="705" y="240" fill="red">Missing, timeout or OOM!</text><text x="5" y="270" fill="white">Day 7:</text><text x="105" y="270" fill="white">840.606µs</text><text x="305" y="270" fill="white">1.047335ms</text><text x="505" y="270" fill="white">816.72µs</text><text x="705" y="270" fill="red">Missing, timeout or OOM!</text><text x="5" y="300" fill="white">Day 8:</text><text x="105" y="300" fill="white">498.752µs</text><text x="305" y="300" fill="white">838.37µs</text><text x="505" y="300" fill="white">469.89µs</text><text x="705" y="300" fill="red">Missing, timeout or OOM!</text><text x="5" y="330" fill="white">Day 9:</text><text x="105" y="330" fill="white">344.614µs</text><text x="305" y="330" fill="white">490.074µs</text><text x="505" y="330" fill="white">323.783µs</text><text x="705" y="330" fill="white">331.886µs</text><text x="905" y="330" fill="white">462.487µs</text><text x="1105" y="330" fill="white">316.379µs</text><text x="5" y="360" fill="white">Day 10:</text><text x="105" y="360" fill="red">Missing, timeout or OOM!</text><text x="705" y="360" fill="red">Missing, timeout or OOM!</text><text x="5" y="390" fill="white">Day 11:</text><text x="105" y="390" fill="white">853.735µs</text><text x="305" y="390" fill="white">1.914201ms</text><text x="505" y="390" fill="white">824.053µs</text><text x="705" y="390" fill="white">846.385µs</text><text x="905" y="390" fill="white">1.156426ms</text><text x="1105" y="390" fill="white">818.676µs</text><text x="5" y="420" fill="white">Day 12:</text><text x="105" y="420" fill="white">388.443µs</text><text x="305" y="420" fill="white">16.645398ms</text><text x="505" y="420" fill="white">358.144µs</text><text x="705" y="420" fill="white">809.079µs</text><text x="905" y="420" fill="white">799.141976ms</text><text x="1105" y="420" fill="white">936.287µs</text><text x="5" y="450" fill="white">Day 13:</text><text x="105" y="450" fill="white">247.593µs</text><text x="305" y="450" fill="white">356.608µs</text><text x="505" y="450" fill="white">233.688µs</text><text x="705" y="450" fill="white">256.743µs</text><text x="905" y="450" fill="white">402.563µs</text><text x="1105" y="450" fill="white">243.815µs</text><text x="5" y="480" fill="white">Day 14:</text><text x="105" y="480" fill="white">316.396µs</text><text x="305" y="480" fill="white">486.163µs</text><text x="505" y="480" fill="white">305.275µs</text><text x="705" y="480" fill="red">Missing, timeout or OOM!</text><text x="5" y="510" fill="white">Day 15:</text><text x="105" y="510" fill="white">68.075µs</text><text x="305" y="510" fill="white">118.87µs</text><text x="505" y="510" fill="white">64.952µs</text><text x="705" y="510" fill="white">253.02µs</text><text x="905" y="510" fill="white">383.567µs</text><text x="1105" y="510" fill="white">243.396µs</text><text x="5" y="540" fill="white">Day 16:</text><text x="105" y="540" fill="red">Missing, timeout or OOM!</text><text x="705" y="540" fill="red">Missing, timeout or OOM!</text><text x="5" y="570" fill="white">Day 17:</text><text x="105" y="570" fill="red">Missing, timeout or OOM!</text><text x="705" y="570" fill="red">Missing, timeout or OOM!</text><text x="5" y="600" fill="white">Day 18:</text><text x="105" y="600" fill="white">25.84µs</text><text x="305" y="600" fill="white">82.412µs</text><text x="505" y="600" fill="white">23.606µs</text><text x="705" y="600" fill="white">55.047µs</text><text x="905" y="600" fill="white">106.019µs</text><text x="1105" y="600" fill="white">51.263µs</text><text x="5" y="630" fill="white">Day 19:</text><text x="105" y="630" fill="white">270.544µs</text><text x="305" y="630" fill="white">489.585µs</text><text x="505" y="630" fill="white">256.945µs</text><text x="705" y="630" fill="red">Missing, timeout or OOM!</text><text x="5" y="660" fill="white">Day 20:</text><text x="105" y="660" fill="red">Missing, timeout or OOM!</text><text x="705" y="660" fill="red">Missing, timeout or OOM!</text><text x="5" y="690" fill="white">Day 21:</text><text x="105" y="690" fill="red">Missing, timeout or OOM!</text><text x="705" y="690" fill="white">1.225µs</text><text x="905" y="690" fill="white">8.869µs</text><text x="1105" y="690" fill="white">907ns</text><text x="5" y="720" fill="white">Day 22:</text><text x="105" y="720" fill="red">Missing, timeout or OOM!</text><text x="705" y="720" fill="red">Missing, timeout or OOM!</text><text x="5" y="750" fill="white">Day 23:</text><text x="105" y="750" fill="red">Missing, timeout or OOM!</text><text x="705" y="750" fill="red">Missing, timeout or OOM!</text><text x="5" y="780" fill="white">Day 24:</text><text x="105" y="780" fill="red">Missing, timeout or OOM!</text><text x="705" y="780" fill="red">Missing, timeout or OOM!</text><text x="5" y="810" fill="white">Day 25:</text><text x="105" y="810" fill="red">Missing, timeout or OOM!</text><text x="705" y="810" fill="white">1.212µs</text><text x="905" y="810" fill="white">3.772µs</text><text x="1105" y="810" fill="white">907ns</text></svg>
