<svg height="830" width="1300" xmlns="http://www.w3.org/2000/svg"><rect width="100%" height="100%" fill="%230D1117" /><text x="10" y="30" fill="white">Year 2024</text><text x="305" y="30" fill="white">Part 1</text><text x="905" y="30" fill="white">Part 2</text><text x="105" y="60" fill="white">Average</text><text x="305" y="60" fill="white">Best</text><text x="505" y="60" fill="white">Worst</text><text x="705" y="60" fill="white">Average</text><text x="905" y="60" fill="white">Best</text><text x="1105" y="60" fill="white">Worst</text><text x="5" y="90" fill="white">Day 1:</text><text x="105" y="90" fill="white">78.689µs</text><text x="305" y="90" fill="white">73.472µs</text><text x="505" y="90" fill="white">119.706µs</text><text x="705" y="90" fill="white">66.138µs</text><text x="905" y="90" fill="white">61.738µs</text><text x="1105" y="90" fill="white">112.861µs</text><text x="5" y="120" fill="white">Day 2:</text><text x="105" y="120" fill="white">50.123µs</text><text x="305" y="120" fill="white">48.259µs</text><text x="505" y="120" fill="white">64.393µs</text><text x="705" y="120" fill="white">182.049µs</text><text x="905" y="120" fill="white">163.985µs</text><text x="1105" y="120" fill="white">231.451µs</text><text x="5" y="150" fill="white">Day 3:</text><text x="105" y="150" fill="white">87.927µs</text><text x="305" y="150" fill="white">85.135µs</text><text x="505" y="150" fill="white">110.696µs</text><text x="705" y="150" fill="white">89.853µs</text><text x="905" y="150" fill="white">83.808µs</text><text x="1105" y="150" fill="white">143.871µs</text><text x="5" y="180" fill="white">Day 4:</text><text x="105" y="180" fill="white">69.73µs</text><text x="305" y="180" fill="white">65.72µs</text><text x="505" y="180" fill="white">112.094µs</text><text x="705" y="180" fill="white">42.978µs</text><text x="905" y="180" fill="white">34.221µs</text><text x="1105" y="180" fill="white">117.262µs</text><text x="5" y="210" fill="white">Day 5:</text><text x="105" y="210" fill="white">127.536µs</text><text x="305" y="210" fill="white">115.307µs</text><text x="505" y="210" fill="white">223.279µs</text><text x="705" y="210" fill="white">136.242µs</text><text x="905" y="210" fill="white">126.76µs</text><text x="1105" y="210" fill="white">191.501µs</text><text x="5" y="240" fill="white">Day 6:</text><text x="105" y="240" fill="white">48.974µs</text><text x="305" y="240" fill="white">42.393µs</text><text x="505" y="240" fill="white">186.404µs</text><text x="705" y="240" fill="white">9.846279ms</text><text x="905" y="240" fill="white">8.200215ms</text><text x="1105" y="240" fill="white">10.877609ms</text><text x="5" y="270" fill="white">Day 7:</text><text x="105" y="270" fill="white">298.36µs</text><text x="305" y="270" fill="white">257.152µs</text><text x="505" y="270" fill="white">384.47µs</text><text x="705" y="270" fill="white">10.558996ms</text><text x="905" y="270" fill="white">9.801931ms</text><text x="1105" y="270" fill="white">11.321723ms</text><text x="5" y="300" fill="white">Day 8:</text><text x="105" y="300" fill="white">12.229µs</text><text x="305" y="300" fill="white">10.337µs</text><text x="505" y="300" fill="white">42.882µs</text><text x="705" y="300" fill="white">27.626µs</text><text x="905" y="300" fill="white">23.326µs</text><text x="1105" y="300" fill="white">86.323µs</text><text x="5" y="330" fill="white">Day 9:</text><text x="105" y="330" fill="white">588.273µs</text><text x="305" y="330" fill="white">548.455µs</text><text x="505" y="330" fill="white">1.770937ms</text><text x="705" y="330" fill="white">20.405446ms</text><text x="905" y="330" fill="white">16.193496ms</text><text x="1105" y="330" fill="white">22.600007ms</text><text x="5" y="360" fill="white">Day 10:</text><text x="105" y="360" fill="white">137.284µs</text><text x="305" y="360" fill="white">117.751µs</text><text x="505" y="360" fill="white">303.944µs</text><text x="705" y="360" fill="white">49.085µs</text><text x="905" y="360" fill="white">36.177µs</text><text x="1105" y="360" fill="white">147.922µs</text><text x="5" y="390" fill="white">Day 11:</text><text x="105" y="390" fill="white">167.983µs</text><text x="305" y="390" fill="white">158.886µs</text><text x="505" y="390" fill="white">268.047µs</text><text x="705" y="390" fill="white">6.700318ms</text><text x="905" y="390" fill="white">6.54703ms</text><text x="1105" y="390" fill="white">7.579966ms</text><text x="5" y="420" fill="white">Day 12:</text><text x="105" y="420" fill="white">1.360415ms</text><text x="305" y="420" fill="white">1.020924ms</text><text x="505" y="420" fill="white">1.705987ms</text><text x="705" y="420" fill="white">46.965395ms</text><text x="905" y="420" fill="white">42.175804ms</text><text x="1105" y="420" fill="white">55.354164ms</text><text x="5" y="450" fill="white">Day 13:</text><text x="105" y="450" fill="white">54.536µs</text><text x="305" y="450" fill="white">50.425µs</text><text x="505" y="450" fill="white">100.43µs</text><text x="705" y="450" fill="white">52.354µs</text><text x="905" y="450" fill="white">50.634µs</text><text x="1105" y="450" fill="white">70.748µs</text><text x="5" y="480" fill="white">Day 14:</text><text x="105" y="480" fill="white">145.79µs</text><text x="305" y="480" fill="white">135.769µs</text><text x="505" y="480" fill="white">222.791µs</text><text x="705" y="480" fill="white">150.275µs</text><text x="905" y="480" fill="white">119.077µs</text><text x="1105" y="480" fill="white">266.72µs</text><text x="5" y="510" fill="white">Day 15:</text><text x="105" y="510" fill="white">442.432µs</text><text x="305" y="510" fill="white">428.819µs</text><text x="505" y="510" fill="white">519.053µs</text><text x="705" y="510" fill="white">875.21µs</text><text x="905" y="510" fill="white">845.136µs</text><text x="1105" y="510" fill="white">1.092301ms</text><text x="5" y="540" fill="white">Day 16:</text><text x="105" y="540" fill="white">1.086683ms</text><text x="305" y="540" fill="white">1.038734ms</text><text x="505" y="540" fill="white">1.576923ms</text><text x="705" y="540" fill="white">7.107348ms</text><text x="905" y="540" fill="white">6.916906ms</text><text x="1105" y="540" fill="white">8.797772ms</text><text x="5" y="570" fill="white">Day 17:</text><text x="105" y="570" fill="white">2.782µs</text><text x="305" y="570" fill="white">1.955µs</text><text x="505" y="570" fill="white">34.292µs</text><text x="705" y="570" fill="white">122.546µs</text><text x="905" y="570" fill="white">115.795µs</text><text x="1105" y="570" fill="white">166.219µs</text><text x="5" y="600" fill="white">Day 18:</text><text x="105" y="600" fill="white">384.941µs</text><text x="305" y="600" fill="white">369.664µs</text><text x="505" y="600" fill="white">540.982µs</text><text x="705" y="600" fill="white">4.148445ms</text><text x="905" y="600" fill="white">4.038301ms</text><text x="1105" y="600" fill="white">4.620211ms</text><text x="5" y="630" fill="white">Day 19:</text><text x="105" y="630" fill="white">775.619µs</text><text x="305" y="630" fill="white">213.013µs</text><text x="505" y="630" fill="white">3.717945ms</text><text x="705" y="630" fill="white">856.691µs</text><text x="905" y="630" fill="white">211.057µs</text><text x="1105" y="630" fill="white">3.651247ms</text><text x="5" y="660" fill="white">Day 20:</text><text x="105" y="660" fill="white">1.338441ms</text><text x="305" y="660" fill="white">1.162351ms</text><text x="505" y="660" fill="white">1.886803ms</text><text x="705" y="660" fill="white">23.805292ms</text><text x="905" y="660" fill="white">21.643207ms</text><text x="1105" y="660" fill="white">25.3182ms</text><text x="5" y="690" fill="white">Day 21:</text><text x="105" y="690" fill="white">504.403µs</text><text x="305" y="690" fill="white">474.285µs</text><text x="505" y="690" fill="white">814.128µs</text><text x="705" y="690" fill="white">531.057µs</text><text x="905" y="690" fill="white">477.288µs</text><text x="1105" y="690" fill="white">2.300607ms</text><text x="5" y="720" fill="white">Day 22:</text><text x="105" y="720" fill="white">16.53337ms</text><text x="305" y="720" fill="white">16.409384ms</text><text x="505" y="720" fill="white">17.337002ms</text><text x="705" y="720" fill="white">362.777434ms</text><text x="905" y="720" fill="white">335.815056ms</text><text x="1105" y="720" fill="white">421.974556ms</text><text x="5" y="750" fill="white">Day 23:</text><text x="105" y="750" fill="white">24.27476ms</text><text x="305" y="750" fill="white">23.830583ms</text><text x="505" y="750" fill="white">25.55529ms</text><text x="705" y="750" fill="white">41.764341ms</text><text x="905" y="750" fill="white">40.754378ms</text><text x="1105" y="750" fill="white">44.067952ms</text><text x="5" y="780" fill="white">Day 24:</text><text x="105" y="780" fill="white">105.722µs</text><text x="305" y="780" fill="white">94.983µs</text><text x="505" y="780" fill="white">158.049µs</text><text x="705" y="780" fill="white"></text><text x="905" y="780" fill="white"></text><text x="1105" y="780" fill="white"></text><text x="5" y="810" fill="white">Day 25:</text><text x="105" y="810" fill="white"></text><text x="305" y="810" fill="white"></text><text x="505" y="810" fill="white"></text><text x="705" y="810" fill="white">1.304µs</text><text x="905" y="810" fill="white">907ns</text><text x="1105" y="810" fill="white">1.886µs</text></svg>
