<svg height="830" width="1300" xmlns="http://www.w3.org/2000/svg"><rect width="100%" height="100%" fill="%230D1117" /><text x="10" y="30" fill="white">Year 2024</text><text x="305" y="30" fill="white">Part 1</text><text x="905" y="30" fill="white">Part 2</text><text x="105" y="60" fill="white">Average</text><text x="305" y="60" fill="white">Best</text><text x="505" y="60" fill="white">Worst</text><text x="705" y="60" fill="white">Average</text><text x="905" y="60" fill="white">Best</text><text x="1105" y="60" fill="white">Worst</text><text x="5" y="90" fill="white">Day 1:</text><text x="105" y="90" fill="white">77.684µs</text><text x="305" y="90" fill="white">126.412µs</text><text x="505" y="90" fill="white">74.73µs</text><text x="705" y="90" fill="white">64.498µs</text><text x="905" y="90" fill="white">93.796µs</text><text x="1105" y="90" fill="white">61.809µs</text><text x="5" y="120" fill="white">Day 2:</text><text x="105" y="120" fill="white">49.571µs</text><text x="305" y="120" fill="white">87.301µs</text><text x="505" y="120" fill="white">47.352µs</text><text x="705" y="120" fill="white">175.642µs</text><text x="905" y="120" fill="white">241.999µs</text><text x="1105" y="120" fill="white">166.78µs</text><text x="5" y="150" fill="white">Day 3:</text><text x="105" y="150" fill="white">89.36µs</text><text x="305" y="150" fill="white">131.72µs</text><text x="505" y="150" fill="white">85.276µs</text><text x="705" y="150" fill="white">88.476µs</text><text x="905" y="150" fill="white">162.45µs</text><text x="1105" y="150" fill="white">82.412µs</text><text x="5" y="180" fill="white">Day 4:</text><text x="105" y="180" fill="white">67.167µs</text><text x="305" y="180" fill="white">89.676µs</text><text x="505" y="180" fill="white">65.161µs</text><text x="705" y="180" fill="white">32.9µs</text><text x="905" y="180" fill="white">145.199µs</text><text x="1105" y="180" fill="white">29.124µs</text><text x="5" y="210" fill="white">Day 5:</text><text x="105" y="210" fill="white">128.491µs</text><text x="305" y="210" fill="white">200.583µs</text><text x="505" y="210" fill="white">120.825µs</text><text x="705" y="210" fill="white">137.421µs</text><text x="905" y="210" fill="white">329.509µs</text><text x="1105" y="210" fill="white">127.878µs</text><text x="5" y="240" fill="white">Day 6:</text><text x="105" y="240" fill="white">44.404µs</text><text x="305" y="240" fill="white">200.793µs</text><text x="505" y="240" fill="white">41.834µs</text><text x="705" y="240" fill="red">Missing, timeout or OOM!</text><text x="5" y="270" fill="white">Day 7:</text><text x="105" y="270" fill="red">Missing, timeout or OOM!</text><text x="705" y="270" fill="red">Missing, timeout or OOM!</text><text x="5" y="300" fill="white">Day 8:</text><text x="105" y="300" fill="white">12.34µs</text><text x="305" y="300" fill="white">45.048µs</text><text x="505" y="300" fill="white">10.476µs</text><text x="705" y="300" fill="white">24.988µs</text><text x="905" y="300" fill="white">87.999µs</text><text x="1105" y="300" fill="white">22.978µs</text><text x="5" y="330" fill="white">Day 9:</text><text x="105" y="330" fill="white">550.742µs</text><text x="305" y="330" fill="white">1.601731ms</text><text x="505" y="330" fill="white">528.347µs</text><text x="705" y="330" fill="red">Missing, timeout or OOM!</text><text x="5" y="360" fill="white">Day 10:</text><text x="105" y="360" fill="red">Missing, timeout or OOM!</text><text x="705" y="360" fill="white">52.218µs</text><text x="905" y="360" fill="white">309.047µs</text><text x="1105" y="360" fill="white">36.667µs</text><text x="5" y="390" fill="white">Day 11:</text><text x="105" y="390" fill="white">163.262µs</text><text x="305" y="390" fill="white">260.436µs</text><text x="505" y="390" fill="white">152.323µs</text><text x="705" y="390" fill="red">Missing, timeout or OOM!</text><text x="5" y="420" fill="white">Day 12:</text><text x="105" y="420" fill="red">Missing, timeout or OOM!</text><text x="705" y="420" fill="red">Missing, timeout or OOM!</text><text x="5" y="450" fill="white">Day 13:</text><text x="105" y="450" fill="white">46.471µs</text><text x="305" y="450" fill="white">85.975µs</text><text x="505" y="450" fill="white">43.86µs</text><text x="705" y="450" fill="white">49.457µs</text><text x="905" y="450" fill="white">101.2µs</text><text x="1105" y="450" fill="white">45.396µs</text><text x="5" y="480" fill="white">Day 14:</text><text x="105" y="480" fill="white">140.384µs</text><text x="305" y="480" fill="white">299.128µs</text><text x="505" y="480" fill="white">131.511µs</text><text x="705" y="480" fill="white">155.021µs</text><text x="905" y="480" fill="white">351.439µs</text><text x="1105" y="480" fill="white">114.539µs</text><text x="5" y="510" fill="white">Day 15:</text><text x="105" y="510" fill="white">444.732µs</text><text x="305" y="510" fill="white">604.124µs</text><text x="505" y="510" fill="white">428.404µs</text><text x="705" y="510" fill="white">865.621µs</text><text x="905" y="510" fill="white">1.621008ms</text><text x="1105" y="510" fill="white">831.945µs</text><text x="5" y="540" fill="white">Day 16:</text><text x="105" y="540" fill="red">Missing, timeout or OOM!</text><text x="705" y="540" fill="red">Missing, timeout or OOM!</text><text x="5" y="570" fill="white">Day 17:</text><text x="105" y="570" fill="white">2.235µs</text><text x="305" y="570" fill="white">21.721µs</text><text x="505" y="570" fill="white">977ns</text><text x="705" y="570" fill="white">118.463µs</text><text x="905" y="570" fill="white">184.171µs</text><text x="1105" y="570" fill="white">110.837µs</text><text x="5" y="600" fill="white">Day 18:</text><text x="105" y="600" fill="white">378.662µs</text><text x="305" y="600" fill="white">655.666µs</text><text x="505" y="600" fill="white">360.518µs</text><text x="705" y="600" fill="red">Missing, timeout or OOM!</text><text x="5" y="630" fill="white">Day 19:</text><text x="105" y="630" fill="red">Missing, timeout or OOM!</text><text x="705" y="630" fill="red">Missing, timeout or OOM!</text><text x="5" y="660" fill="white">Day 20:</text><text x="105" y="660" fill="red">Missing, timeout or OOM!</text><text x="705" y="660" fill="red">Missing, timeout or OOM!</text><text x="5" y="690" fill="white">Day 21:</text><text x="105" y="690" fill="white">479.614µs</text><text x="305" y="690" fill="white">771.742µs</text><text x="505" y="690" fill="white">449.427µs</text><text x="705" y="690" fill="white">493.326µs</text><text x="905" y="690" fill="white">2.563302ms</text><text x="1105" y="690" fill="white">454.036µs</text><text x="5" y="720" fill="white">Day 22:</text><text x="105" y="720" fill="red">Missing, timeout or OOM!</text><text x="705" y="720" fill="red">Missing, timeout or OOM!</text><text x="5" y="750" fill="white">Day 23:</text><text x="105" y="750" fill="red">Missing, timeout or OOM!</text><text x="705" y="750" fill="red">Missing, timeout or OOM!</text><text x="5" y="780" fill="white">Day 24:</text><text x="105" y="780" fill="white">95.66µs</text><text x="305" y="780" fill="white">304.996µs</text><text x="505" y="780" fill="white">91.631µs</text><text x="705" y="780" fill="white"></text><text x="905" y="780" fill="white"></text><text x="1105" y="780" fill="white"></text><text x="5" y="810" fill="white">Day 25:</text><text x="105" y="810" fill="white"></text><text x="305" y="810" fill="white"></text><text x="505" y="810" fill="white"></text><text x="705" y="810" fill="white">1.283µs</text><text x="905" y="810" fill="white">33.664µs</text><text x="1105" y="810" fill="white">907ns</text></svg>
