<svg height="830" width="1300" xmlns="http://www.w3.org/2000/svg"><rect width="100%" height="100%" fill="%230D1117" /><text x="10" y="30" fill="white">Year 2024</text><text x="305" y="30" fill="white">Part 1</text><text x="905" y="30" fill="white">Part 2</text><text x="105" y="60" fill="white">Average</text><text x="305" y="60" fill="white">Best</text><text x="505" y="60" fill="white">Worst</text><text x="705" y="60" fill="white">Average</text><text x="905" y="60" fill="white">Best</text><text x="1105" y="60" fill="white">Worst</text><text x="5" y="90" fill="white">Day 1:</text><text x="105" y="90" fill="white">81.631µs</text><text x="305" y="90" fill="white">128.927µs</text><text x="505" y="90" fill="white">75.986µs</text><text x="705" y="90" fill="white">69.08µs</text><text x="905" y="90" fill="white">118.729µs</text><text x="1105" y="90" fill="white">64.883µs</text><text x="5" y="120" fill="white">Day 2:</text><text x="105" y="120" fill="white">51.704µs</text><text x="305" y="120" fill="white">90.095µs</text><text x="505" y="120" fill="white">49.098µs</text><text x="705" y="120" fill="white">182.719µs</text><text x="905" y="120" fill="white">222.792µs</text><text x="1105" y="120" fill="white">172.647µs</text><text x="5" y="150" fill="white">Day 3:</text><text x="105" y="150" fill="white">85.735µs</text><text x="305" y="150" fill="white">141.148µs</text><text x="505" y="150" fill="white">81.155µs</text><text x="705" y="150" fill="white">85.648µs</text><text x="905" y="150" fill="white">125.783µs</text><text x="1105" y="150" fill="white">81.923µs</text><text x="5" y="180" fill="white">Day 4:</text><text x="105" y="180" fill="white">69.92µs</text><text x="305" y="180" fill="white">110.139µs</text><text x="505" y="180" fill="white">66.698µs</text><text x="705" y="180" fill="white">32.447µs</text><text x="905" y="180" fill="white">103.085µs</text><text x="1105" y="180" fill="white">29.613µs</text><text x="5" y="210" fill="white">Day 5:</text><text x="105" y="210" fill="white">131.213µs</text><text x="305" y="210" fill="white">289.56µs</text><text x="505" y="210" fill="white">122.152µs</text><text x="705" y="210" fill="white">140.364µs</text><text x="905" y="210" fill="white">224.049µs</text><text x="1105" y="210" fill="white">130.254µs</text><text x="5" y="240" fill="white">Day 6:</text><text x="105" y="240" fill="white">48.304µs</text><text x="305" y="240" fill="white">192.97µs</text><text x="505" y="240" fill="white">45.187µs</text><text x="705" y="240" fill="red">Missing, timeout or OOM!</text><text x="5" y="270" fill="white">Day 7:</text><text x="105" y="270" fill="red">Missing, timeout or OOM!</text><text x="705" y="270" fill="red">Missing, timeout or OOM!</text><text x="5" y="300" fill="white">Day 8:</text><text x="105" y="300" fill="white">16.056µs</text><text x="305" y="300" fill="white">60.552µs</text><text x="505" y="300" fill="white">13.759µs</text><text x="705" y="300" fill="white">27.572µs</text><text x="905" y="300" fill="white">107.136µs</text><text x="1105" y="300" fill="white">25.283µs</text><text x="5" y="330" fill="white">Day 9:</text><text x="105" y="330" fill="white">561.591µs</text><text x="305" y="330" fill="white">1.628758ms</text><text x="505" y="330" fill="white">533.864µs</text><text x="705" y="330" fill="red">Missing, timeout or OOM!</text><text x="5" y="360" fill="white">Day 10:</text><text x="105" y="360" fill="red">Missing, timeout or OOM!</text><text x="705" y="360" fill="white">55.116µs</text><text x="905" y="360" fill="white">279.573µs</text><text x="1105" y="360" fill="white">45.257µs</text><text x="5" y="390" fill="white">Day 11:</text><text x="105" y="390" fill="white">169.71µs</text><text x="305" y="390" fill="white">312.398µs</text><text x="505" y="390" fill="white">156.933µs</text><text x="705" y="390" fill="red">Missing, timeout or OOM!</text><text x="5" y="420" fill="white">Day 12:</text><text x="105" y="420" fill="red">Missing, timeout or OOM!</text><text x="705" y="420" fill="red">Missing, timeout or OOM!</text><text x="5" y="450" fill="white">Day 13:</text><text x="105" y="450" fill="white">53.502µs</text><text x="305" y="450" fill="white">547.762µs</text><text x="505" y="450" fill="white">47.282µs</text><text x="705" y="450" fill="white">49.067µs</text><text x="905" y="450" fill="white">108.113µs</text><text x="1105" y="450" fill="white">45.117µs</text><text x="5" y="480" fill="white">Day 14:</text><text x="105" y="480" fill="white">141.393µs</text><text x="305" y="480" fill="white">205.821µs</text><text x="505" y="480" fill="white">133.116µs</text><text x="705" y="480" fill="red">Missing, timeout or OOM!</text><text x="5" y="510" fill="white">Day 15:</text><text x="105" y="510" fill="white">454.065µs</text><text x="305" y="510" fill="white">662.301µs</text><text x="505" y="510" fill="white">435.667µs</text><text x="705" y="510" fill="white">886.655µs</text><text x="905" y="510" fill="white">1.146158ms</text><text x="1105" y="510" fill="white">841.442µs</text><text x="5" y="540" fill="white">Day 16:</text><text x="105" y="540" fill="red">Missing, timeout or OOM!</text><text x="705" y="540" fill="red">Missing, timeout or OOM!</text><text x="5" y="570" fill="white">Day 17:</text><text x="105" y="570" fill="white">2.27µs</text><text x="305" y="570" fill="white">23.885µs</text><text x="505" y="570" fill="white">978ns</text><text x="705" y="570" fill="white">120.721µs</text><text x="905" y="570" fill="white">157.98µs</text><text x="1105" y="570" fill="white">111.396µs</text><text x="5" y="600" fill="white">Day 18:</text><text x="105" y="600" fill="white">388.76µs</text><text x="305" y="600" fill="white">533.793µs</text><text x="505" y="600" fill="white">373.229µs</text><text x="705" y="600" fill="red">Missing, timeout or OOM!</text><text x="5" y="630" fill="white">Day 19:</text><text x="105" y="630" fill="red">Missing, timeout or OOM!</text><text x="705" y="630" fill="red">Missing, timeout or OOM!</text><text x="5" y="660" fill="white">Day 20:</text><text x="105" y="660" fill="red">Missing, timeout or OOM!</text><text x="705" y="660" fill="red">Missing, timeout or OOM!</text><text x="5" y="690" fill="white">Day 21:</text><text x="105" y="690" fill="white">498.004µs</text><text x="305" y="690" fill="white">1.112216ms</text><text x="505" y="690" fill="white">461.648µs</text><text x="705" y="690" fill="white">504.752µs</text><text x="905" y="690" fill="white">2.312709ms</text><text x="1105" y="690" fill="white">471.705µs</text><text x="5" y="720" fill="white">Day 22:</text><text x="105" y="720" fill="red">Missing, timeout or OOM!</text><text x="705" y="720" fill="red">Missing, timeout or OOM!</text><text x="5" y="750" fill="white">Day 23:</text><text x="105" y="750" fill="red">Missing, timeout or OOM!</text><text x="705" y="750" fill="red">Missing, timeout or OOM!</text><text x="5" y="780" fill="white">Day 24:</text><text x="105" y="780" fill="white">95.872µs</text><text x="305" y="780" fill="white">159.377µs</text><text x="505" y="780" fill="white">92.19µs</text><text x="705" y="780" fill="white"></text><text x="905" y="780" fill="white"></text><text x="1105" y="780" fill="white"></text><text x="5" y="810" fill="white">Day 25:</text><text x="105" y="810" fill="white"></text><text x="305" y="810" fill="white"></text><text x="505" y="810" fill="white"></text><text x="705" y="810" fill="white">1.2µs</text><text x="905" y="810" fill="white">10.057µs</text><text x="1105" y="810" fill="white">838ns</text></svg>
