<svg height="830" width="1300" xmlns="http://www.w3.org/2000/svg"><rect width="100%" height="100%" fill="%230D1117" /><text x="10" y="30" fill="white">Year 2024</text><text x="305" y="30" fill="white">Part 1</text><text x="905" y="30" fill="white">Part 2</text><text x="105" y="60" fill="white">Average</text><text x="305" y="60" fill="white">Best</text><text x="505" y="60" fill="white">Worst</text><text x="705" y="60" fill="white">Average</text><text x="905" y="60" fill="white">Best</text><text x="1105" y="60" fill="white">Worst</text><text x="5" y="90" fill="white">Day 1:</text><text x="105" y="90" fill="white">114.819µs</text><text x="305" y="90" fill="white">262.755µs</text><text x="505" y="90" fill="white">108.705µs</text><text x="705" y="90" fill="white">98.597µs</text><text x="905" y="90" fill="white">355.629µs</text><text x="1105" y="90" fill="white">91.502µs</text><text x="5" y="120" fill="white">Day 2:</text><text x="105" y="120" fill="white">100.181µs</text><text x="305" y="120" fill="white">245.593µs</text><text x="505" y="120" fill="white">91.282µs</text><text x="705" y="120" fill="white">275.731µs</text><text x="905" y="120" fill="white">434.027µs</text><text x="1105" y="120" fill="white">265.34µs</text><text x="5" y="150" fill="white">Day 3:</text><text x="105" y="150" fill="white">125.33µs</text><text x="305" y="150" fill="white">189.326µs</text><text x="505" y="150" fill="white">120.506µs</text><text x="705" y="150" fill="white">124.468µs</text><text x="905" y="150" fill="white">199.916µs</text><text x="1105" y="150" fill="white">120.758µs</text><text x="5" y="180" fill="white">Day 4:</text><text x="105" y="180" fill="white">91.619µs</text><text x="305" y="180" fill="white">1.191474ms</text><text x="505" y="180" fill="white">84.65µs</text><text x="705" y="180" fill="white">87.995µs</text><text x="905" y="180" fill="white">143.871µs</text><text x="1105" y="180" fill="white">82.555µs</text><text x="5" y="210" fill="white">Day 5:</text><text x="105" y="210" fill="white">209.35µs</text><text x="305" y="210" fill="white">835.443µs</text><text x="505" y="210" fill="white">195.678µs</text><text x="705" y="210" fill="white">202.545µs</text><text x="905" y="210" fill="white">928.679µs</text><text x="1105" y="210" fill="white">193.634µs</text><text x="5" y="240" fill="white">Day 6:</text><text x="105" y="240" fill="white">58.674µs</text><text x="305" y="240" fill="white">269.578µs</text><text x="505" y="240" fill="white">55.054µs</text><text x="705" y="240" fill="red">Missing or timeout!</text><text x="5" y="270" fill="white">Day 7:</text><text x="105" y="270" fill="white">328.427µs</text><text x="305" y="270" fill="white">2.37338ms</text><text x="505" y="270" fill="white">235.714µs</text><text x="705" y="270" fill="red">Missing or timeout!</text><text x="5" y="300" fill="white">Day 8:</text><text x="105" y="300" fill="white">11.906µs</text><text x="305" y="300" fill="white">159.34µs</text><text x="505" y="300" fill="white">11.031µs</text><text x="705" y="300" fill="white">25.184µs</text><text x="905" y="300" fill="white">136.788µs</text><text x="1105" y="300" fill="white">23.504µs</text><text x="5" y="330" fill="white">Day 9:</text><text x="105" y="330" fill="white">712.8µs</text><text x="305" y="330" fill="white">1.859492ms</text><text x="505" y="330" fill="white">648.28µs</text><text x="705" y="330" fill="red">Missing or timeout!</text><text x="5" y="360" fill="white">Day 10:</text><text x="105" y="360" fill="white">234.578µs</text><text x="305" y="360" fill="white">3.67926ms</text><text x="505" y="360" fill="white">130.646µs</text><text x="705" y="360" fill="white">105.149µs</text><text x="905" y="360" fill="white">1.132884ms</text><text x="1105" y="360" fill="white">43.401µs</text><text x="5" y="390" fill="white">Day 11:</text><text x="105" y="390" fill="white">227.914µs</text><text x="305" y="390" fill="white">860.2µs</text><text x="505" y="390" fill="white">208.833µs</text><text x="705" y="390" fill="red">Missing or timeout!</text><text x="5" y="420" fill="white">Day 12:</text><text x="105" y="420" fill="white">1.698451ms</text><text x="305" y="420" fill="white">5.664699ms</text><text x="505" y="420" fill="white">1.10471ms</text><text x="705" y="420" fill="red">Missing or timeout!</text><text x="5" y="450" fill="white">Day 13:</text><text x="105" y="450" fill="white">77.195µs</text><text x="305" y="450" fill="white">119.645µs</text><text x="505" y="450" fill="white">72.086µs</text><text x="705" y="450" fill="white">82.849µs</text><text x="905" y="450" fill="white">529.367µs</text><text x="1105" y="450" fill="white">74.61µs</text><text x="5" y="480" fill="white">Day 14:</text><text x="105" y="480" fill="white">172.624µs</text><text x="305" y="480" fill="white">302.76µs</text><text x="505" y="480" fill="white">160.903µs</text><text x="705" y="480" fill="white">205.497µs</text><text x="905" y="480" fill="white">1.872366ms</text><text x="1105" y="480" fill="white">134.704µs</text><text x="5" y="510" fill="white">Day 15:</text><text x="105" y="510" fill="white">632.952µs</text><text x="305" y="510" fill="white">1.490076ms</text><text x="505" y="510" fill="white">573.41µs</text><text x="705" y="510" fill="white">1.189821ms</text><text x="905" y="510" fill="white">2.301635ms</text><text x="1105" y="510" fill="white">1.090634ms</text><text x="5" y="540" fill="white">Day 16:</text><text x="105" y="540" fill="white">1.458342ms</text><text x="305" y="540" fill="white">2.395602ms</text><text x="505" y="540" fill="white">1.361264ms</text><text x="705" y="540" fill="red">Missing or timeout!</text><text x="5" y="570" fill="white">Day 17:</text><text x="105" y="570" fill="white">1.495µs</text><text x="305" y="570" fill="white">23.684µs</text><text x="505" y="570" fill="white">1.432µs</text><text x="705" y="570" fill="white">218.004µs</text><text x="905" y="570" fill="white">782.444µs</text><text x="1105" y="570" fill="white">178.316µs</text><text x="5" y="600" fill="white">Day 18:</text><text x="105" y="600" fill="white">597.084µs</text><text x="305" y="600" fill="white">1.286914ms</text><text x="505" y="600" fill="white">486.837µs</text><text x="705" y="600" fill="red">Missing or timeout!</text><text x="5" y="630" fill="white">Day 19:</text><text x="105" y="630" fill="white">380.728µs</text><text x="305" y="630" fill="white">5.045393ms</text><text x="505" y="630" fill="white">152.888µs</text><text x="705" y="630" fill="white">339.756µs</text><text x="905" y="630" fill="white">6.023685ms</text><text x="1105" y="630" fill="white">160.322µs</text><text x="5" y="660" fill="white">Day 20:</text><text x="105" y="660" fill="white">2.061142ms</text><text x="305" y="660" fill="white">4.727905ms</text><text x="505" y="660" fill="white">1.328082ms</text><text x="705" y="660" fill="red">Missing or timeout!</text><text x="5" y="690" fill="white">Day 21:</text><text x="105" y="690" fill="white">670.739µs</text><text x="305" y="690" fill="white">1.764664ms</text><text x="505" y="690" fill="white">607.184µs</text><text x="705" y="690" fill="white">686.79µs</text><text x="905" y="690" fill="white">3.629466ms</text><text x="1105" y="690" fill="white">616.602µs</text><text x="5" y="720" fill="white">Day 22:</text><text x="105" y="720" fill="red">Missing or timeout!</text><text x="705" y="720" fill="red">Missing or timeout!</text><text x="5" y="750" fill="white">Day 23:</text><text x="105" y="750" fill="red">Missing or timeout!</text><text x="705" y="750" fill="red">Missing or timeout!</text><text x="5" y="780" fill="white">Day 24:</text><text x="105" y="780" fill="white">154.974µs</text><text x="305" y="780" fill="white">780.039µs</text><text x="505" y="780" fill="white">132.71µs</text><text x="705" y="780" fill="white"></text><text x="905" y="780" fill="white"></text><text x="1105" y="780" fill="white"></text><text x="5" y="810" fill="white">Day 25:</text><text x="105" y="810" fill="white"></text><text x="305" y="810" fill="white"></text><text x="505" y="810" fill="white"></text><text x="705" y="810" fill="white">36ns</text><text x="905" y="810" fill="white">481ns</text><text x="1105" y="810" fill="white">30ns</text></svg>
