<svg height="830" width="1300" xmlns="http://www.w3.org/2000/svg"><rect width="100%" height="100%" fill="%230D1117" /><text x="10" y="30" fill="white">Year 2024</text><text x="305" y="30" fill="white">Part 1</text><text x="905" y="30" fill="white">Part 2</text><text x="105" y="60" fill="white">Average</text><text x="305" y="60" fill="white">Best</text><text x="505" y="60" fill="white">Worst</text><text x="705" y="60" fill="white">Average</text><text x="905" y="60" fill="white">Best</text><text x="1105" y="60" fill="white">Worst</text><text x="5" y="90" fill="white">Day 1:</text><text x="105" y="90" fill="white">80.765µs</text><text x="305" y="90" fill="white">74.378µs</text><text x="505" y="90" fill="white">148.129µs</text><text x="705" y="90" fill="white">64.779µs</text><text x="905" y="90" fill="white">62.367µs</text><text x="1105" y="90" fill="white">88.695µs</text><text x="5" y="120" fill="white">Day 2:</text><text x="105" y="120" fill="white">51.243µs</text><text x="305" y="120" fill="white">48.259µs</text><text x="505" y="120" fill="white">66.068µs</text><text x="705" y="120" fill="white">192.744µs</text><text x="905" y="120" fill="white">176.693µs</text><text x="1105" y="120" fill="white">250.653µs</text><text x="5" y="150" fill="white">Day 3:</text><text x="105" y="150" fill="white">90.644µs</text><text x="305" y="150" fill="white">85.204µs</text><text x="505" y="150" fill="white">126.898µs</text><text x="705" y="150" fill="white">90.782µs</text><text x="905" y="150" fill="white">88.556µs</text><text x="1105" y="150" fill="white">108.6µs</text><text x="5" y="180" fill="white">Day 4:</text><text x="105" y="180" fill="white">72.264µs</text><text x="305" y="180" fill="white">68.931µs</text><text x="505" y="180" fill="white">105.876µs</text><text x="705" y="180" fill="white">41.395µs</text><text x="905" y="180" fill="white">35.269µs</text><text x="1105" y="180" fill="white">102.175µs</text><text x="5" y="210" fill="white">Day 5:</text><text x="105" y="210" fill="white">125.495µs</text><text x="305" y="210" fill="white">119.216µs</text><text x="505" y="210" fill="white">193.734µs</text><text x="705" y="210" fill="white">139.119µs</text><text x="905" y="210" fill="white">134.091µs</text><text x="1105" y="210" fill="white">221.6µs</text><text x="5" y="240" fill="white">Day 6:</text><text x="105" y="240" fill="white">44.59µs</text><text x="305" y="240" fill="white">41.066µs</text><text x="505" y="240" fill="white">158.884µs</text><text x="705" y="240" fill="white">10.447919ms</text><text x="905" y="240" fill="white">7.927933ms</text><text x="1105" y="240" fill="white">12.152854ms</text><text x="5" y="270" fill="white">Day 7:</text><text x="105" y="270" fill="white">284.848µs</text><text x="305" y="270" fill="white">246.183µs</text><text x="505" y="270" fill="white">360.719µs</text><text x="705" y="270" fill="white">11.09313ms</text><text x="905" y="270" fill="white">9.831051ms</text><text x="1105" y="270" fill="white">12.258731ms</text><text x="5" y="300" fill="white">Day 8:</text><text x="105" y="300" fill="white">12.546µs</text><text x="305" y="300" fill="white">11.244µs</text><text x="505" y="300" fill="white">42.322µs</text><text x="705" y="300" fill="white">26.957µs</text><text x="905" y="300" fill="white">24.863µs</text><text x="1105" y="300" fill="white">86.81µs</text><text x="5" y="330" fill="white">Day 9:</text><text x="105" y="330" fill="white">613.699µs</text><text x="305" y="330" fill="white">574.358µs</text><text x="505" y="330" fill="white">1.685568ms</text><text x="705" y="330" fill="white">20.632107ms</text><text x="905" y="330" fill="white">17.223319ms</text><text x="1105" y="330" fill="white">22.413417ms</text><text x="5" y="360" fill="white">Day 10:</text><text x="105" y="360" fill="white">135.814µs</text><text x="305" y="360" fill="white">118.727µs</text><text x="505" y="360" fill="white">254.285µs</text><text x="705" y="360" fill="white">46.873µs</text><text x="905" y="360" fill="white">38.621µs</text><text x="1105" y="360" fill="white">122.986µs</text><text x="5" y="390" fill="white">Day 11:</text><text x="105" y="390" fill="white">176.096µs</text><text x="305" y="390" fill="white">165.938µs</text><text x="505" y="390" fill="white">270.557µs</text><text x="705" y="390" fill="white">6.859149ms</text><text x="905" y="390" fill="white">6.628018ms</text><text x="1105" y="390" fill="white">7.682102ms</text><text x="5" y="420" fill="white">Day 12:</text><text x="105" y="420" fill="white">1.396802ms</text><text x="305" y="420" fill="white">1.039207ms</text><text x="505" y="420" fill="white">2.14958ms</text><text x="705" y="420" fill="white">50.909491ms</text><text x="905" y="420" fill="white">42.340154ms</text><text x="1105" y="420" fill="white">60.356712ms</text><text x="5" y="450" fill="white">Day 13:</text><text x="105" y="450" fill="white">55.607µs</text><text x="305" y="450" fill="white">53.497µs</text><text x="505" y="450" fill="white">86.741µs</text><text x="705" y="450" fill="white">55.573µs</text><text x="905" y="450" fill="white">53.427µs</text><text x="1105" y="450" fill="white">77.591µs</text><text x="5" y="480" fill="white">Day 14:</text><text x="105" y="480" fill="white">151.997µs</text><text x="305" y="480" fill="white">142.961µs</text><text x="505" y="480" fill="white">227.047µs</text><text x="705" y="480" fill="white">152.366µs</text><text x="905" y="480" fill="white">125.99µs</text><text x="1105" y="480" fill="white">210.495µs</text><text x="5" y="510" fill="white">Day 15:</text><text x="105" y="510" fill="white">505.992µs</text><text x="305" y="510" fill="white">487.477µs</text><text x="505" y="510" fill="white">653.625µs</text><text x="705" y="510" fill="white">899.077µs</text><text x="905" y="510" fill="white">863.282µs</text><text x="1105" y="510" fill="white">1.153743ms</text><text x="5" y="540" fill="white">Day 16:</text><text x="105" y="540" fill="white">1.091577ms</text><text x="305" y="540" fill="white">1.043049ms</text><text x="505" y="540" fill="white">1.641501ms</text><text x="705" y="540" fill="white">7.690521ms</text><text x="905" y="540" fill="white">7.083443ms</text><text x="1105" y="540" fill="white">8.773902ms</text><text x="5" y="570" fill="white">Day 17:</text><text x="105" y="570" fill="white">2.448µs</text><text x="305" y="570" fill="white">908ns</text><text x="505" y="570" fill="white">31.916µs</text><text x="705" y="570" fill="white">137.234µs</text><text x="905" y="570" fill="white">123.546µs</text><text x="1105" y="570" fill="white">266.087µs</text><text x="5" y="600" fill="white">Day 18:</text><text x="105" y="600" fill="white">409.162µs</text><text x="305" y="600" fill="white">387.817µs</text><text x="505" y="600" fill="white">579.177µs</text><text x="705" y="600" fill="white">4.488922ms</text><text x="905" y="600" fill="white">4.148659ms</text><text x="1105" y="600" fill="white">5.379436ms</text><text x="5" y="630" fill="white">Day 19:</text><text x="105" y="630" fill="white">898.38µs</text><text x="305" y="630" fill="white">270.347µs</text><text x="505" y="630" fill="white">3.365482ms</text><text x="705" y="630" fill="white">938.542µs</text><text x="905" y="630" fill="white">162.725µs</text><text x="1105" y="630" fill="white">4.080845ms</text><text x="5" y="660" fill="white">Day 20:</text><text x="105" y="660" fill="white">1.385444ms</text><text x="305" y="660" fill="white">1.188454ms</text><text x="505" y="660" fill="white">1.864009ms</text><text x="705" y="660" fill="white">27.054134ms</text><text x="905" y="660" fill="white">23.069573ms</text><text x="1105" y="660" fill="white">32.087633ms</text><text x="5" y="690" fill="white">Day 21:</text><text x="105" y="690" fill="white">517.948µs</text><text x="305" y="690" fill="white">491.668µs</text><text x="505" y="690" fill="white">975.654µs</text><text x="705" y="690" fill="white">545.797µs</text><text x="905" y="690" fill="white">493.135µs</text><text x="1105" y="690" fill="white">2.468328ms</text><text x="5" y="720" fill="white">Day 22:</text><text x="105" y="720" fill="white">17.107646ms</text><text x="305" y="720" fill="white">16.407543ms</text><text x="505" y="720" fill="white">19.01548ms</text><text x="705" y="720" fill="white">362.950324ms</text><text x="905" y="720" fill="white">331.19085ms</text><text x="1105" y="720" fill="white">397.609276ms</text><text x="5" y="750" fill="white">Day 23:</text><text x="105" y="750" fill="white">24.446506ms</text><text x="305" y="750" fill="white">23.934451ms</text><text x="505" y="750" fill="white">25.692867ms</text><text x="705" y="750" fill="white">41.73823ms</text><text x="905" y="750" fill="white">40.838528ms</text><text x="1105" y="750" fill="white">45.194685ms</text><text x="5" y="780" fill="white">Day 24:</text><text x="105" y="780" fill="white">100.1µs</text><text x="305" y="780" fill="white">94.143µs</text><text x="505" y="780" fill="white">162.027µs</text><text x="705" y="780" fill="white"></text><text x="905" y="780" fill="white"></text><text x="1105" y="780" fill="white"></text><text x="5" y="810" fill="white">Day 25:</text><text x="105" y="810" fill="white"></text><text x="305" y="810" fill="white"></text><text x="505" y="810" fill="white"></text><text x="705" y="810" fill="white">1.414µs</text><text x="905" y="810" fill="white">907ns</text><text x="1105" y="810" fill="white">9.987µs</text></svg>
