<svg height="830" width="1300" xmlns="http://www.w3.org/2000/svg"><rect width="100%" height="100%" fill="%230D1117" /><text x="10" y="30" fill="white">Year 2024</text><text x="305" y="30" fill="white">Part 1</text><text x="905" y="30" fill="white">Part 2</text><text x="105" y="60" fill="white">Average</text><text x="305" y="60" fill="white">Best</text><text x="505" y="60" fill="white">Worst</text><text x="705" y="60" fill="white">Average</text><text x="905" y="60" fill="white">Best</text><text x="1105" y="60" fill="white">Worst</text><text x="5" y="90" fill="white">Day 1:</text><text x="105" y="90" fill="white">76.591µs</text><text x="305" y="90" fill="white">71.937µs</text><text x="505" y="90" fill="white">107.276µs</text><text x="705" y="90" fill="white">66.927µs</text><text x="905" y="90" fill="white">62.578µs</text><text x="1105" y="90" fill="white">114.89µs</text><text x="5" y="120" fill="white">Day 2:</text><text x="105" y="120" fill="white">53.112µs</text><text x="305" y="120" fill="white">50.007µs</text><text x="505" y="120" fill="white">77.175µs</text><text x="705" y="120" fill="white">182.247µs</text><text x="905" y="120" fill="white">171.6µs</text><text x="1105" y="120" fill="white">254.293µs</text><text x="5" y="150" fill="white">Day 3:</text><text x="105" y="150" fill="white">89.235µs</text><text x="305" y="150" fill="white">87.232µs</text><text x="505" y="150" fill="white">126.971µs</text><text x="705" y="150" fill="white">88.678µs</text><text x="905" y="150" fill="white">82.063µs</text><text x="1105" y="150" fill="white">141.499µs</text><text x="5" y="180" fill="white">Day 4:</text><text x="105" y="180" fill="white">76.099µs</text><text x="305" y="180" fill="white">67.747µs</text><text x="505" y="180" fill="white">115.797µs</text><text x="705" y="180" fill="white">49.479µs</text><text x="905" y="180" fill="white">35.27µs</text><text x="1105" y="180" fill="white">130.533µs</text><text x="5" y="210" fill="white">Day 5:</text><text x="105" y="210" fill="white">129.343µs</text><text x="305" y="210" fill="white">120.127µs</text><text x="505" y="210" fill="white">205.823µs</text><text x="705" y="210" fill="white">144.119µs</text><text x="905" y="210" fill="white">130.045µs</text><text x="1105" y="210" fill="white">235.575µs</text><text x="5" y="240" fill="white">Day 6:</text><text x="105" y="240" fill="white">48.908µs</text><text x="305" y="240" fill="white">43.791µs</text><text x="505" y="240" fill="white">174.534µs</text><text x="705" y="240" fill="white">10.199004ms</text><text x="905" y="240" fill="white">7.954668ms</text><text x="1105" y="240" fill="white">11.673239ms</text><text x="5" y="270" fill="white">Day 7:</text><text x="105" y="270" fill="white">340.603µs</text><text x="305" y="270" fill="white">258.274µs</text><text x="505" y="270" fill="white">632.345µs</text><text x="705" y="270" fill="white">10.912995ms</text><text x="905" y="270" fill="white">10.083157ms</text><text x="1105" y="270" fill="white">12.327095ms</text><text x="5" y="300" fill="white">Day 8:</text><text x="105" y="300" fill="white">13.648µs</text><text x="305" y="300" fill="white">11.384µs</text><text x="505" y="300" fill="white">49.238µs</text><text x="705" y="300" fill="white">33.677µs</text><text x="905" y="300" fill="white">27.098µs</text><text x="1105" y="300" fill="white">96.521µs</text><text x="5" y="330" fill="white">Day 9:</text><text x="105" y="330" fill="white">662.635µs</text><text x="305" y="330" fill="white">603.501µs</text><text x="505" y="330" fill="white">1.860298ms</text><text x="705" y="330" fill="white">20.562064ms</text><text x="905" y="330" fill="white">16.733535ms</text><text x="1105" y="330" fill="white">22.50824ms</text><text x="5" y="360" fill="white">Day 10:</text><text x="105" y="360" fill="white">141.307µs</text><text x="305" y="360" fill="white">121.175µs</text><text x="505" y="360" fill="white">286.281µs</text><text x="705" y="360" fill="white">53.45µs</text><text x="905" y="360" fill="white">40.369µs</text><text x="1105" y="360" fill="white">140.731µs</text><text x="5" y="390" fill="white">Day 11:</text><text x="105" y="390" fill="white">179.415µs</text><text x="305" y="390" fill="white">166.292µs</text><text x="505" y="390" fill="white">285.302µs</text><text x="705" y="390" fill="white">7.229121ms</text><text x="905" y="390" fill="white">6.666651ms</text><text x="1105" y="390" fill="white">8.311069ms</text><text x="5" y="420" fill="white">Day 12:</text><text x="105" y="420" fill="white">1.438129ms</text><text x="305" y="420" fill="white">1.13695ms</text><text x="505" y="420" fill="white">1.896616ms</text><text x="705" y="420" fill="white">50.652683ms</text><text x="905" y="420" fill="white">43.690261ms</text><text x="1105" y="420" fill="white">62.085604ms</text><text x="5" y="450" fill="white">Day 13:</text><text x="105" y="450" fill="white">62.495µs</text><text x="305" y="450" fill="white">54.477µs</text><text x="505" y="450" fill="white">111.467µs</text><text x="705" y="450" fill="white">62.487µs</text><text x="905" y="450" fill="white">56.153µs</text><text x="1105" y="450" fill="white">136.401µs</text><text x="5" y="480" fill="white">Day 14:</text><text x="105" y="480" fill="white">154.098µs</text><text x="305" y="480" fill="white">146.317µs</text><text x="505" y="480" fill="white">185.987µs</text><text x="705" y="480" fill="white">176.555µs</text><text x="905" y="480" fill="white">134.864µs</text><text x="1105" y="480" fill="white">361.01µs</text><text x="5" y="510" fill="white">Day 15:</text><text x="105" y="510" fill="white">478.049µs</text><text x="305" y="510" fill="white">450.618µs</text><text x="505" y="510" fill="white">657.348µs</text><text x="705" y="510" fill="white">914.679µs</text><text x="905" y="510" fill="white">873.298µs</text><text x="1105" y="510" fill="white">1.06613ms</text><text x="5" y="540" fill="white">Day 16:</text><text x="105" y="540" fill="white">1.099751ms</text><text x="305" y="540" fill="white">1.036797ms</text><text x="505" y="540" fill="white">1.654964ms</text><text x="705" y="540" fill="white">7.221247ms</text><text x="905" y="540" fill="white">7.000983ms</text><text x="1105" y="540" fill="white">8.36785ms</text><text x="5" y="570" fill="white">Day 17:</text><text x="105" y="570" fill="white">2.528µs</text><text x="305" y="570" fill="white">1.816µs</text><text x="505" y="570" fill="white">22.419µs</text><text x="705" y="570" fill="white">123.419µs</text><text x="905" y="570" fill="white">114.749µs</text><text x="1105" y="570" fill="white">183.753µs</text><text x="5" y="600" fill="white">Day 18:</text><text x="105" y="600" fill="white">391.39µs</text><text x="305" y="600" fill="white">377.284µs</text><text x="505" y="600" fill="white">530.866µs</text><text x="705" y="600" fill="white">4.385851ms</text><text x="905" y="600" fill="white">4.03607ms</text><text x="1105" y="600" fill="white">5.651784ms</text><text x="5" y="630" fill="white">Day 19:</text><text x="105" y="630" fill="white">867.881µs</text><text x="305" y="630" fill="white">174.115µs</text><text x="505" y="630" fill="white">3.500736ms</text><text x="705" y="630" fill="white">966.63µs</text><text x="905" y="630" fill="white">160.636µs</text><text x="1105" y="630" fill="white">4.167931ms</text><text x="5" y="660" fill="white">Day 20:</text><text x="105" y="660" fill="white">1.467481ms</text><text x="305" y="660" fill="white">1.167611ms</text><text x="505" y="660" fill="white">2.002705ms</text><text x="705" y="660" fill="white">23.978942ms</text><text x="905" y="660" fill="white">21.85697ms</text><text x="1105" y="660" fill="white">27.887225ms</text><text x="5" y="690" fill="white">Day 21:</text><text x="105" y="690" fill="white">495.052µs</text><text x="305" y="690" fill="white">461.582µs</text><text x="505" y="690" fill="white">799.825µs</text><text x="705" y="690" fill="white">523.311µs</text><text x="905" y="690" fill="white">464.097µs</text><text x="1105" y="690" fill="white">2.259443ms</text><text x="5" y="720" fill="white">Day 22:</text><text x="105" y="720" fill="white">16.57378ms</text><text x="305" y="720" fill="white">16.409961ms</text><text x="505" y="720" fill="white">17.767401ms</text><text x="705" y="720" fill="white">372.368171ms</text><text x="905" y="720" fill="white">334.557086ms</text><text x="1105" y="720" fill="white">442.555376ms</text><text x="5" y="750" fill="white">Day 23:</text><text x="105" y="750" fill="white">24.404618ms</text><text x="305" y="750" fill="white">23.801432ms</text><text x="505" y="750" fill="white">27.40323ms</text><text x="705" y="750" fill="white">41.819881ms</text><text x="905" y="750" fill="white">40.711953ms</text><text x="1105" y="750" fill="white">45.103797ms</text><text x="5" y="780" fill="white">Day 24:</text><text x="105" y="780" fill="white">101.541µs</text><text x="305" y="780" fill="white">93.937µs</text><text x="505" y="780" fill="white">178.375µs</text><text x="705" y="780" fill="white"></text><text x="905" y="780" fill="white"></text><text x="1105" y="780" fill="white"></text><text x="5" y="810" fill="white">Day 25:</text><text x="105" y="810" fill="white"></text><text x="305" y="810" fill="white"></text><text x="505" y="810" fill="white"></text><text x="705" y="810" fill="white">1.222µs</text><text x="905" y="810" fill="white">907ns</text><text x="1105" y="810" fill="white">1.886µs</text></svg>
