<svg height="830" width="1300" xmlns="http://www.w3.org/2000/svg"><rect width="100%" height="100%" fill="%230D1117" /><text x="10" y="30" fill="white">Year 2024</text><text x="305" y="30" fill="white">Part 1</text><text x="905" y="30" fill="white">Part 2</text><text x="105" y="60" fill="white">Average</text><text x="305" y="60" fill="white">Best</text><text x="505" y="60" fill="white">Worst</text><text x="705" y="60" fill="white">Average</text><text x="905" y="60" fill="white">Best</text><text x="1105" y="60" fill="white">Worst</text><text x="5" y="90" fill="white">Day 1:</text><text x="105" y="90" fill="white">84.643µs</text><text x="305" y="90" fill="white">133.885µs</text><text x="505" y="90" fill="white">72.984µs</text><text x="705" y="90" fill="white">66.853µs</text><text x="905" y="90" fill="white">99.523µs</text><text x="1105" y="90" fill="white">61.041µs</text><text x="5" y="120" fill="white">Day 2:</text><text x="105" y="120" fill="white">50.551µs</text><text x="305" y="120" fill="white">75.359µs</text><text x="505" y="120" fill="white">48.539µs</text><text x="705" y="120" fill="white">177.863µs</text><text x="905" y="120" fill="white">209.942µs</text><text x="1105" y="120" fill="white">162.031µs</text><text x="5" y="150" fill="white">Day 3:</text><text x="105" y="150" fill="white">87.964µs</text><text x="305" y="150" fill="white">125.783µs</text><text x="505" y="150" fill="white">81.784µs</text><text x="705" y="150" fill="white">87.149µs</text><text x="905" y="150" fill="white">121.733µs</text><text x="1105" y="150" fill="white">83.46µs</text><text x="5" y="180" fill="white">Day 4:</text><text x="105" y="180" fill="white">71.253µs</text><text x="305" y="180" fill="white">105.041µs</text><text x="505" y="180" fill="white">66.279µs</text><text x="705" y="180" fill="white">41.07µs</text><text x="905" y="180" fill="white">120.127µs</text><text x="1105" y="180" fill="white">34.292µs</text><text x="5" y="210" fill="white">Day 5:</text><text x="105" y="210" fill="white">122.852µs</text><text x="305" y="210" fill="white">171.39µs</text><text x="505" y="210" fill="white">117.263µs</text><text x="705" y="210" fill="white">135.174µs</text><text x="905" y="210" fill="white">181.447µs</text><text x="1105" y="210" fill="white">132.209µs</text><text x="5" y="240" fill="white">Day 6:</text><text x="105" y="240" fill="white">46.66µs</text><text x="305" y="240" fill="white">176.069µs</text><text x="505" y="240" fill="white">43.371µs</text><text x="705" y="240" fill="white">9.841472ms</text><text x="905" y="240" fill="white">11.099068ms</text><text x="1105" y="240" fill="white">8.207929ms</text><text x="5" y="270" fill="white">Day 7:</text><text x="105" y="270" fill="white">293.346µs</text><text x="305" y="270" fill="white">420.652µs</text><text x="505" y="270" fill="white">248.215µs</text><text x="705" y="270" fill="white">10.51116ms</text><text x="905" y="270" fill="white">11.461823ms</text><text x="1105" y="270" fill="white">9.562076ms</text><text x="5" y="300" fill="white">Day 8:</text><text x="105" y="300" fill="white">13.457µs</text><text x="305" y="300" fill="white">48.609µs</text><text x="505" y="300" fill="white">10.895µs</text><text x="705" y="300" fill="white">25.85µs</text><text x="905" y="300" fill="white">85.275µs</text><text x="1105" y="300" fill="white">23.746µs</text><text x="5" y="330" fill="white">Day 9:</text><text x="105" y="330" fill="white">605.569µs</text><text x="305" y="330" fill="white">1.750914ms</text><text x="505" y="330" fill="white">554.329µs</text><text x="705" y="330" fill="white">20.049202ms</text><text x="905" y="330" fill="white">21.70422ms</text><text x="1105" y="330" fill="white">16.520967ms</text><text x="5" y="360" fill="white">Day 10:</text><text x="105" y="360" fill="white">215.375µs</text><text x="305" y="360" fill="white">457.528µs</text><text x="505" y="360" fill="white">123.269µs</text><text x="705" y="360" fill="white">68.76µs</text><text x="905" y="360" fill="white">206.031µs</text><text x="1105" y="360" fill="white">40.508µs</text><text x="5" y="390" fill="white">Day 11:</text><text x="105" y="390" fill="white">171.721µs</text><text x="305" y="390" fill="white">266.583µs</text><text x="505" y="390" fill="white">165.105µs</text><text x="705" y="390" fill="white">7.034197ms</text><text x="905" y="390" fill="white">7.417188ms</text><text x="1105" y="390" fill="white">6.91999ms</text><text x="5" y="420" fill="white">Day 12:</text><text x="105" y="420" fill="white">1.404054ms</text><text x="305" y="420" fill="white">2.147542ms</text><text x="505" y="420" fill="white">1.097343ms</text><text x="705" y="420" fill="white">47.310042ms</text><text x="905" y="420" fill="white">55.184269ms</text><text x="1105" y="420" fill="white">39.715387ms</text><text x="5" y="450" fill="white">Day 13:</text><text x="105" y="450" fill="white">53.248µs</text><text x="305" y="450" fill="white">92.958µs</text><text x="505" y="450" fill="white">49.447µs</text><text x="705" y="450" fill="white">57.187µs</text><text x="905" y="450" fill="white">132.209µs</text><text x="1105" y="450" fill="white">51.054µs</text><text x="5" y="480" fill="white">Day 14:</text><text x="105" y="480" fill="white">149.072µs</text><text x="305" y="480" fill="white">210.291µs</text><text x="505" y="480" fill="white">136.748µs</text><text x="705" y="480" fill="white">154.656µs</text><text x="905" y="480" fill="white">252.894µs</text><text x="1105" y="480" fill="white">122.012µs</text><text x="5" y="510" fill="white">Day 15:</text><text x="105" y="510" fill="white">474.557µs</text><text x="305" y="510" fill="white">631.363µs</text><text x="505" y="510" fill="white">454.874µs</text><text x="705" y="510" fill="white">875.595µs</text><text x="905" y="510" fill="white">1.056974ms</text><text x="1105" y="510" fill="white">847.242µs</text><text x="5" y="540" fill="white">Day 16:</text><text x="105" y="540" fill="white">1.054811ms</text><text x="305" y="540" fill="white">1.592865ms</text><text x="505" y="540" fill="white">1.022612ms</text><text x="705" y="540" fill="white">7.050463ms</text><text x="905" y="540" fill="white">8.369262ms</text><text x="1105" y="540" fill="white">6.877457ms</text><text x="5" y="570" fill="white">Day 17:</text><text x="105" y="570" fill="white">2.487µs</text><text x="305" y="570" fill="white">31.988µs</text><text x="505" y="570" fill="white">1.397µs</text><text x="705" y="570" fill="white">124.085µs</text><text x="905" y="570" fill="white">176.488µs</text><text x="1105" y="570" fill="white">111.955µs</text><text x="5" y="600" fill="white">Day 18:</text><text x="105" y="600" fill="white">387.221µs</text><text x="305" y="600" fill="white">526.323µs</text><text x="505" y="600" fill="white">368.342µs</text><text x="705" y="600" fill="white">4.176543ms</text><text x="905" y="600" fill="white">4.477509ms</text><text x="1105" y="600" fill="white">4.037092ms</text><text x="5" y="630" fill="white">Day 19:</text><text x="105" y="630" fill="white">829.018µs</text><text x="305" y="630" fill="white">3.34343ms</text><text x="505" y="630" fill="white">133.047µs</text><text x="705" y="630" fill="white">860.646µs</text><text x="905" y="630" fill="white">3.62028ms</text><text x="1105" y="630" fill="white">136.539µs</text><text x="5" y="660" fill="white">Day 20:</text><text x="105" y="660" fill="white">1.294613ms</text><text x="305" y="660" fill="white">1.670877ms</text><text x="505" y="660" fill="white">1.135197ms</text><text x="705" y="660" fill="white">23.912176ms</text><text x="905" y="660" fill="white">26.139475ms</text><text x="1105" y="660" fill="white">21.207651ms</text><text x="5" y="690" fill="white">Day 21:</text><text x="105" y="690" fill="white">496.845µs</text><text x="305" y="690" fill="white">814.416µs</text><text x="505" y="690" fill="white">467.795µs</text><text x="705" y="690" fill="white">520.232µs</text><text x="905" y="690" fill="white">2.259637ms</text><text x="1105" y="690" fill="white">471.636µs</text><text x="5" y="720" fill="white">Day 22:</text><text x="105" y="720" fill="white">16.538924ms</text><text x="305" y="720" fill="white">16.834414ms</text><text x="505" y="720" fill="white">16.415018ms</text><text x="705" y="720" fill="white">352.06691ms</text><text x="905" y="720" fill="white">414.313038ms</text><text x="1105" y="720" fill="white">327.735991ms</text><text x="5" y="750" fill="white">Day 23:</text><text x="105" y="750" fill="white">24.476028ms</text><text x="305" y="750" fill="white">25.965362ms</text><text x="505" y="750" fill="white">23.989209ms</text><text x="705" y="750" fill="white">41.306958ms</text><text x="905" y="750" fill="white">42.966277ms</text><text x="1105" y="750" fill="white">40.68457ms</text><text x="5" y="780" fill="white">Day 24:</text><text x="105" y="780" fill="white">101.807µs</text><text x="305" y="780" fill="white">166.78µs</text><text x="505" y="780" fill="white">93.727µs</text><text x="705" y="780" fill="white"></text><text x="905" y="780" fill="white"></text><text x="1105" y="780" fill="white"></text><text x="5" y="810" fill="white">Day 25:</text><text x="105" y="810" fill="white"></text><text x="305" y="810" fill="white"></text><text x="505" y="810" fill="white"></text><text x="705" y="810" fill="white">1.279µs</text><text x="905" y="810" fill="white">1.816µs</text><text x="1105" y="810" fill="white">908ns</text></svg>
