<svg height="830" width="1300" xmlns="http://www.w3.org/2000/svg"><rect width="100%" height="100%" fill="%230D1117" /><text x="10" y="30" fill="white">Year 2024</text><text x="305" y="30" fill="white">Part 1</text><text x="905" y="30" fill="white">Part 2</text><text x="105" y="60" fill="white">Average</text><text x="305" y="60" fill="white">Best</text><text x="505" y="60" fill="white">Worst</text><text x="705" y="60" fill="white">Average</text><text x="905" y="60" fill="white">Best</text><text x="1105" y="60" fill="white">Worst</text><text x="5" y="90" fill="white">Day 1:</text><text x="105" y="90" fill="white">78.675µs</text><text x="305" y="90" fill="white">74.103µs</text><text x="505" y="90" fill="white">114.263µs</text><text x="705" y="90" fill="white">64.786µs</text><text x="905" y="90" fill="white">62.998µs</text><text x="1105" y="90" fill="white">83.113µs</text><text x="5" y="120" fill="white">Day 2:</text><text x="105" y="120" fill="white">53.29µs</text><text x="305" y="120" fill="white">50.007µs</text><text x="505" y="120" fill="white">72.567µs</text><text x="705" y="120" fill="white">178.563µs</text><text x="905" y="120" fill="white">170.766µs</text><text x="1105" y="120" fill="white">222.589µs</text><text x="5" y="150" fill="white">Day 3:</text><text x="105" y="150" fill="white">90.835µs</text><text x="305" y="150" fill="white">86.885µs</text><text x="505" y="150" fill="white">138.917µs</text><text x="705" y="150" fill="white">103.738µs</text><text x="905" y="150" fill="white">94.986µs</text><text x="1105" y="150" fill="white">123.551µs</text><text x="5" y="180" fill="white">Day 4:</text><text x="105" y="180" fill="white">72.144µs</text><text x="305" y="180" fill="white">68.725µs</text><text x="505" y="180" fill="white">115.45µs</text><text x="705" y="180" fill="white">44.689µs</text><text x="905" y="180" fill="white">35.48µs</text><text x="1105" y="180" fill="white">119.362µs</text><text x="5" y="210" fill="white">Day 5:</text><text x="105" y="210" fill="white">126.989µs</text><text x="305" y="210" fill="white">119.501µs</text><text x="505" y="210" fill="white">167.902µs</text><text x="705" y="210" fill="white">142.071µs</text><text x="905" y="210" fill="white">132.492µs</text><text x="1105" y="210" fill="white">223.218µs</text><text x="5" y="240" fill="white">Day 6:</text><text x="105" y="240" fill="white">46.43µs</text><text x="305" y="240" fill="white">41.487µs</text><text x="505" y="240" fill="white">175.725µs</text><text x="705" y="240" fill="white">9.686119ms</text><text x="905" y="240" fill="white">8.806817ms</text><text x="1105" y="240" fill="white">10.43953ms</text><text x="5" y="270" fill="white">Day 7:</text><text x="105" y="270" fill="white">293.118µs</text><text x="305" y="270" fill="white">261.212µs</text><text x="505" y="270" fill="white">413.119µs</text><text x="705" y="270" fill="white">10.31839ms</text><text x="905" y="270" fill="white">8.871422ms</text><text x="1105" y="270" fill="white">11.479069ms</text><text x="5" y="300" fill="white">Day 8:</text><text x="105" y="300" fill="white">11.741µs</text><text x="305" y="300" fill="white">9.848µs</text><text x="505" y="300" fill="white">47.562µs</text><text x="705" y="300" fill="white">25.633µs</text><text x="905" y="300" fill="white">23.607µs</text><text x="1105" y="300" fill="white">88.979µs</text><text x="5" y="330" fill="white">Day 9:</text><text x="105" y="330" fill="white">584.624µs</text><text x="305" y="330" fill="white">552.456µs</text><text x="505" y="330" fill="white">1.581169ms</text><text x="705" y="330" fill="white">19.904524ms</text><text x="905" y="330" fill="white">15.613129ms</text><text x="1105" y="330" fill="white">21.32319ms</text><text x="5" y="360" fill="white">Day 10:</text><text x="105" y="360" fill="white">144.079µs</text><text x="305" y="360" fill="white">120.549µs</text><text x="505" y="360" fill="white">319.601µs</text><text x="705" y="360" fill="white">45.807µs</text><text x="905" y="360" fill="white">36.668µs</text><text x="1105" y="360" fill="white">94.497µs</text><text x="5" y="390" fill="white">Day 11:</text><text x="105" y="390" fill="white">171.391µs</text><text x="305" y="390" fill="white">157.285µs</text><text x="505" y="390" fill="white">273.783µs</text><text x="705" y="390" fill="white">6.644735ms</text><text x="905" y="390" fill="white">6.527709ms</text><text x="1105" y="390" fill="white">7.115506ms</text><text x="5" y="420" fill="white">Day 12:</text><text x="105" y="420" fill="white">1.19724ms</text><text x="305" y="420" fill="white">1.007342ms</text><text x="505" y="420" fill="white">1.64312ms</text><text x="705" y="420" fill="white">44.997933ms</text><text x="905" y="420" fill="white">39.84841ms</text><text x="1105" y="420" fill="white">52.189197ms</text><text x="5" y="450" fill="white">Day 13:</text><text x="105" y="450" fill="white">52.625µs</text><text x="305" y="450" fill="white">50.426µs</text><text x="505" y="450" fill="white">81.647µs</text><text x="705" y="450" fill="white">53.368µs</text><text x="905" y="450" fill="white">50.077µs</text><text x="1105" y="450" fill="white">88.491µs</text><text x="5" y="480" fill="white">Day 14:</text><text x="105" y="480" fill="white">144.555µs</text><text x="305" y="480" fill="white">134.796µs</text><text x="505" y="480" fill="white">196.397µs</text><text x="705" y="480" fill="white">151.538µs</text><text x="905" y="480" fill="white">116.428µs</text><text x="1105" y="480" fill="white">211.693µs</text><text x="5" y="510" fill="white">Day 15:</text><text x="105" y="510" fill="white">458.545µs</text><text x="305" y="510" fill="white">427.437µs</text><text x="505" y="510" fill="white">617.828µs</text><text x="705" y="510" fill="white">869.734µs</text><text x="905" y="510" fill="white">842.582µs</text><text x="1105" y="510" fill="white">1.026478ms</text><text x="5" y="540" fill="white">Day 16:</text><text x="105" y="540" fill="white">1.071054ms</text><text x="305" y="540" fill="white">1.014465ms</text><text x="505" y="540" fill="white">1.578725ms</text><text x="705" y="540" fill="white">7.027323ms</text><text x="905" y="540" fill="white">6.867214ms</text><text x="1105" y="540" fill="white">8.288095ms</text><text x="5" y="570" fill="white">Day 17:</text><text x="105" y="570" fill="white">2.438µs</text><text x="305" y="570" fill="white">1.815µs</text><text x="505" y="570" fill="white">36.249µs</text><text x="705" y="570" fill="white">120.938µs</text><text x="905" y="570" fill="white">112.097µs</text><text x="1105" y="570" fill="white">188.087µs</text><text x="5" y="600" fill="white">Day 18:</text><text x="105" y="600" fill="white">381.542µs</text><text x="305" y="600" fill="white">366.535µs</text><text x="505" y="600" fill="white">563.351µs</text><text x="705" y="600" fill="white">4.116009ms</text><text x="905" y="600" fill="white">4.015466ms</text><text x="1105" y="600" fill="white">4.34289ms</text><text x="5" y="630" fill="white">Day 19:</text><text x="105" y="630" fill="white">777.93µs</text><text x="305" y="630" fill="white">186.48µs</text><text x="505" y="630" fill="white">3.732255ms</text><text x="705" y="630" fill="white">755.001µs</text><text x="905" y="630" fill="white">193.185µs</text><text x="1105" y="630" fill="white">3.628748ms</text><text x="5" y="660" fill="white">Day 20:</text><text x="105" y="660" fill="white">1.254001ms</text><text x="305" y="660" fill="white">1.074739ms</text><text x="505" y="660" fill="white">1.881562ms</text><text x="705" y="660" fill="white">22.900135ms</text><text x="905" y="660" fill="white">20.401125ms</text><text x="1105" y="660" fill="white">25.346477ms</text><text x="5" y="690" fill="white">Day 21:</text><text x="105" y="690" fill="white">497.819µs</text><text x="305" y="690" fill="white">462.01µs</text><text x="505" y="690" fill="white">789.432µs</text><text x="705" y="690" fill="white">523.576µs</text><text x="905" y="690" fill="white">473.394µs</text><text x="1105" y="690" fill="white">2.247119ms</text><text x="5" y="720" fill="white">Day 22:</text><text x="105" y="720" fill="white">16.520655ms</text><text x="305" y="720" fill="white">16.407728ms</text><text x="505" y="720" fill="white">17.317708ms</text><text x="705" y="720" fill="white">362.259808ms</text><text x="905" y="720" fill="white">334.464024ms</text><text x="1105" y="720" fill="white">493.210735ms</text><text x="5" y="750" fill="white">Day 23:</text><text x="105" y="750" fill="white">24.29231ms</text><text x="305" y="750" fill="white">23.828928ms</text><text x="505" y="750" fill="white">25.292063ms</text><text x="705" y="750" fill="white">41.648447ms</text><text x="905" y="750" fill="white">40.434795ms</text><text x="1105" y="750" fill="white">44.540917ms</text><text x="5" y="780" fill="white">Day 24:</text><text x="105" y="780" fill="white">97.661µs</text><text x="305" y="780" fill="white">94.218µs</text><text x="505" y="780" fill="white">159.242µs</text><text x="705" y="780" fill="white"></text><text x="905" y="780" fill="white"></text><text x="1105" y="780" fill="white"></text><text x="5" y="810" fill="white">Day 25:</text><text x="105" y="810" fill="white"></text><text x="305" y="810" fill="white"></text><text x="505" y="810" fill="white"></text><text x="705" y="810" fill="white">1.213µs</text><text x="905" y="810" fill="white">908ns</text><text x="1105" y="810" fill="white">1.886µs</text></svg>
